<svg width="521" height="585" viewBox="0 0 521 585" fill="none" xmlns="http://www.w3.org/2000/svg">
<path fill-rule="evenodd" clip-rule="evenodd" d="M114.844 210.12C126.417 218.166 128.755 238.729 120.076 256.068C111.41 273.395 94.9927 280.924 83.4196 272.89C71.8479 264.845 69.5005 244.281 78.1779 226.943C86.8552 209.614 103.28 202.086 114.844 210.12Z" fill="#7B63B6"/>
<path fill-rule="evenodd" clip-rule="evenodd" d="M288.01 128.305H256.877C241.019 128.305 228.098 143.527 228.098 162.196V240.247H161.835C148.803 240.247 137.73 250.563 134.225 264.62C148.894 260.456 164.082 258.609 179.629 259.363C213.619 260.997 232.322 273.384 262.008 288.959C220.879 296.686 183.804 300.934 148.634 331.39C146.756 333.024 144.9 334.718 143.082 336.495C148.124 341.624 154.685 344.729 161.835 344.729H228.098V422.769C228.098 441.449 241.019 456.671 256.877 456.671H288.01C303.856 456.671 316.778 441.449 316.778 422.769V344.729H383.021C398.876 344.729 411.797 329.495 411.797 310.827V274.148C411.797 255.479 398.876 240.247 383.021 240.247H316.778V162.196C316.778 143.527 303.856 128.305 288.01 128.305Z" fill="#7B63B6"/>
<path fill-rule="evenodd" clip-rule="evenodd" d="M69.6797 461.306C41.0121 413.606 24.1569 355.375 24.1569 292.489C24.1569 240.21 35.819 191.158 56.2003 148.692C40.9133 270.689 79.1766 308.334 79.1766 308.334C154.565 246.998 223.035 282.937 223.035 282.937C120.916 302.134 55.7105 399.629 138.829 487.903C173.698 524.924 232.97 562.837 309.238 546.98C368.282 534.71 409.352 501.092 436.721 467.658C484.582 409.206 504.802 337.177 498.221 255.821C493.987 203.451 476.083 142.644 427.025 88.284C427.025 88.284 295.3 -67.4879 106.297 75.1582C150.292 28.445 208.547 -7.32276e-06 272.432 -7.32276e-06C409.551 -7.32276e-06 520.708 130.951 520.708 292.489C520.708 454.024 409.551 584.976 272.432 584.976C188.696 584.976 114.635 536.133 69.6699 461.306H69.6797Z" fill="#7B63B6"/>
<path fill-rule="evenodd" clip-rule="evenodd" d="M61.5417 148.055C61.5417 148.055 94.4645 122.634 75.7308 75.2983C75.7308 75.2983 38.5862 91.3551 52.0767 144.244C52.9255 140.245 63.3604 111.295 66.654 106.284C67.0339 113.776 62.4615 145.103 61.5417 148.055Z" fill="#7B63B6"/>
<path fill-rule="evenodd" clip-rule="evenodd" d="M33.4834 175.205C33.4834 175.205 -5.42008 165.83 0.641273 116.387C0.641273 116.387 41.2326 115.777 41.7614 168.041C39.894 164.843 22.1399 143.35 17.6064 140.223C19.1746 147.021 31.8261 172.946 33.4834 175.205Z" fill="#7B63B6"/>
<path fill-rule="evenodd" clip-rule="evenodd" d="M67.2341 188.64C67.2341 188.64 108.274 197.908 119.237 146.927C119.237 146.927 79.9357 127.139 61.6125 177.758C64.5179 175.522 89.1321 163.008 94.5937 162.101C90.7601 167.972 69.6108 187.228 67.2341 188.64Z" fill="#7B63B6"/>
<path fill-rule="evenodd" clip-rule="evenodd" d="M226.34 45.7606C337.418 17.2927 447.126 100.683 471.371 232C495.615 363.327 425.208 492.856 314.111 521.312C274.849 531.381 235.766 527.451 200.557 512.384C305.484 549.003 401.813 474.822 437.501 375.02C469.732 284.9 451.239 178.453 385.707 112.494C321.311 47.6901 221.208 30.6201 126.177 109.436C152.889 78.5087 187.058 55.8176 226.34 45.7606Z" fill="#7B63B6"/>
</svg>
