<svg preserveAspectRatio="none" width="100%" height="100%" overflow="visible" style="display: block;" viewBox="0 0 603.179 525.915" fill="none" xmlns="http://www.w3.org/2000/svg">
<g id="freepik--Bed--inject-22">
<path id="Vector" d="M237.571 0L225.658 6.88537L237.571 13.7532L249.485 6.88537L237.571 0Z" fill="#455A64"/>
<path id="Vector_2" d="M249.485 6.88537V184.573L237.571 191.441V13.7532L249.485 6.88537Z" fill="#263238"/>
<path id="Vector_3" d="M225.658 6.88537V184.573L237.571 191.441V13.7532L225.658 6.88537Z" fill="#37474F"/>
<path id="Vector_4" d="M225.658 14.2613L230.318 16.9418L16.5739 140.353L11.8961 137.655L225.658 14.2613Z" fill="#37474F"/>
<path id="Vector_5" d="M230.318 16.9418V36.5292L16.5739 159.923V140.353L230.318 16.9418Z" fill="#455A64"/>
<path id="Vector_6" d="M11.9486 157.26V137.69L16.5739 140.353V159.923L11.9486 157.26Z" fill="#37474F"/>
<path id="Vector_7" d="M225.658 65.4197L230.318 68.1178L16.5739 191.511L11.8961 188.831L225.658 65.4197Z" fill="#37474F"/>
<path id="Vector_8" d="M230.318 68.1178V87.6876L16.5739 211.098V191.511L230.318 68.1178Z" fill="#455A64"/>
<path id="Vector_9" d="M11.9486 208.435V188.848L16.5739 191.511V211.098L11.9486 208.435Z" fill="#37474F"/>
<path id="Vector_10" d="M11.9136 130.279L0 137.164L11.9136 144.032L23.8272 137.164L11.9136 130.279Z" fill="#455A64"/>
<path id="Vector_11" d="M23.8272 137.164V314.852L11.9136 321.72V144.032L23.8272 137.164Z" fill="#263238"/>
<path id="Vector_12" d="M0 137.164V314.852L11.9136 321.72V144.032L0 137.164Z" fill="#37474F"/>
<path id="Vector_13" d="M591.265 204.178L603.179 211.063L591.265 217.931L579.351 211.063L591.265 204.178Z" fill="#455A64"/>
<path id="Vector_14" d="M579.351 211.063V388.751L591.265 395.619V217.931L579.351 211.063Z" fill="#263238"/>
<path id="Vector_15" d="M603.179 211.063V388.751L591.265 395.619V217.931L603.179 211.063Z" fill="#37474F"/>
<g id="freepik--bed--inject-22">
<path id="Vector_16" d="M226.428 114.441L28.0495 228.881C25.0829 230.818 22.614 233.426 20.8425 236.494C19.0711 239.562 18.0469 243.004 17.8529 246.541V256.212C18.0454 259.748 19.0691 263.188 20.8408 266.253C22.6126 269.319 25.0823 271.923 28.0495 273.855L355.393 462.843C358.552 464.441 362.041 465.274 365.581 465.274C369.121 465.274 372.611 464.441 375.769 462.843L574.165 348.403C577.133 346.467 579.603 343.86 581.374 340.791C583.146 337.723 584.169 334.28 584.362 330.743V321.072C584.17 317.536 583.146 314.096 581.374 311.03C579.602 307.965 577.133 305.361 574.165 303.429L246.769 114.441C243.615 112.851 240.131 112.023 236.599 112.023C233.066 112.023 229.583 112.851 226.428 114.441Z" fill="#455A64"/>
<path id="Vector_17" d="M584.38 321.089V330.76C584.187 334.295 583.163 337.736 581.392 340.801C579.62 343.867 577.15 346.471 574.183 348.403L375.804 462.843C372.667 464.505 369.157 465.337 365.607 465.261V432.061C369.156 432.128 372.664 431.297 375.804 429.643L574.183 315.202C579.439 312.136 579.789 307.371 575.217 304.095C577.895 306.083 580.105 308.636 581.688 311.573C583.271 314.51 584.19 317.758 584.38 321.089V321.089Z" fill="#263238"/>
<path id="Vector_18" d="M28.0495 240.655C22.7935 237.571 22.4431 232.666 27.2786 229.424C24.5269 231.391 22.2516 233.949 20.6202 236.912C18.9889 239.874 18.0432 243.165 17.8529 246.541V256.212C18.0454 259.748 19.0691 263.188 20.8408 266.253C22.6126 269.319 25.0823 271.923 28.0495 273.855L355.393 462.843C358.528 464.513 362.039 465.351 365.59 465.279V431.991C362.041 432.058 358.534 431.227 355.393 429.573L28.0495 240.655Z" fill="#37474F"/>
<path id="Vector_19" d="M226.428 59.3403L28.0495 173.781C25.0823 175.713 22.6126 178.317 20.8408 181.383C19.0691 184.448 18.0454 187.888 17.8529 191.424V212.045C18.0469 215.582 19.0711 219.024 20.8425 222.092C22.614 225.16 25.0829 227.768 28.0495 229.705L355.393 418.675C358.549 420.282 362.04 421.119 365.581 421.119C369.122 421.119 372.613 420.282 375.769 418.675L574.165 304.252C577.142 302.312 579.619 299.697 581.394 296.619C583.169 293.541 584.192 290.088 584.38 286.54V265.971C584.186 262.434 583.161 258.992 581.39 255.924C579.619 252.855 577.15 250.248 574.183 248.311L246.769 59.3403C243.615 57.7506 240.131 56.9226 236.599 56.9226C233.066 56.9226 229.583 57.7506 226.428 59.3403Z" fill="#8389BE"/>
<path id="Vector_20" opacity="0.6" d="M28.0495 185.537L355.393 374.525C358.552 376.123 362.041 376.956 365.581 376.956C369.121 376.956 372.611 376.123 375.769 374.525L574.183 260.084C579.807 256.843 579.807 251.57 574.183 248.311L246.769 59.3403C243.608 57.742 240.115 56.9093 236.573 56.9093C233.03 56.9093 229.537 57.742 226.376 59.3403L28.0495 173.781C22.5132 177.022 22.5132 182.296 28.0495 185.537Z" fill="white"/>
<path id="Vector_21" opacity="0.5" d="M584.38 265.971V286.54C584.187 290.077 583.163 293.52 581.392 296.588C579.62 299.657 577.151 302.264 574.183 304.2L375.804 418.693C372.664 420.347 369.156 421.178 365.607 421.111V376.96C369.158 377.03 372.668 376.192 375.804 374.525L574.183 260.102C579.439 257.036 579.789 252.253 575.217 248.994C577.893 250.981 580.101 253.531 581.684 256.465C583.268 259.398 584.188 262.643 584.38 265.971Z" fill="white"/>
<path id="Vector_22" opacity="0.6" d="M28.0495 185.554C22.7935 182.471 22.4431 177.565 27.2786 174.306C24.5288 176.274 22.2547 178.833 20.6236 181.796C18.9924 184.758 18.0457 188.048 17.8529 191.424V212.045C18.0469 215.582 19.0711 219.024 20.8425 222.092C22.614 225.16 25.0829 227.768 28.0495 229.705L355.393 418.675C358.528 420.345 362.039 421.183 365.59 421.111V376.96C362.039 377.033 358.528 376.194 355.393 374.525L28.0495 185.554Z" fill="white"/>
<path id="Vector_23" d="M118.768 237.992V315.255L365.625 457.692V376.96C362.074 377.031 358.564 376.193 355.428 374.525L118.768 237.992Z" fill="#8389BE"/>
<path id="Vector_24" opacity="0.3" d="M118.768 237.992V315.255L365.625 457.692V376.96C362.074 377.031 358.564 376.193 355.428 374.525L118.768 237.992Z" fill="black"/>
<path id="Vector_25" d="M574.183 260.102C579.439 257.036 579.789 252.253 575.217 248.994C577.893 250.981 580.101 253.531 581.684 256.465C583.268 259.398 584.188 262.643 584.38 265.971V331.478L365.607 457.622V376.96C369.158 377.027 372.667 376.189 375.804 374.525L574.183 260.102Z" fill="#8389BE"/>
<path id="Vector_26" opacity="0.45" d="M574.183 260.102C579.439 257.036 579.789 252.253 575.217 248.994C577.893 250.981 580.101 253.531 581.684 256.465C583.268 259.398 584.188 262.643 584.38 265.971V331.478L365.607 457.622V376.96C369.158 377.027 372.667 376.189 375.804 374.525L574.183 260.102Z" fill="black"/>
<path id="Vector_27" d="M574.183 248.311L337.663 111.76L118.838 237.992L355.393 374.525C358.552 376.123 362.041 376.956 365.581 376.956C369.121 376.956 372.611 376.123 375.769 374.525L574.183 260.084C579.807 256.843 579.807 251.5 574.183 248.311Z" fill="#8389BE"/>
<path id="Vector_28" opacity="0.2" d="M574.183 248.311L337.663 111.76L118.838 237.992L355.393 374.525C358.552 376.123 362.041 376.956 365.581 376.956C369.121 376.956 372.611 376.123 375.769 374.525L574.183 260.084C579.807 256.843 579.807 251.5 574.183 248.311Z" fill="black"/>
<path id="Vector_29" opacity="0.2" d="M156.997 260.067V337.488L161.797 340.098L161.78 262.817L156.997 260.067Z" fill="black"/>
<path id="Vector_30" opacity="0.2" d="M156.997 260.067L375.874 133.853L380.657 136.621L161.78 262.818L156.997 260.067Z" fill="black"/>
<path id="Vector_31" opacity="0.05" d="M250.483 94.4153L207.577 70.2202L43.1518 165.056L85.4976 189.584C90.8938 192.702 96.3249 191.949 104.051 189.584C111.778 187.219 137.339 177.075 137.339 177.075C154.246 170.505 214.673 139.757 250.501 105.138C257.053 98.8479 255.88 97.5338 250.483 94.4153Z" fill="black"/>
<path id="Vector_32" d="M239.393 99.9867C241.741 93.2415 238.99 80.7146 233.261 71.867L210.24 36.4942C207.051 31.571 203.6 28.8905 200.779 28.6452C193.771 27.2436 140.072 51.8417 121.939 61.3025C103.806 70.7633 63.107 94.1525 54.0492 105.663C51.0883 109.447 85.0421 180.596 92.5932 179.79C109.167 178.038 142.893 163.794 161.166 153.72C191.038 137.252 227.9 112.951 234.978 106.416C237.035 104.74 238.568 102.508 239.393 99.9867V99.9867Z" fill="#FAFAFA"/>
<path id="Vector_33" d="M58.4818 136.709L81.4855 172.081C87.2146 180.841 93.7495 182.593 96.0797 175.813C98.4098 169.033 95.6592 156.541 89.9302 147.676L66.9264 112.303C61.1974 103.543 54.6624 101.791 52.3322 108.589C50.0021 115.387 52.7527 127.914 58.4818 136.709Z" fill="#EBEBEB"/>
</g>
<path id="Vector_34" d="M365.607 334.474L377.521 341.342L365.607 348.21L353.694 341.342L365.607 334.474Z" fill="#455A64"/>
<path id="Vector_35" d="M353.694 341.342V519.03L365.607 525.915V348.21L353.694 341.342Z" fill="#263238"/>
<path id="Vector_36" d="M377.521 341.342V519.03L365.607 525.915V348.21L377.521 341.342Z" fill="#37474F"/>
<path id="Vector_37" d="M586.587 222.627L591.265 225.325L377.503 348.718L372.843 346.038L586.587 222.627Z" fill="#37474F"/>
<path id="Vector_38" d="M591.265 225.325V244.912L377.503 368.305V348.718L591.265 225.325Z" fill="#455A64"/>
<path id="Vector_39" d="M372.896 365.625V346.055L377.503 348.718V368.305L372.896 365.625Z" fill="#37474F"/>
<path id="Vector_40" d="M586.587 273.785L591.265 276.483L377.503 399.894L372.843 397.196L586.587 273.785Z" fill="#37474F"/>
<path id="Vector_41" d="M591.265 276.483V296.071L377.503 419.464V399.894L591.265 276.483Z" fill="#455A64"/>
<path id="Vector_42" d="M372.896 416.801V397.231L377.503 399.894V419.464L372.896 416.801Z" fill="#37474F"/>
</g>
</svg>
