<svg preserveAspectRatio="none" width="100%" height="100%" overflow="visible" style="display: block;" viewBox="0 0 124.481 153.526" fill="none" xmlns="http://www.w3.org/2000/svg">
<g id="freepik--briefcase--inject-22">
<path id="Vector" d="M1.00098e-05 60.8557V132.951C1.00098e-05 136.455 2.4703 138.469 5.50126 140.239L26.2099 152.152C27.0537 152.764 28.02 153.186 29.0422 153.388C30.0644 153.591 31.1184 153.57 32.1317 153.326C33.5496 152.956 34.9109 152.397 36.1788 151.662H36.3365L36.7395 151.417L118.786 104.113C120.182 103.311 121.341 102.155 122.147 100.761C122.953 99.3675 123.377 97.7859 123.376 96.176V25.1149C123.324 24.3003 123.084 23.5088 122.673 22.8033C122.263 22.0978 121.693 21.4976 121.011 21.0503L94.9584 6.05315C94.234 5.67402 93.4284 5.47598 92.6107 5.47598C91.793 5.47598 90.9875 5.67402 90.263 6.05315L2.36522 56.8611C1.68243 57.3084 1.11321 57.9087 0.702671 58.6142C0.292132 59.3197 0.051551 60.1111 1.00098e-05 60.9258V60.8557Z" fill="#E0E0E0"/>
<g id="Group" opacity="0.05">
<path id="Vector_2" d="M1.00098e-05 60.8557V132.951C1.00098e-05 136.455 2.4703 138.469 5.50126 140.239L26.2099 152.152C27.0537 152.764 28.02 153.186 29.0422 153.388C30.0644 153.591 31.1184 153.57 32.1317 153.326C33.5496 152.956 34.9109 152.397 36.1788 151.662H36.3365L36.7395 151.417L118.786 104.113C120.182 103.311 121.341 102.155 122.147 100.761C122.953 99.3675 123.377 97.7859 123.376 96.176V25.1149C123.324 24.3003 123.084 23.5088 122.673 22.8033C122.263 22.0978 121.693 21.4976 121.011 21.0503L94.9584 6.05315C94.234 5.67402 93.4284 5.47598 92.6107 5.47598C91.793 5.47598 90.9875 5.67402 90.263 6.05315L2.36522 56.8611C1.68243 57.3084 1.11321 57.9087 0.702671 58.6142C0.292132 59.3197 0.051551 60.1111 1.00098e-05 60.9258V60.8557Z" fill="black"/>
</g>
<path id="Vector_3" d="M30.7126 79.9875C30.777 78.758 31.1272 77.5603 31.7355 76.4898C32.3438 75.4193 33.1933 74.5053 34.2166 73.8205L117.296 25.8507C120.59 23.9586 123.271 25.5179 123.271 29.3547V96.0884C123.272 97.6962 122.85 99.276 122.047 100.669C121.245 102.062 120.09 103.22 118.698 104.025L36.6343 151.329C33.3581 153.221 30.66 151.679 30.66 147.825L30.7126 79.9875Z" fill="#E0E0E0"/>
<path id="Vector_4" d="M1.00098e-05 73.6278C1.00098e-05 66.7599 1.99728 61.0484 9.07536 64.6926C16.1534 68.3367 21.1642 70.4391 27.0859 73.6278C33.0077 76.8164 33.7085 80.4781 33.7085 84.788V115.816C33.7054 116.661 33.9245 117.491 34.3437 118.224C34.7629 118.958 35.3676 119.568 36.0969 119.994C36.8263 120.42 37.6549 120.646 38.4995 120.651C39.3441 120.656 40.1751 120.438 40.9092 120.021L117.577 76.6237C119.672 75.4409 121.415 73.7225 122.628 71.6446C123.841 69.5666 124.48 67.2037 124.48 64.7977V28.8992C124.48 23.2052 124.707 22.2241 119.013 18.7201C113.319 15.2161 100.074 7.68251 97.3411 6.31595C94.608 4.94939 93.6619 4.09092 90.3331 6.05316L2.43526 56.8611C-0.595698 58.6131 0.070105 61.0134 0.070105 63.0457L1.00098e-05 73.6278Z" fill="#FAFAFA"/>
<path id="Vector_5" d="M123.376 70.1413V29.3022C123.376 25.5178 120.695 24.0462 117.402 25.7982L34.3217 73.768C33.0965 74.558 32.1236 75.6828 31.5185 77.0091C33.1581 79.2353 33.9361 81.98 33.7085 84.7354V115.763C33.7054 116.608 33.9245 117.439 34.3437 118.172C34.7629 118.905 35.3676 119.515 36.0969 119.941C36.8263 120.367 37.6549 120.594 38.4995 120.599C39.3441 120.603 40.1751 120.386 40.9092 119.968L117.577 76.5711C120.162 75.1212 122.2 72.8621 123.376 70.1413V70.1413Z" fill="#F5F5F5"/>
<path id="Vector_6" d="M81.6607 78.9188V88.3095L73.549 93.0049V83.6142L65.4197 88.3095V78.9188L73.549 74.241V64.8502L81.6607 60.1549V69.5456L89.79 64.8502V74.241L81.6607 78.9188Z" fill="#8389BE"/>
<path id="Vector_7" d="M72.7606 11.204V24.4667L78.0166 27.4801V9.78488C78.0166 8.87384 77.3683 8.50592 76.5799 8.96144L72.7606 11.204Z" fill="#8389BE"/>
<path id="Vector_8" opacity="0.4" d="M72.7606 11.204V24.4667L78.0166 27.4801V9.78488C78.0166 8.87384 77.3683 8.50592 76.5799 8.96144L72.7606 11.204Z" fill="black"/>
<path id="Vector_9" d="M36.0912 24.3615V45.9287L41.0669 48.802L44.4132 46.8572V29.1795C44.442 28.6859 44.5853 28.2058 44.8315 27.7771C45.0778 27.3484 45.4205 26.9828 45.8323 26.7092L71.2188 12.0625L76.4748 9.01401C77.2632 8.55849 77.9115 8.92641 77.9115 9.83745V27.5327L81.2578 25.5879V4.03833C81.2665 3.9451 81.2665 3.85124 81.2578 3.75801C81.1935 3.31213 81.0333 2.8855 80.7883 2.50745C80.5433 2.12939 80.2194 1.80888 79.8387 1.56801L77.7187 0.341613C77.2794 0.117087 76.793 1.37939e-05 76.2996 1.37939e-05C75.8062 1.37939e-05 75.3198 0.117087 74.8805 0.341613L37.5279 21.8912C37.1098 22.1597 36.7616 22.5237 36.5118 22.9532C36.262 23.3827 36.1179 23.8654 36.0912 24.3615V24.3615Z" fill="#8389BE"/>
<path id="Vector_10" opacity="0.2" d="M41.0669 27.2348V48.802L44.4132 46.8572V29.1796C44.442 28.686 44.5853 28.2058 44.8315 27.7771C45.0778 27.3484 45.4205 26.9828 45.8323 26.7092L71.2188 12.0625L76.4748 9.01402C77.2632 8.5585 77.9115 8.92642 77.9115 9.83746V27.5327L81.2578 25.588V4.03835C81.2665 3.94511 81.2665 3.85126 81.2578 3.75802C81.1351 3.05722 80.5395 2.81194 79.8387 3.2149L42.5035 24.7645C42.0903 25.0381 41.7457 25.4034 41.4965 25.8318C41.2473 26.2602 41.1003 26.7403 41.0669 27.2348V27.2348Z" fill="black"/>
</g>
</svg>
