<svg preserveAspectRatio="none" width="100%" height="100%" overflow="visible" style="display: block;" viewBox="0 0 181.455 232.631" fill="none" xmlns="http://www.w3.org/2000/svg">
<g id="freepik--cabinet--inject-22">
<path id="Vector" d="M72.4102 232.631L0 190.828V63.037L72.4102 104.84V232.631Z" fill="#263238"/>
<path id="Vector_2" d="M72.4102 104.84L181.437 41.8027L181.455 169.594L72.4102 232.631V104.84Z" fill="#37474F"/>
<path id="Vector_3" d="M181.437 41.8027L72.4102 104.84L0 63.037L109.027 0L181.437 41.8027Z" fill="#455A64"/>
<path id="Vector_4" d="M82.747 168.017L171.1 116.928L173.01 118.015L172.992 161.079L84.6566 212.167L82.747 211.063V168.017Z" fill="#263238"/>
<path id="Vector_5" d="M84.6566 169.121L173.01 118.015L172.992 161.079L84.6566 212.167V169.121Z" fill="#455A64"/>
<path id="Vector_6" d="M120.835 159.66L134.851 151.53C136.603 150.479 138.145 150.952 138.145 152.617C138.012 153.631 137.645 154.6 137.074 155.449C136.502 156.297 135.741 157.001 134.851 157.505L120.835 165.634C119.083 166.685 117.524 166.195 117.524 164.548C117.66 163.533 118.03 162.563 118.605 161.714C119.18 160.866 119.943 160.163 120.835 159.66V159.66Z" fill="#37474F"/>
<path id="Vector_7" d="M82.747 113.022L171.1 61.9332L172.992 63.037V106.084L84.6566 157.172L82.747 156.086V113.022Z" fill="#263238"/>
<path id="Vector_8" d="M84.6566 114.125L172.992 63.037V106.084L84.6566 157.172V114.125Z" fill="#455A64"/>
<path id="Vector_9" d="M120.835 104.664L134.851 96.5527C136.603 95.484 138.163 95.9746 138.163 97.6215C138.028 98.6395 137.658 99.6124 137.084 100.464C136.509 101.315 135.745 102.021 134.851 102.527L120.835 110.639C119.083 111.69 117.524 111.217 117.524 109.57C117.663 108.553 118.034 107.582 118.608 106.731C119.182 105.881 119.944 105.174 120.835 104.664V104.664Z" fill="#37474F"/>
</g>
</svg>
