<svg preserveAspectRatio="none" width="100%" height="100%" overflow="visible" style="display: block;" viewBox="0 0 167.824 288.225" fill="none" xmlns="http://www.w3.org/2000/svg">
<g id="freepik--Chair--inject-22">
<path id="Vector" d="M89.1592 110.122L95.3088 110.297L101.406 26.5861L95.2562 26.4109L89.1592 110.122Z" fill="#37474F"/>
<path id="Vector_2" d="M141.667 138.942L147.799 139.117L153.896 55.4065L147.746 55.2313L141.667 138.942Z" fill="#37474F"/>
<path id="Vector_3" d="M139.582 144.794H149.761L161.569 235.197C161.567 235.434 161.496 235.666 161.366 235.865C161.235 236.064 161.051 236.221 160.834 236.318C160.272 236.603 159.65 236.751 159.02 236.751C158.39 236.751 157.769 236.603 157.207 236.318C157.031 236.233 156.875 236.11 156.751 235.959C156.627 235.808 156.538 235.631 156.489 235.442V235.442L139.582 144.794Z" fill="#455A64"/>
<path id="Vector_4" d="M78.5772 109.578H88.7388L100.565 199.964C100.569 200.203 100.501 200.438 100.37 200.638C100.238 200.838 100.05 200.994 99.829 201.085C99.2669 201.37 98.6457 201.519 98.0157 201.519C97.3856 201.519 96.7644 201.37 96.2023 201.085C96.0282 200.997 95.8744 200.874 95.7507 200.723C95.627 200.572 95.5362 200.397 95.484 200.209V200.209L78.5772 109.578Z" fill="#455A64"/>
<path id="Vector_5" d="M0 248.512L17.52 144.794H27.6816L5.11586 248.687C5.0668 248.877 4.97711 249.053 4.85307 249.204C4.72904 249.356 4.57362 249.478 4.39754 249.563C3.83549 249.848 3.21428 249.996 2.58421 249.996C1.95414 249.996 1.33293 249.848 0.770884 249.563C0.553923 249.466 0.369297 249.309 0.23889 249.11C0.108482 248.911 0.0377306 248.68 0.0350208 248.442L0 248.512Z" fill="#455A64"/>
<path id="Vector_6" d="M66.1906 286.671L80.9774 181.077H91.139L71.3064 286.916C71.2542 287.104 71.1634 287.279 71.0397 287.43C70.916 287.58 70.7622 287.704 70.5881 287.792C70.0261 288.077 69.4048 288.225 68.7748 288.225C68.1447 288.225 67.5235 288.077 66.9614 287.792C66.7445 287.695 66.5599 287.538 66.4295 287.339C66.299 287.14 66.2283 286.908 66.2256 286.671H66.1906Z" fill="#455A64"/>
<path id="Vector_7" d="M17.5726 144.794H27.7341L23.5994 163.803C21.2634 161.876 19.0092 159.907 16.8367 157.899C16.3582 157.422 15.9511 156.879 15.6279 156.287L17.5726 144.794Z" fill="#37474F"/>
<path id="Vector_8" d="M149.761 144.794L151.425 157.531C151.096 158.777 150.451 159.918 149.551 160.842C147.659 162.594 145.661 164.346 143.576 166.098L139.582 144.829L149.761 144.794Z" fill="#37474F"/>
<path id="Vector_9" d="M78.84 195.619L80.8899 181.077H91.0514L87.7227 198.79C84.7092 197.879 81.7483 196.723 78.84 195.619Z" fill="#37474F"/>
<path id="Vector_10" d="M87.7401 112.294C88.1916 112.21 88.6481 112.158 89.1067 112.136L99.9341 195.094C98.077 196.092 96.9381 196.688 95.081 197.634L79.4181 114.046C82.1513 113.415 84.9194 112.82 87.7401 112.294Z" fill="#37474F"/>
<path id="Vector_11" d="M87.8453 190.871C61.5151 182.478 37.298 168.52 16.8367 149.944C15.4663 148.526 14.657 146.658 14.5591 144.688V139.205C14.612 138.245 14.8617 137.307 15.2927 136.448C15.7237 135.589 16.3268 134.828 17.0645 134.211C38.0704 119.055 62.2312 108.843 87.7401 104.34C89.7687 104.047 91.8352 104.16 93.8196 104.673C118.102 112.078 136.738 122.748 149.726 136.682C151.006 138.225 151.744 140.145 151.828 142.148V147.632C151.72 149.599 150.912 151.463 149.551 152.888C134.974 166.291 114.16 180.061 93.6093 190.433C91.796 191.24 89.7596 191.394 87.8453 190.871V190.871Z" fill="#8389BE"/>
<path id="Vector_12" opacity="0.5" d="M87.8453 190.871C61.5151 182.478 37.298 168.52 16.8367 149.944C15.4663 148.526 14.657 146.658 14.5591 144.688V139.205C14.612 138.245 14.8617 137.307 15.2927 136.448C15.7237 135.589 16.3268 134.828 17.0645 134.211C38.0704 119.055 62.2312 108.843 87.7401 104.34C89.7687 104.047 91.8352 104.16 93.8196 104.673C118.102 112.078 136.738 122.748 149.726 136.682C151.006 138.225 151.744 140.145 151.828 142.148V147.632C151.72 149.599 150.912 151.463 149.551 152.888C134.974 166.291 114.16 180.061 93.6093 190.433C91.796 191.24 89.7596 191.394 87.8453 190.871V190.871Z" fill="black"/>
<path id="Vector_13" d="M14.5591 139.117V144.601C14.657 146.571 15.4663 148.438 16.8367 149.857C37.2847 168.462 61.4963 182.45 87.8278 190.871C88.876 191.162 89.9712 191.246 91.0514 191.116V104.13C89.9461 104.039 88.8338 104.086 87.7401 104.27C62.2311 108.739 38.0636 118.921 17.047 134.054C16.3041 134.679 15.6993 135.452 15.271 136.324C14.8428 137.196 14.6003 138.147 14.5591 139.117Z" fill="#8389BE"/>
<path id="Vector_14" opacity="0.3" d="M14.5591 139.117V144.601C14.657 146.571 15.4663 148.438 16.8367 149.857C37.2847 168.462 61.4963 182.45 87.8278 190.871C88.876 191.162 89.9712 191.246 91.0514 191.116V104.13C89.9461 104.039 88.8338 104.086 87.7401 104.27C62.2311 108.739 38.0636 118.921 17.047 134.054C16.3041 134.679 15.6993 135.452 15.271 136.324C14.8428 137.196 14.6003 138.147 14.5591 139.117Z" fill="black"/>
<path id="Vector_15" d="M149.551 141.027C134.974 154.43 114.16 168.165 93.6094 178.555C91.7878 179.353 89.7488 179.507 87.8278 178.993C61.4982 170.636 37.2829 156.694 16.8367 138.118C16.5375 137.87 16.3008 137.554 16.1457 137.197C15.9905 136.84 15.9212 136.452 15.9433 136.064C15.9655 135.675 16.0785 135.297 16.2732 134.96C16.4679 134.624 16.7389 134.337 17.0645 134.124C38.0704 118.967 62.2312 108.755 87.7402 104.252C89.7687 103.959 91.8352 104.073 93.8196 104.585C118.102 111.99 136.738 122.648 149.726 136.559C150.293 137.176 150.592 137.992 150.56 138.829C150.527 139.666 150.164 140.456 149.551 141.027V141.027Z" fill="#8389BE"/>
<path id="Vector_16" d="M165.932 44.1237C156.811 32.0324 145.351 21.8991 132.234 14.3264C119.117 6.75375 104.612 1.89642 89.5798 0.0433274C87.6307 -0.134162 85.6708 0.23597 83.9208 1.11205C83.167 1.62843 82.5446 2.31416 82.1035 3.1143C81.6624 3.91444 81.4147 4.80677 81.3804 5.71982V28.8112C81.4072 29.6653 81.7319 30.4832 82.2982 31.1231C82.8646 31.763 83.6369 32.1847 84.4814 32.3152C99.5097 34.171 114.011 39.0316 127.122 46.6074C140.233 54.1833 151.686 64.3196 160.799 76.413C161.294 77.0891 162.015 77.5651 162.832 77.7548C163.648 77.9445 164.506 77.8351 165.249 77.4467C166.002 76.9303 166.625 76.2446 167.066 75.4444C167.507 74.6443 167.755 73.752 167.789 72.8389V49.7476C167.709 47.7359 167.066 45.7872 165.932 44.1237V44.1237Z" fill="#8389BE"/>
<path id="Vector_17" d="M145.206 59.6639L167.298 46.9093C167.621 47.822 167.799 48.7798 167.824 49.7476V72.8389C167.79 73.752 167.542 74.6443 167.101 75.4445C166.66 76.2446 166.037 76.9303 165.284 77.4467C164.541 77.8351 163.684 77.9445 162.867 77.7548C162.051 77.5652 161.329 77.0891 160.834 76.413C156.156 70.3565 150.924 64.7492 145.206 59.6639V59.6639Z" fill="#8389BE"/>
<path id="Vector_18" opacity="0.5" d="M145.206 59.6639L167.298 46.9093C167.621 47.822 167.799 48.7798 167.824 49.7476V72.8389C167.79 73.752 167.542 74.6443 167.101 75.4445C166.66 76.2446 166.037 76.9303 165.284 77.4467C164.541 77.8351 163.684 77.9445 162.867 77.7548C162.051 77.5652 161.329 77.0891 160.834 76.413C156.156 70.3565 150.924 64.7492 145.206 59.6639V59.6639Z" fill="black"/>
<path id="Vector_19" d="M160.799 76.413C151.68 64.3189 140.221 54.1835 127.104 46.6106C113.987 39.0376 99.4795 34.1819 84.4464 32.3327C83.6033 32.1991 82.8328 31.7764 82.267 31.1372C81.7013 30.4979 81.3755 29.6818 81.3453 28.8287V5.71984C81.3327 5.32509 81.4074 4.9324 81.5642 4.5699C81.7209 4.2074 81.9558 3.88401 82.2521 3.62287C82.5484 3.36173 82.8988 3.16931 83.2781 3.05933C83.6574 2.94935 84.0564 2.92454 84.4464 2.9867C99.4795 4.83591 113.987 9.6916 127.104 17.2646C140.221 24.8375 151.68 34.9729 160.799 47.067C161.953 48.7161 162.61 50.662 162.691 52.6734V75.7823C162.726 77.4993 161.902 77.7796 160.799 76.413Z" fill="#8389BE"/>
<path id="Vector_20" opacity="0.3" d="M160.799 76.413C151.68 64.3189 140.221 54.1835 127.104 46.6106C113.987 39.0376 99.4795 34.1819 84.4464 32.3327C83.6033 32.1991 82.8328 31.7764 82.267 31.1372C81.7013 30.4979 81.3755 29.6818 81.3453 28.8287V5.71984C81.3327 5.32509 81.4074 4.9324 81.5642 4.5699C81.7209 4.2074 81.9558 3.88401 82.2521 3.62287C82.5484 3.36173 82.8988 3.16931 83.2781 3.05933C83.6574 2.94935 84.0564 2.92454 84.4464 2.9867C99.4795 4.83591 113.987 9.6916 127.104 17.2646C140.221 24.8375 151.68 34.9729 160.799 47.067C161.953 48.7161 162.61 50.662 162.691 52.6734V75.7823C162.726 77.4993 161.902 77.7796 160.799 76.413Z" fill="black"/>
</g>
</svg>
