<svg preserveAspectRatio="none" width="100%" height="100%" overflow="visible" style="display: block;" viewBox="0 0 118.05 418.157" fill="none" xmlns="http://www.w3.org/2000/svg">
<g id="freepik--Curtains--inject-22">
<path id="Vector" d="M3.8147e-07 0V28.6978C3.8147e-07 28.6978 3.92447 147.448 86.9868 230.633V399.806C87.0769 400.493 87.3237 401.15 87.708 401.726C88.0923 402.302 88.6039 402.783 89.2033 403.13C89.8027 403.477 90.4738 403.681 91.1648 403.728C91.8559 403.775 92.5484 403.662 93.1889 403.398C93.1889 403.398 95.5541 409.197 99.4085 406.902C99.4085 406.902 102.001 412.579 105.611 410.494C105.611 410.494 108.291 416.135 111.83 413.998C111.83 413.998 113.862 419.989 118.05 417.589V68.1528L3.8147e-07 0Z" fill="#F0F0F0"/>
<path id="Vector_2" d="M93.1889 403.433C93.5042 388.156 93.6619 372.878 93.7846 357.618L93.9598 317.918L93.7846 272.103L93.5743 249.134L93.1889 232.35L92.821 249.134L92.6107 272.033L92.4355 317.848L92.6107 357.548C92.7333 372.878 92.8735 388.156 93.1889 403.433Z" fill="#E0E0E0"/>
<path id="Vector_3" d="M99.4085 407.007C99.7238 391.747 99.864 376.47 99.9867 361.21L100.162 321.51L99.9867 275.695L99.7764 252.796L99.4085 236.012L99.023 252.796L98.8128 275.695L98.6376 321.51L98.8128 361.21C98.9354 376.47 99.0931 391.747 99.4085 407.007Z" fill="#E0E0E0"/>
<path id="Vector_4" d="M105.663 410.599C105.978 395.321 106.136 380.061 106.259 364.784L106.434 325.101L106.259 279.286L106.049 256.37L105.663 239.586L105.295 256.37L105.085 279.286L104.91 325.101L105.085 364.784C105.155 380.061 105.295 395.321 105.663 410.599Z" fill="#E0E0E0"/>
<path id="Vector_5" d="M111.83 414.19C112.145 398.913 112.303 383.653 112.426 368.376L112.601 328.675L112.426 282.878L112.216 259.962L111.83 243.178L111.462 259.962L111.252 282.878L111.059 328.675L111.252 368.376C111.375 383.653 111.515 398.913 111.83 414.19Z" fill="#E0E0E0"/>
<path id="Vector_6" d="M0 28.6978C9.67104 34.6546 19.4296 40.4537 29.2058 46.2178L58.6394 63.4224L88.2307 80.3117L103.105 88.6512L118.05 96.833L103.473 88.073L88.8264 79.313L59.3928 62.1084L29.8015 45.2366C19.9027 39.6653 9.9864 34.1114 0 28.6978Z" fill="#E0E0E0"/>
<path id="Vector_7" d="M91.9975 228.11C88.0861 222.884 84.7607 217.244 82.0812 211.291L79.9438 206.894C79.243 205.422 78.6123 203.933 77.929 202.444L75.8791 197.941L73.9694 193.438C68.8886 181.42 64.2166 169.255 59.9534 156.944L56.7823 147.694L53.7864 138.39C52.7352 135.289 51.8767 132.153 50.9307 129.035L49.529 124.357L48.2501 119.627C46.4981 113.354 44.9388 107.012 43.4847 100.67L41.4698 91.0865C40.9676 87.8628 40.4245 84.6391 39.8405 81.4154C40.7062 94.5076 42.7467 107.495 45.9374 120.222C48.9868 133.008 52.6943 145.627 57.0451 158.03C61.4426 170.294 66.2782 182.558 71.832 194.472L73.9169 198.922L76.1244 203.32C76.8778 204.774 77.6136 206.245 78.3845 207.7L80.7672 212.01C84.1135 217.598 87.3547 223.38 91.9975 228.11Z" fill="#E0E0E0"/>
<path id="Vector_8" d="M105.663 232.07C103.257 227.234 101.038 222.323 99.0055 217.336C97.9894 214.848 96.9557 212.36 96.0096 209.837L94.5554 206.07L93.1889 202.286L91.8223 198.502L90.5258 194.665C89.6673 192.124 88.7738 189.584 88.038 187.008C87.3022 184.433 86.286 181.893 85.6553 179.3L83.4828 171.556C82.7469 168.963 82.1337 166.3 81.4505 163.759L80.4518 159.852L79.5583 155.91L77.8063 148.062L76.247 140.142C75.7039 137.497 75.1783 134.886 74.7578 132.206L73.3913 124.234C72.4277 118.978 71.867 113.582 70.9385 108.239C71.0436 110.937 71.1662 113.635 71.3414 116.333C71.5166 119.031 71.5867 121.746 71.9021 124.427C72.5153 129.806 72.9533 135.219 73.8993 140.545C75.519 151.269 77.7476 161.892 80.5745 172.362C83.4637 182.822 86.9739 193.102 91.0865 203.144C95.053 213.211 99.9322 222.893 105.663 232.07Z" fill="#E0E0E0"/>
<path id="Vector_9" d="M111.83 233.104C110.393 221.698 109.132 210.328 107.888 198.852C106.644 187.376 105.628 176.076 104.735 164.565L104.069 155.981L103.543 147.396C103.158 141.684 102.912 135.955 102.65 130.209C102.387 124.462 102.194 118.751 102.142 113.004C102.089 107.257 102.142 101.528 101.931 95.7643C100.743 107.225 100.158 118.739 100.179 130.261C100.179 141.789 100.658 153.306 101.616 164.811C102.562 176.286 103.788 187.744 105.47 199.15C107.152 210.555 109.167 221.891 111.83 233.104Z" fill="#E0E0E0"/>
<path id="Vector_10" d="M6.20209 3.5916C5.66573 8.33186 5.41412 13.1 5.44868 17.8704C5.41131 22.6642 5.66293 27.4558 6.20209 32.2193C6.75578 27.4569 7.01324 22.6647 6.97297 17.8704C7.00168 13.0997 6.74425 8.33151 6.20209 3.5916V3.5916Z" fill="#E0E0E0"/>
<path id="Vector_11" d="M12.4217 7.1832C11.8854 11.9471 11.628 16.7382 11.6508 21.5321C11.6105 26.3264 11.868 31.1186 12.4217 35.881C12.9609 31.1175 13.2124 26.3258 13.175 21.5321C13.2124 16.7383 12.9609 11.9467 12.4217 7.1832V7.1832Z" fill="#E0E0E0"/>
<path id="Vector_12" d="M18.6413 10.7573C18.0876 15.5197 17.8302 20.3119 17.8704 25.1062C17.8302 29.9005 18.0876 34.6926 18.6413 39.455C19.1804 34.6916 19.4321 29.8999 19.3947 25.1062C19.4321 20.3124 19.1804 15.5208 18.6413 10.7573V10.7573Z" fill="#E0E0E0"/>
<path id="Vector_13" d="M24.8433 14.3664C24.3042 19.1299 24.0526 23.9215 24.09 28.7153C24.0526 33.509 24.3042 38.3007 24.8433 43.0642C25.397 38.3018 25.6545 33.5096 25.6142 28.7153C25.6457 23.9212 25.3883 19.1295 24.8433 14.3664V14.3664Z" fill="#E0E0E0"/>
<path id="Vector_14" d="M31.063 17.8704C30.5267 22.6343 30.2693 27.4254 30.2921 32.2193C30.2518 37.0136 30.5093 41.8058 31.063 46.5682C31.6022 41.8047 31.8537 37.013 31.8163 32.2193C31.8537 27.4255 31.6022 22.6339 31.063 17.8704Z" fill="#E0E0E0"/>
<path id="Vector_15" d="M37.3351 21.5321C36.7814 26.2945 36.524 31.0867 36.5643 35.881C36.524 40.6753 36.7814 45.4674 37.3351 50.2298C37.8743 45.4664 38.1259 40.6747 38.0885 35.881C38.1259 31.0872 37.8743 26.2956 37.3351 21.5321V21.5321Z" fill="#E0E0E0"/>
<path id="Vector_16" d="M43.4846 25.1062C42.9455 29.8696 42.6939 34.6613 42.7312 39.455C42.6939 44.2488 42.9455 49.0404 43.4846 53.8039C44.0383 49.0415 44.2958 44.2493 44.2555 39.455C44.287 34.6609 44.0296 29.8693 43.4846 25.1062V25.1062Z" fill="#E0E0E0"/>
<path id="Vector_17" d="M49.7043 28.6978C49.168 33.4616 48.9106 38.2527 48.9334 43.0466C48.8931 47.8409 49.1506 52.6331 49.7043 57.3955C50.2405 52.6317 50.4979 47.8405 50.4751 43.0466C50.4979 38.2527 50.2405 33.4616 49.7043 28.6978V28.6978Z" fill="#E0E0E0"/>
<path id="Vector_18" d="M55.9238 32.2894C55.3701 37.0518 55.1127 41.8439 55.153 46.6382C55.1127 51.4325 55.3701 56.2247 55.9238 60.9871C56.463 56.2236 56.7146 51.432 56.6772 46.6382C56.7146 41.8445 56.463 37.0528 55.9238 32.2894V32.2894Z" fill="#E0E0E0"/>
<path id="Vector_19" d="M62.1259 35.881C61.5867 40.6444 61.3352 45.4361 61.3725 50.2298C61.3352 55.0236 61.5867 59.8152 62.1259 64.5787C62.6796 59.8163 62.937 55.0241 62.8968 50.2298C62.9283 45.4357 62.6709 40.6441 62.1259 35.881V35.881Z" fill="#E0E0E0"/>
<path id="Vector_20" d="M68.3456 39.455C67.8093 44.2189 67.5519 49.01 67.5747 53.8039C67.5344 58.5982 67.7919 63.3904 68.3456 68.1528C69.3734 58.6145 69.3734 48.9933 68.3456 39.455V39.455Z" fill="#E0E0E0"/>
<path id="Vector_21" d="M74.5651 43.0466C74.0114 47.809 73.754 52.6012 73.7943 57.3955C73.754 62.1898 74.0114 66.982 74.5651 71.7444C75.1043 66.9809 75.3559 62.1893 75.3185 57.3955C75.3559 52.6018 75.1043 47.8101 74.5651 43.0466V43.0466Z" fill="#E0E0E0"/>
<path id="Vector_22" d="M80.7672 46.6382C80.228 51.4017 79.9764 56.1934 80.0138 60.9871C79.9764 65.7809 80.228 70.5725 80.7672 75.336C81.3209 70.5736 81.5784 65.7814 81.5381 60.9871C81.5696 56.193 81.3122 51.4014 80.7672 46.6382V46.6382Z" fill="#E0E0E0"/>
<path id="Vector_23" d="M86.9868 50.2298C86.4505 54.9937 86.1931 59.7848 86.2159 64.5787C86.1757 69.373 86.4331 74.1652 86.9868 78.9276C88.0147 69.3893 88.0147 59.7682 86.9868 50.2298V50.2298Z" fill="#E0E0E0"/>
<path id="Vector_24" d="M93.2064 53.8214C92.6532 58.578 92.3957 63.3643 92.4355 68.1528C92.3948 72.9471 92.6522 77.7393 93.2064 82.5017C93.746 77.7382 93.9976 72.9466 93.9598 68.1528C93.9969 63.3649 93.7453 58.5791 93.2064 53.8214V53.8214Z" fill="#E0E0E0"/>
<path id="Vector_25" d="M99.4085 57.3955C98.8693 62.159 98.6177 66.9506 98.6551 71.7444C98.6177 76.5382 98.8693 81.3298 99.4085 86.0933C99.9621 81.3309 100.22 76.5387 100.179 71.7444C100.211 66.9503 99.9534 62.1586 99.4085 57.3955V57.3955Z" fill="#E0E0E0"/>
<path id="Vector_26" d="M105.663 60.9871C105.127 65.751 104.869 70.5421 104.892 75.336C104.86 80.136 105.117 84.9335 105.663 89.7024C106.691 80.1641 106.691 70.543 105.663 61.0046V60.9871Z" fill="#E0E0E0"/>
<path id="Vector_27" d="M111.848 64.5787C111.294 69.3411 111.037 74.1333 111.077 78.9276C111.037 83.7219 111.294 88.5141 111.848 93.2765C112.387 88.513 112.638 83.7214 112.601 78.9276C112.638 74.1338 112.387 69.3422 111.848 64.5787Z" fill="#E0E0E0"/>
</g>
</svg>
