<svg preserveAspectRatio="none" width="100%" height="100%" overflow="visible" style="display: block;" viewBox="0 0 190.832 259.535" fill="none" xmlns="http://www.w3.org/2000/svg">
<g id="freepik--Bottom--inject-22">
<path id="Vector" d="M85.4063 132.381C93.0099 131.54 99.4223 137.742 99.9128 139.687C100.701 142.333 100.281 147.624 97.0571 154.088C94.2001 160.529 92.892 167.549 93.2377 174.587C93.6407 180.579 96.146 195.611 89.9439 202.934C83.7419 210.258 70.1639 216.53 65.6437 206.14C64.172 202.741 67.5709 191.178 69.1477 182.716C72.3363 165.844 74.8767 149.078 74.8767 149.078L85.4063 132.381Z" fill="#263238"/>
<path id="Vector_2" d="M87.4736 145.942C86.0152 154.124 85.1777 162.406 84.9682 170.715C84.9682 179.79 82.8483 185.73 79.6246 189.707C76.1206 194.087 67.3606 196.399 68.587 187.061C69.463 180.561 74.8942 149.06 74.8942 149.06L87.4736 145.942Z" fill="#FFA8A7"/>
<path id="Vector_3" opacity="0.15" d="M97.4775 136.638C97.6877 142.245 94.3414 157.032 86.4749 169.296C78.6085 181.56 67.5709 195.401 65.2933 204.055C65.1882 200.061 67.0453 192.773 68.4294 186.29L68.5345 185.852C68.5345 185.484 68.6922 185.099 68.7623 184.731L68.8674 184.223C68.9725 183.75 69.0601 183.259 69.1477 182.804C70.1463 177.548 71.0749 172.292 71.8808 167.526C72.5291 163.724 73.1072 160.273 73.6328 157.4C73.8781 155.963 74.0708 154.684 74.2635 153.563C74.3511 153.02 74.4212 152.512 74.4913 152.056C74.7891 150.216 74.9468 149.165 74.9468 149.165L85.4588 132.469C85.9476 132.415 86.4388 132.386 86.9305 132.381C90.8354 132.525 94.5668 134.031 97.4775 136.638V136.638Z" fill="black"/>
<path id="Vector_4" d="M57.6896 36.8971C82.2176 19.5698 110.004 1.09863e-06 110.004 1.09863e-06L187.092 6.69265L109.531 61.6003L76.2433 82.9222C76.2433 82.9222 69.9887 82.2739 73.5627 92.1377C74.7015 95.2738 76.3834 101.528 78.1354 108.624L61.8243 150.129C61.8243 150.129 52.5738 135.885 42.7976 108.519C32.8988 80.8198 32.4608 71.7269 33.7047 66.3307C35.264 59.2351 37.6467 51.0358 57.6896 36.8971Z" fill="#455A64"/>
<path id="Vector_5" d="M71.8633 38.1235C65.5269 42.7021 59.4715 47.6575 53.73 52.963C50.8724 55.5526 48.2244 58.3646 45.811 61.3726C44.6584 62.748 43.7891 64.3378 43.2531 66.0504C42.8234 67.901 42.5306 69.7807 42.3771 71.6743C42.1272 75.4851 42.3153 79.3119 42.9377 83.0798C43.4984 86.8992 44.3218 90.701 45.2154 94.5029C47.09 102.107 48.807 109.745 50.4714 117.419C47.8083 110.026 45.4256 102.545 43.2531 95.011C42.0975 91.2232 41.1789 87.3672 40.5025 83.4653C39.7711 79.5095 39.5474 75.4765 39.8367 71.4641C40.0357 69.4584 40.3693 67.4682 40.8353 65.5073C41.4965 63.4707 42.57 61.592 43.9889 59.9885C46.5416 56.9332 49.3747 54.1236 52.4511 51.5964C58.4954 46.5201 64.9934 42.0102 71.8633 38.1235V38.1235Z" fill="#37474F"/>
<path id="Vector_6" d="M117.573 45.587C116.592 46.2178 112.317 49.0911 111.091 49.8619C95.673 60.1637 69.5506 80.2416 66.4496 89.2644C64.5224 94.8358 57.3567 111.042 53.0994 132.223C53.0994 132.223 53.9403 118.207 54.8514 104.349C56.0953 85.0771 59.7395 79.6985 66.1868 72.7255C72.4239 66.0329 105.151 47.2164 107.429 45.955C101.98 41.4173 99.4923 32.2718 99.615 27.6816C99.5974 27.6816 107.394 41.7677 117.573 45.587Z" fill="#37474F"/>
<path id="Vector_7" d="M68.6221 200.657C70.6018 200.657 70.6369 203.95 71.7231 208.243C73.1031 212.386 73.2069 216.847 72.0209 221.05C70.2689 226.411 61.7192 227.304 57.3392 234.365C52.9592 241.426 46.617 254.145 31.4096 258.052C16.2022 261.959 4.32369 257.404 1.25769 252.971C-1.80831 248.539 0.574373 244.089 10.1403 238.062C20.3019 231.667 23.1752 229.792 23.1752 229.792L68.6221 200.657Z" fill="#263238"/>
<path id="Vector_8" d="M48.8245 174.727C46.5765 183.697 43.7976 192.525 40.5025 201.165C36.4028 210.766 29.6751 219.981 22.124 228.636C20.4946 230.528 16.7629 234.015 15.4139 235.539C15.0936 235.836 14.8436 236.202 14.6821 236.608C14.5206 237.014 14.4516 237.451 14.4802 237.887C14.5087 238.323 14.634 238.748 14.847 239.13C15.06 239.511 15.3554 239.841 15.7117 240.094C19.0405 243.3 33.2317 244.106 41.1507 238.184C49.0698 232.263 56.3581 219.631 61.106 214.865C62.858 213.113 64.61 211.239 66.1693 209.294C67.6998 207.536 68.5675 205.299 68.6221 202.969C68.3422 199.912 68.5552 196.831 69.2528 193.841C70.275 189.852 71.5328 185.926 73.0196 182.085L48.8245 174.727Z" fill="#FFA8A7"/>
<path id="Vector_9" d="M185.743 6.58754C193.505 32.5872 191.297 46.393 186.356 57.3955C182.222 66.5059 174.671 75.8967 153.401 85.4275C133.253 94.5029 114.314 104.191 109.321 106.452C104.328 108.712 102.558 114.09 100 123.796C97.5826 133.029 94.4641 147.956 83.8294 167.404C72.5991 187.955 69.5506 194.016 69.5506 194.016C69.5506 194.016 54.9565 198.134 44.7774 188.13C44.7774 188.13 56.3756 108.677 59.0737 95.8169C60.8257 87.197 63.3135 82.4842 70.4091 76.4398C86.8779 62.4238 117.082 45.7622 117.082 45.7622C117.082 45.7622 115.558 19.4823 121.094 5.04577L185.743 6.58754Z" fill="#455A64"/>
<path id="Vector_10" d="M53.6425 172.011C54.9857 160.425 56.5742 148.885 58.4079 137.392C60.2651 125.881 62.2098 114.406 64.8203 103C65.1531 101.563 65.5385 100.144 65.924 98.7077L66.6073 96.5527L67.4657 94.4503C68.6797 91.6896 70.2654 89.1078 72.1786 86.7766C76.0086 82.2475 80.4554 78.2785 85.3887 74.9856C90.1717 71.6042 95.1999 68.6083 100.193 65.6299C105.186 62.6515 110.18 59.6556 115.243 56.7473C110.477 60.1111 105.642 63.3348 100.824 66.6286C96.0058 69.9223 91.1528 73.0759 86.5275 76.5449C81.8748 79.8824 77.6757 83.8106 74.0357 88.2307C72.2939 90.4378 70.8397 92.8575 69.7083 95.4314L68.9374 97.3937L68.3067 99.391C67.9563 100.775 67.5884 102.159 67.273 103.578C65.924 109.202 64.8027 114.896 63.6814 120.608L60.3526 137.725C58.1801 149.206 55.9435 160.635 53.6425 172.011Z" fill="#37474F"/>
</g>
</svg>
