<svg preserveAspectRatio="none" width="100%" height="100%" overflow="visible" style="display: block;" viewBox="0 0 220.774 277.236" fill="none" xmlns="http://www.w3.org/2000/svg">
<g id="freepik--Top--inject-22">
<g id="freepik--Arm--inject-22">
<path id="Vector" d="M37.2937 125.407C43.268 130.663 64.0117 145.573 64.0117 145.573C64.0117 145.573 81.3214 123.06 84.9306 118.207C95.2674 104.401 103.186 94.7298 115.748 95.0977L120.759 130.786C111.281 143.05 86.7001 165.055 76.4334 175.83C71.0547 181.471 64.5373 180.525 58.9134 177.039C47.21 169.733 24.907 142.524 24.907 142.524L37.2937 125.407Z" fill="#FFA8A7"/>
<path id="Vector_2" d="M112.892 93.9589C105.499 94.3093 101.172 98.3214 96.4587 103.192C91.7458 108.062 63.6788 145.065 63.6788 145.065L53.5698 137.706C53.0192 143.788 50.8937 149.621 47.4027 154.631C41.8138 162.112 37.4514 159.326 37.4514 159.326C37.4514 159.326 48.2437 171.362 53.2194 175.287C58.195 179.211 64.2219 182.295 69.2327 181.384C74.2434 180.473 75.8377 179.089 87.6637 167.122C99.4897 155.156 121.705 132.766 121.705 132.766L112.892 93.9589Z" fill="#F0F0F0"/>
<path id="Vector_3" d="M63.6788 145.065C68.3868 148.483 72.0704 153.124 74.331 158.485C73.2997 152.376 70.0876 146.848 65.2907 142.927L63.6788 145.065Z" fill="#E0E0E0"/>
<path id="Vector_4" d="M41.7263 128.999C34.5781 123.287 30.2682 118.977 30.2331 111.987C30.1981 104.996 31.1442 101.475 30.566 99.8456C29.9879 98.2162 24.6092 91.6112 23.085 88.3525C21.5608 85.0938 20.054 85.3916 17.2333 84.2353C13.8344 82.8337 0.221391 79.6801 0.133791 80.7313C-0.130855 81.9267 -0.000688957 83.1756 0.504744 84.2907C1.01018 85.4058 1.86363 86.3269 2.937 86.9158C6.10208 88.3601 9.38428 89.5323 12.7482 90.4198C12.7482 90.4198 10.4005 93.2756 9.24416 94.502C8.08784 95.7284 8.31561 96.692 9.96249 100.634C9.96249 100.634 8.12292 101.44 7.86012 102.877C7.74524 104.324 7.99834 105.776 8.59593 107.099C7.83425 107.473 7.21811 108.089 6.84393 108.851C6.30081 110.095 7.38704 113.406 8.7536 116.192C8.96302 119.759 9.59828 123.288 10.6458 126.704C11.8722 130.208 14.1498 131.609 16.7077 133.151C18.4597 134.202 22.3666 139.476 24.8545 142.419C24.9421 142.524 48.2437 134.22 41.7263 128.999Z" fill="#FFA8A7"/>
<path id="Vector_5" d="M26.659 101.23C24.2738 99.6012 22.5034 97.2201 21.6308 94.467C20.8599 91.7339 20.1766 88.6503 19.2656 88.6328C17.7413 88.6328 14.868 91.5586 15.7616 96.1138C16.6551 100.669 18.705 105.557 18.8626 106.819C18.6371 109.083 18.0454 111.296 17.1106 113.371C16.3539 115.709 16.3328 118.222 17.0503 120.572C17.7678 122.922 19.1893 124.995 21.1227 126.511C18.541 125.285 16.5281 123.115 15.4988 120.449C13.3613 115.631 16.2346 110.726 16.8128 108.395C17.3909 106.065 17.496 105.592 16.0419 101.615C14.5877 97.6381 12.9759 93.3457 16.0419 89.3511C19.1079 85.3566 20.5445 87.3013 21.0877 88.5978C21.6308 89.8943 22.6294 98.2863 26.659 101.23Z" fill="#F28F8F"/>
<path id="Vector_6" d="M12.7481 90.4374L15.5864 91.8214L14.6929 92.5573C14.0772 92.2242 13.3793 92.0736 12.681 92.1233C11.9828 92.1729 11.3132 92.4207 10.7509 92.8376L12.7481 90.4374Z" fill="#F28F8F"/>
<path id="Vector_7" d="M10.0851 100.652C10.5757 101.966 12.3627 105.908 12.7131 106.731C13.0635 107.554 14.6053 107.274 15.4988 105.732C16.3232 104.503 16.6432 103.004 16.3923 101.545C16.8743 103.017 16.7931 104.615 16.1646 106.03C15.0958 108.062 13.6417 108.343 12.7481 108.08C11.8546 107.817 11.0662 103.437 10.0851 100.652Z" fill="#F28F8F"/>
<path id="Vector_8" d="M8.63098 107.116C8.9989 108.115 9.71723 109.376 10.7684 112.092C11.3641 113.669 11.697 114.685 12.6781 114.562C13.4493 114.202 14.0923 113.614 14.5211 112.879C14.9499 112.143 15.1443 111.294 15.0783 110.445C14.9445 109.33 14.6738 108.236 14.2724 107.186L15.0433 106.836C15.7421 108.495 16.0305 110.298 15.8842 112.092C15.4988 114.405 13.2738 116.227 12.2751 115.596C11.2765 114.965 10.9436 114.107 10.1727 111.829C9.40182 109.552 8.63098 107.116 8.63098 107.116Z" fill="#F28F8F"/>
<path id="Vector_9" d="M11.9422 114.79C12.0999 115.456 11.7495 116.963 10.6458 117.015C10.3179 117.015 9.99354 116.948 9.69235 116.819C9.39117 116.689 9.11947 116.5 8.89377 116.262C9.03415 116.663 9.29787 117.01 9.64717 117.252C9.99648 117.494 10.4134 117.62 10.8385 117.611C12.17 117.611 12.8007 116.157 13.011 115L11.9422 114.79Z" fill="#F28F8F"/>
</g>
<path id="Vector_10" d="M83.3713 155.016C83.3713 166.019 86.0869 178.475 73.9806 188.917C61.8742 199.359 39.3786 219.735 39.3786 219.735L81.4266 189.951C81.4266 189.951 95.7579 175.935 96.8267 161.779C97.8954 147.623 96.8267 115.701 96.8267 115.701C92.9017 118.046 89.7895 121.538 87.909 125.705C84.8079 132.678 83.3713 138.074 83.3713 155.016Z" fill="#E0E0E0"/>
<path id="Vector_11" opacity="0.1" d="M83.3713 155.016C83.3713 166.019 86.0869 178.475 73.9806 188.917C61.8742 199.359 39.3786 219.735 39.3786 219.735L81.4266 189.951C81.4266 189.951 95.7579 175.935 96.8267 161.779C97.8954 147.623 96.8267 115.701 96.8267 115.701C92.9017 118.046 89.7895 121.538 87.909 125.705C84.8079 132.678 83.3713 138.074 83.3713 155.016Z" fill="black"/>
<path id="Vector_12" d="M91.5881 152.686C82.5128 138.425 86.3321 128.158 89.4507 122.166C95.6878 110.182 113.488 94.8699 113.488 94.8699C122.034 92.8185 130.805 91.8531 139.593 91.9967C147.72 92.094 155.797 93.2724 163.613 95.5007L174.966 100.266C169.71 106.871 167.204 118.837 167.59 126.546C168.536 144.697 174.318 149.322 174.318 149.322C174.318 149.322 171.935 168.349 170.814 172.887C170.025 175.953 171.146 180.368 172.776 186.149C175.118 194.746 176.643 203.545 177.331 212.429C177.489 215.618 177.716 218.351 176.105 218.894C143.377 230.054 95.1097 210.134 80.8659 188.97C81.8295 183.469 88.7849 174.393 89.9938 168.524C91.3954 161.551 92.324 163.198 91.5881 152.686Z" fill="#37474F"/>
<path id="Vector_13" d="M118.411 157.679C118.411 157.679 125.419 166.439 140.451 163.881C155.484 161.323 158.444 150.023 158.444 150.023C158.444 150.023 159.338 164.617 141.362 167.543C123.667 170.451 118.411 157.679 118.411 157.679Z" fill="#263238"/>
<path id="Vector_14" d="M156.044 79.4348C154.107 79.6209 152.161 79.1654 150.508 78.1383L136.615 70.8675L117.202 60.6359L109.511 56.5537C108.62 55.9452 107.669 55.4287 106.673 55.0119C103.502 54.0834 100.541 54.3987 98.2282 51.5079C97.433 50.4701 96.8803 49.2673 96.6104 47.988C96.3406 46.7086 96.3607 45.3851 96.669 44.1145C95.3369 44.2339 94.0492 44.6532 92.9021 45.3409C92.3286 45.705 91.8802 46.2359 91.6171 46.8622C91.354 47.4886 91.2889 48.1804 91.4305 48.8449C90.7508 47.9232 90.2877 46.8602 90.0753 45.7349C89.863 44.6096 89.907 43.4509 90.2041 42.345C90.5097 41.2583 91.0671 40.2589 91.8311 39.4279C92.5952 38.5969 93.5443 37.9576 94.6016 37.562C93.2603 37.8041 91.8905 37.8454 90.537 37.6847C89.8423 37.5787 89.18 37.3193 88.5981 36.9253C88.0162 36.5314 87.5294 36.0127 87.1731 35.4071C87.7078 35.7794 88.3437 35.9789 88.9952 35.9789C89.6467 35.9789 90.2826 35.7794 90.8173 35.4071C91.3426 35.007 91.7399 34.4625 91.9609 33.8402C92.1818 33.218 92.2167 32.5448 92.0612 31.9031C91.5882 30.1511 89.8537 29.1174 88.9427 27.5581C88.4653 26.6317 88.2235 25.602 88.2388 24.56C88.2541 23.518 88.5259 22.4958 89.0302 21.5838C90.0458 19.7979 91.5143 18.3113 93.2876 17.2739C95.5492 15.7955 98.0511 14.7224 100.681 14.1027C103.151 13.5246 106.06 13.1391 107.409 10.9316C107.993 9.49078 108.45 8.00178 108.775 6.48153C109.225 5.41218 109.914 4.45995 110.788 3.69773C111.663 2.93551 112.7 2.38352 113.821 2.08402C116.057 1.51448 118.4 1.51448 120.636 2.08402C122.77 2.77019 125.001 3.10163 127.241 3.06514C130.29 2.6797 132.865 0.367054 135.914 0.0516939C141.678 -0.579026 145.935 4.67698 147.53 9.53002C150.532 8.64567 153.725 8.64567 156.728 9.53002C158.218 9.99059 159.598 10.7501 160.785 11.7623C161.972 12.7744 162.94 14.0179 163.63 15.4167C164.144 17.1348 164.88 18.7782 165.82 20.3048C167.713 22.6174 171.182 22.8102 173.617 24.5447C174.553 25.2474 175.305 26.1651 175.812 27.2202C176.318 28.2754 176.563 29.4369 176.525 30.6066C176.525 32.8842 173.932 34.2507 173.021 36.2305C172.661 36.9638 172.511 37.7829 172.588 38.5964C172.665 39.4099 172.967 40.186 173.459 40.8382C173.957 41.4638 174.667 41.8857 175.454 42.0245C176.241 42.1632 177.052 42.0093 177.734 41.5916C177.54 42.1707 177.223 42.7006 176.804 43.1447C176.385 43.5888 175.874 43.9362 175.308 44.163C174.741 44.3897 174.131 44.4903 173.522 44.4577C172.912 44.4252 172.317 44.2602 171.777 43.9743C173.818 45.1513 175.316 47.0828 175.947 49.353C176.222 50.4493 176.259 51.5916 176.057 52.7035C175.854 53.8154 175.417 54.8712 174.773 55.8003C173.845 56.9917 172.39 57.9203 172.058 59.3043C171.959 60.2158 172.036 61.1377 172.285 62.0199C172.584 63.1352 172.619 64.3045 172.388 65.4356C172.157 66.5667 171.666 67.6286 170.954 68.5374C169.643 69.6837 168.093 70.5219 166.416 70.9902C164.664 71.726 162.229 72.9875 162.299 75.2475C162.313 76.2573 162.666 77.233 163.302 78.0178C163.937 78.8027 164.818 79.3511 165.803 79.575C165.189 79.9494 164.493 80.1675 163.775 80.2102C163.057 80.253 162.34 80.1191 161.686 79.8203C160.456 79.2296 159.448 78.2591 158.812 77.0521C158.827 77.3964 158.753 77.7387 158.596 78.0457C158.44 78.3527 158.206 78.614 157.919 78.8041C157.352 79.158 156.71 79.374 156.044 79.4348Z" fill="#37474F"/>
<path id="Vector_15" d="M107.899 28.0837C104.693 29.8357 98.7013 42.8355 101.978 64.8757C104.553 82.1154 111.316 85.3741 114.75 86.18C118.982 86.8888 123.31 86.7877 127.504 85.8822V92.6098C132.848 99.3901 142.168 98.9696 155.063 93.5209C155.804 85.2546 155.592 76.9305 154.432 68.7126C154.432 68.7126 160.705 71.5683 165.12 66.5927C167.126 64.3205 168.354 61.4668 168.625 58.4477C168.897 55.4285 168.196 52.4017 166.626 49.8085C165.683 48.4929 164.402 47.4555 162.919 46.805C161.437 46.1546 159.806 45.9152 158.199 46.1118C156.465 46.1798 154.808 46.8474 153.51 48.0008C152.213 49.1542 151.356 50.7219 151.086 52.4365C150.683 56.2208 147.127 57.3246 145.042 54.5739C142.725 51.1192 141.588 47.0074 141.8 42.853C129.116 44.3598 111.999 39.2439 107.899 28.0837Z" fill="#FFA8A7"/>
<path id="Vector_16" d="M122.564 72.4093C122.719 73.0366 123.118 73.5763 123.671 73.9098C124.225 74.2433 124.888 74.3432 125.516 74.1876C126.143 74.0319 126.683 73.6334 127.016 73.0798C127.35 72.5262 127.45 71.8627 127.294 71.2354C126.961 69.9214 125.98 70.4996 124.683 70.8325C123.387 71.1654 122.213 71.0953 122.564 72.4093Z" fill="#B16668"/>
<path id="Vector_17" d="M127.469 85.9522C139.733 82.8337 148.984 75.8783 150.07 70.3945C150.429 73.6814 149.569 76.9858 147.652 79.6801C143.202 85.4442 127.469 91.0681 127.469 91.0681V85.9522Z" fill="#F28F8F"/>
<path id="Vector_18" d="M125.454 53.1373C125.234 53.8622 125.31 54.645 125.666 55.3136C126.023 55.9823 126.63 56.4819 127.355 56.7026C128.08 56.9233 128.863 56.847 129.532 56.4906C130.2 56.1341 130.7 55.5265 130.921 54.8017C131.045 54.4783 131.097 54.1318 131.073 53.7863C131.05 53.4408 130.951 53.1045 130.784 52.801C130.617 52.4975 130.386 52.234 130.107 52.0288C129.828 51.8236 129.508 51.6817 129.169 51.613C128.826 51.4566 128.456 51.3721 128.079 51.3648C127.703 51.3574 127.329 51.4273 126.981 51.5702C126.633 51.713 126.318 51.9259 126.055 52.1954C125.793 52.465 125.588 52.7855 125.454 53.1373V53.1373Z" fill="#263238"/>
<path id="Vector_19" d="M105.727 54.679C105.772 55.0605 105.893 55.4292 106.082 55.7638C106.27 56.0985 106.524 56.3924 106.827 56.6286C107.13 56.8648 107.476 57.0386 107.847 57.14C108.217 57.2414 108.605 57.2684 108.986 57.2194C109.751 57.0905 110.434 56.6648 110.886 56.0349C111.339 55.405 111.525 54.6218 111.403 53.8556C111.176 52.2438 109.756 51.6831 108.197 51.8934C106.638 52.1036 105.499 53.1022 105.727 54.679Z" fill="#263238"/>
<path id="Vector_20" d="M104.01 44.6751L110.229 42.5027C110.108 42.0907 109.905 41.7076 109.632 41.3766C109.358 41.0456 109.02 40.7735 108.639 40.577C108.257 40.3804 107.839 40.2634 107.411 40.233C106.983 40.2026 106.553 40.2595 106.147 40.4003C105.316 40.7099 104.633 41.3233 104.237 42.1167C103.84 42.9101 103.759 43.8244 104.01 44.6751Z" fill="#263238"/>
<path id="Vector_21" d="M134.004 44.9204L127.749 42.8355C127.861 42.4179 128.057 42.0277 128.325 41.689C128.594 41.3503 128.929 41.0704 129.31 40.8667C129.691 40.663 130.11 40.5398 130.541 40.5048C130.972 40.4697 131.405 40.5236 131.814 40.663C132.651 40.9625 133.343 41.5689 133.75 42.3594C134.156 43.1499 134.247 44.0654 134.004 44.9204V44.9204Z" fill="#263238"/>
<path id="Vector_22" d="M95.4426 48.4419C95.5821 49.4252 96.0087 50.3455 96.669 51.0874C96.8976 51.3646 97.0648 51.687 97.1596 52.0335C97.557 54.4581 98.1428 56.8481 98.9116 59.1817C99.5309 60.7324 100.614 62.0542 102.012 62.9667C103.411 63.8791 105.057 64.3378 106.725 64.28C107.607 64.3147 108.489 64.2441 109.353 64.0698H109.546C110.298 63.9031 111.02 63.6193 111.684 63.2288H111.806L111.981 63.1062L112.209 62.9485L112.419 62.7908C112.503 62.7362 112.58 62.6715 112.647 62.5981C112.731 62.5435 112.807 62.4788 112.875 62.4054C113.022 62.2783 113.157 62.1375 113.278 61.9849C114.005 61.1869 114.597 60.2755 115.03 59.2868C116.099 56.7814 115.748 53.295 117.588 52.892H117.798H118.043C120.531 52.892 120.321 56.7289 121.758 59.462C122.57 61.1875 123.88 62.6303 125.519 63.6045C127.158 64.5787 129.052 65.0398 130.956 64.9282H131.656H132.217C132.673 64.9282 133.111 64.8231 133.514 64.753L133.916 64.6479L134.319 64.5428H134.565C135.071 64.3646 135.558 64.1357 136.019 63.8595L136.492 63.5266C136.792 63.3047 137.073 63.0586 137.333 62.7908C138.015 62.0516 138.561 61.1975 138.945 60.2679C139.58 57.9707 140.037 55.6277 140.311 53.2599C140.374 52.8944 140.505 52.5438 140.697 52.2262C141.346 51.5243 141.757 50.6352 141.871 49.6858C141.896 49.1924 141.759 48.7042 141.481 48.296C141.202 47.8878 140.798 47.5822 140.329 47.4258L139.015 47.2506C134.646 46.575 130.196 46.6164 125.84 47.3732C121.67 48.4945 120.251 49.826 117.921 49.791C115.591 49.7559 114.312 48.3543 110.335 47.0578C106.287 46.1247 102.108 45.8994 97.983 46.3921L96.7566 46.5147C96.3662 46.6622 96.0306 46.9262 95.7956 47.271C95.5605 47.6158 95.4372 48.0246 95.4426 48.4419ZM122.949 51.1225C123.262 50.7164 123.664 50.3869 124.123 50.1589L124.333 50.0362H124.456L125.034 49.7734L125.577 49.5457C126.147 49.3222 126.733 49.1407 127.329 49.0026L128.03 48.8274C128.625 48.7047 129.239 48.6171 129.782 48.547H130.22C134.232 48.2317 136.755 49.1778 137.683 50.0012C138.612 50.8246 138.279 54.5564 137.911 56.431C137.911 56.431 137.911 56.431 137.911 56.5712C137.911 56.7114 137.911 56.5712 137.911 56.7114C137.872 56.9651 137.819 57.2166 137.753 57.4647C137.721 57.6244 137.68 57.7823 137.631 57.9378V57.9378C137.559 58.2055 137.471 58.4688 137.368 58.7262V58.7262L137.263 59.0065C137.267 59.059 137.267 59.1117 137.263 59.1642C137.26 59.2225 137.26 59.281 137.263 59.3394L137.14 59.5671C137.14 59.5671 137.14 59.7248 137.018 59.8124L136.86 60.0752C136.808 60.1668 136.749 60.2546 136.685 60.338C136.067 61.2247 135.227 61.9339 134.249 62.395C133.272 62.8561 132.191 63.053 131.113 62.966C130.014 63.0225 128.915 62.8491 127.886 62.4569C126.857 62.0648 125.922 61.4625 125.139 60.6884V60.6884C124.156 59.619 123.463 58.3164 123.124 56.9041C122.511 54.679 122.213 52.2613 122.949 51.175V51.1225ZM99.2619 49.0902C99.5527 48.8328 99.8843 48.6256 100.243 48.477L100.681 48.3193H100.944H101.172H101.312H101.54C101.839 48.2453 102.144 48.1926 102.451 48.1616H102.959H104.693C105.271 48.1616 105.884 48.1616 106.55 48.3368C109.424 48.7573 112.437 50.0888 113.243 51.2626C114.049 52.4365 113.909 54.8718 113.558 56.9566C113.479 57.4308 113.368 57.8991 113.225 58.3582C113.218 58.3929 113.218 58.4287 113.225 58.4634V58.6035C113.225 58.6035 113.225 58.6035 113.225 58.7086C113.232 58.761 113.232 58.814 113.225 58.8663L113.085 59.2167L112.928 59.5146V59.6197L112.822 59.8124L112.717 59.9876C112.076 60.9446 111.18 61.704 110.131 62.1806C109.082 62.6571 107.921 62.832 106.778 62.6857C105.734 62.6655 104.706 62.4205 103.765 61.9674C102.69 61.3028 101.774 60.411 101.081 59.3547C100.388 58.2984 99.9344 57.1031 99.7525 55.8529C99.0517 53.6278 98.4385 49.9136 99.2619 49.0902V49.0902Z" fill="#263238"/>
<path id="Vector_23" d="M120.917 57.237L120.706 67.1007L111.053 65.1911C111.333 64.4377 111.631 63.7194 111.911 63.0186C112.973 60.0689 114.385 57.2572 116.116 54.644C116.615 53.9238 117.204 53.2703 117.868 52.6993H118.096C119.918 52.7694 120.233 54.9944 120.917 57.237Z" fill="#F28F8F"/>
<path id="Vector_24" d="M140.522 47.4433L152.645 48.915C151.943 49.7033 151.449 50.655 151.209 51.6831L140.451 50.5268L140.522 47.4433Z" fill="#263238"/>
<path id="Vector_25" d="M155.501 81.8701C155.501 82.9914 155.501 84.1827 155.501 84.1827C155.501 84.1827 153.416 87.5641 146.741 90.0344C136.632 93.7311 129.011 91.9791 127.574 89.4563V87.8444C127.063 87.8866 126.571 88.0562 126.142 88.3378C125.714 88.6194 125.363 89.0039 125.121 89.4563C124.284 91.5515 123.151 93.5161 121.758 95.2904C120.181 97.0424 125.647 105.61 137.438 105.61C149.702 105.61 160.81 96.4818 165.12 96.1839L166.241 96.657C166.241 96.657 166.241 95.1678 163.806 92.715C160.617 89.6139 160.267 81.5372 155.501 81.8701Z" fill="#455A64"/>
<path id="Vector_26" d="M158.76 90.6476C159.102 91.9215 159.698 93.1133 160.512 94.1516C161.316 94.9381 161.98 95.8566 162.474 96.8672L162.895 96.692C162.686 95.9113 162.296 95.191 161.756 94.5896C161.115 93.9442 160.529 93.2469 160.004 92.5047C159.566 91.7151 159.231 90.8733 159.005 89.9994C158.664 88.3703 158.01 86.8231 157.078 85.4442C156.606 84.8905 156.004 84.463 155.326 84.2002L155.011 84.6207C155.881 84.9714 156.622 85.5835 157.13 86.3727C157.873 87.7136 158.421 89.1528 158.76 90.6476ZM151.051 91.6112C151.22 92.8632 151.669 94.061 152.365 95.1152C153.279 96.047 154.031 97.1247 154.59 98.3038C154.875 99.0704 155 99.8873 154.958 100.704L155.449 100.476C155.49 99.8277 155.424 99.1768 155.256 98.5491C154.784 97.1627 153.998 95.9037 152.961 94.8699C152.355 94.1579 151.944 93.3006 151.769 92.3821C151.66 91.572 151.454 90.778 151.156 90.0169C150.888 89.4582 150.469 88.9851 149.947 88.6503C149.632 88.808 149.352 88.9832 149.019 89.1409C149.547 89.334 150.014 89.6649 150.371 90.0992C150.729 90.5336 150.963 91.0556 151.051 91.6112V91.6112ZM147.372 92.6799C147.61 93.9398 147.938 95.181 148.353 96.3942C149.099 97.4415 149.766 98.5424 150.35 99.6879C150.56 100.362 150.631 101.071 150.56 101.773C150.521 102.086 150.462 102.396 150.385 102.701L150.946 102.474C151.123 101.601 151.123 100.701 150.946 99.8281C150.78 99.2137 150.533 98.6245 150.21 98.0761C149.825 97.4629 149.299 96.9198 148.949 96.3241C148.143 94.905 148.3 93.1705 147.635 91.6988C147.379 91.1188 146.981 90.6126 146.478 90.2271L145.55 90.5425C145.98 90.7605 146.362 91.0617 146.675 91.4286C146.988 91.7955 147.225 92.2208 147.372 92.6799V92.6799ZM155.501 93.2231C156.325 94.467 157.656 95.2729 158.392 96.5869C158.743 97.2009 158.964 97.8809 159.04 98.5842L159.513 98.3389C159.413 97.7823 159.242 97.2407 159.005 96.7271C158.287 95.1327 156.833 94.2567 155.869 92.8551C154.905 91.4535 154.38 88.2123 152.821 86.7932L152.33 87.1611C154.064 88.4751 154.345 91.4711 155.501 93.2231ZM131.604 100.722C131.481 101.474 131.445 102.239 131.499 102.999C131.555 103.637 131.661 104.27 131.814 104.891L132.392 105.014C132.305 104.786 132.2 104.541 132.129 104.296C131.955 103.65 131.867 102.985 131.867 102.316C131.861 101.503 131.98 100.693 132.217 99.9157C132.421 99.4017 132.59 98.875 132.725 98.3389C132.953 97.0249 132.567 95.6583 132.725 94.3443C132.803 93.5113 133.099 92.7135 133.584 92.0317H133.128C132.87 92.4528 132.67 92.9065 132.532 93.3807C132.351 94.1197 132.274 94.8805 132.305 95.6408C132.436 96.5941 132.436 97.5609 132.305 98.5141C132.059 99.2499 131.726 99.9507 131.586 100.739L131.604 100.722ZM122.213 98.2688C122.323 98.4635 122.446 98.6508 122.581 98.8294C122.63 97.9335 122.907 97.0649 123.387 96.3066C124.12 95.4801 124.916 94.7127 125.77 94.0114C126.419 93.1259 126.829 92.0881 126.961 90.998C127.114 90.5099 127.399 90.0735 127.784 89.7366L127.574 89.4562V89.0883C127.405 89.2222 127.253 89.375 127.119 89.5439C126.208 90.7177 126.558 92.3471 125.542 93.4683C124.552 94.2683 123.664 95.1861 122.896 96.2014C122.55 96.8453 122.318 97.5451 122.213 98.2688V98.2688ZM125.997 100.301C125.893 100.951 125.893 101.613 125.997 102.263C126.189 102.408 126.388 102.542 126.593 102.666C126.286 101.608 126.286 100.484 126.593 99.4251C127.108 98.3472 127.743 97.3305 128.485 96.3942C128.9 95.2655 129.165 94.0875 129.274 92.8902C129.435 92.2853 129.756 91.7348 130.202 91.2959L129.799 91.1557C129.453 91.4668 129.189 91.8578 129.028 92.2945C128.813 92.9705 128.683 93.671 128.643 94.3794C128.529 95.2635 128.165 96.0965 127.592 96.7796C126.72 97.7483 126.143 98.9457 125.927 100.231L125.997 100.301ZM137.929 92.0667H137.385C137.924 93.1019 138.325 94.2034 138.577 95.343C138.77 96.5519 138.577 97.7958 138.875 99.0047C139.172 100.214 139.926 101.265 140.206 102.509C140.394 103.491 140.322 104.506 139.996 105.452H140.504C140.676 104.747 140.747 104.022 140.714 103.297C140.557 102.006 140.183 100.75 139.61 99.5828C139.285 98.0309 139.092 96.4544 139.032 94.8699C138.858 93.8588 138.457 92.9003 137.858 92.0667H137.929ZM142.536 91.2959L141.8 91.4711C142.255 91.7479 142.635 92.1331 142.904 92.5923C143.226 93.2051 143.44 93.869 143.535 94.5546C143.637 95.8266 143.976 97.0684 144.534 98.2163C145.427 99.3247 146.164 100.551 146.724 101.86C146.892 102.572 146.921 103.31 146.811 104.033L147.302 103.858C147.337 103.212 147.29 102.564 147.162 101.93C146.729 100.543 146.013 99.2605 145.059 98.1637C144.043 96.6395 144.201 94.8875 143.675 93.2231C143.428 92.4954 143.014 91.8355 142.466 91.2959H142.536Z" fill="#37474F"/>
<path id="Vector_27" d="M123.282 93.0128C123.282 93.0128 97.9479 112.863 90.6771 126.056C86.104 135.044 83.5847 144.935 83.3012 155.016C83.3012 155.016 80.6557 132.573 87.8915 121.15C95.1272 109.727 112.822 93.9589 112.822 93.9589L123.282 93.0128Z" fill="#E0E0E0"/>
<path id="Vector_28" d="M162.036 90.122C161.826 94.6422 153.767 105.137 149.019 116.875C144.23 129.216 141.341 142.212 140.451 155.419C139.282 172.155 139.141 188.948 140.031 205.701C140.889 226.463 116.081 263.395 113.839 277.236C113.839 277.236 135.914 267.775 150.298 260.469C164.682 253.163 173.424 242.02 176.332 227.286C179.241 212.552 178.365 207.383 176.332 196.503C174.3 185.624 171.181 176.828 171.847 172.361C172.513 167.893 177.909 152.265 177.909 152.265L175.894 99.1623L162.036 90.122Z" fill="#E0E0E0"/>
<path id="Vector_29" opacity="0.1" d="M167.187 99.1623C165.102 110.638 163.298 122.131 161.651 133.659C157.656 134.658 153.644 135.586 149.667 136.638L148.914 136.83L149.019 137.601L151.594 154.578L146.829 166.281C145.462 169.785 143.447 174.796 142.168 178.248C143.815 174.936 146.093 170.013 147.687 166.649L152.943 154.964L153.031 154.788V154.578L150.788 138.109C154.888 137.111 158.97 136.007 163.052 134.956C164.682 123.007 166.013 111.128 167.187 99.1623Z" fill="black"/>
<g id="freepik--arm--inject-22">
<path id="Vector_30" d="M93.3226 211.641C94.3287 211.585 95.3378 211.626 96.3361 211.763C97.4223 211.904 98.4559 212.096 99.5772 212.149C100.699 212.201 101.907 212.149 103.081 212.149C104.728 212.149 106.375 212.149 108.022 212.149C111.132 211.953 114.205 211.364 117.167 210.397C118.113 210.081 119.042 209.731 119.953 209.328C120.391 209.153 120.882 208.785 120.759 208.347C120.697 208.23 120.613 208.126 120.51 208.042C120.408 207.958 120.29 207.895 120.163 207.856C118.832 207.261 117.395 206.928 116.011 206.437C114.6 206.014 113.321 205.236 112.297 204.177C111.613 203.389 110.545 201.076 111.438 200.113C112.332 199.149 114.031 200.113 114.942 200.235C116.712 200.679 118.518 200.966 120.338 201.094C122.283 201.181 124.245 200.954 126.208 201.094C128.755 201.205 131.258 201.8 133.584 202.846C135.774 203.809 137.823 205.123 140.101 205.894C144.428 207.366 150.613 205.719 156.184 203.862C167.502 200.025 187.002 190.196 187.002 190.196L175.141 147.167C170.288 135.744 171.111 106.17 176.893 101.107C179.906 101.492 189.157 104.769 197.234 113.546C201.666 118.329 205.135 130.383 208.622 148.253C211.688 164.021 216.401 178.318 218.976 192.579C221.814 208.452 216.068 213.866 201.842 217.107C178.049 222.451 159.391 227.374 149.825 228.039H149.334C144.656 228.407 139.996 229.073 135.318 229.529C132.918 229.756 130.465 229.721 128.1 230.072C125.067 230.665 121.926 230.342 119.077 229.143C115.573 227.391 112.98 223.782 109.126 223.221C107.95 223.175 106.779 223.046 105.622 222.836C103.677 222.223 102.451 220.418 100.821 219.332C99.7529 218.731 98.633 218.227 97.4749 217.825L93.7256 216.266C92.8163 215.905 91.9375 215.471 91.0976 214.97C90.8225 214.826 90.5831 214.622 90.3968 214.374C89.2404 212.587 92.3065 211.728 93.3226 211.641Z" fill="#FFA8A7"/>
<path id="Vector_31" d="M175.894 99.1623C191.662 105.908 195.166 108.063 200.002 115.684C205.836 124.864 207.588 140.755 214.228 165.966C217.283 177.079 219.462 188.414 220.746 199.867C221.026 204.037 219.344 213.358 209.288 215.881C199.231 218.403 185.793 221.242 185.793 221.242C185.793 221.242 188.666 201.865 179.504 193.21L186.301 189.706L171.777 145.783C171.777 145.783 165.803 111.724 175.894 99.1623Z" fill="#F0F0F0"/>
<path id="Vector_32" d="M186.301 189.776C192.154 188.361 198.28 188.554 204.032 190.336C204.032 190.336 199.389 184.993 185.285 186.079L186.301 189.776Z" fill="#E0E0E0"/>
</g>
<path id="Vector_33" d="M142.484 104.506L141.45 103.332C151.962 94.1516 159.741 79.7677 160.547 77.9106C161.809 73.1041 161.917 68.0675 160.862 63.2113L162.404 62.931C164.156 72.5319 162.089 78.2434 162.001 78.4887C161.002 80.7838 153.241 95.1152 142.484 104.506Z" fill="#455A64"/>
<path id="Vector_34" d="M121.425 86.6881L120.146 89.1234C119.735 88.7774 119.239 88.5475 118.709 88.4576C119.165 87.5641 119.217 87.4239 119.603 86.7056L121.425 86.6881Z" fill="#455A64"/>
<path id="Vector_35" d="M162.509 58.3232C162.231 57.723 161.79 57.2137 161.235 56.8541C160.68 56.4944 160.034 56.2992 159.373 56.2909C158.427 56.2003 157.485 56.489 156.752 57.0936C156.019 57.6981 155.557 58.569 155.466 59.5146C155.375 60.4602 155.664 61.403 156.269 62.1357C156.873 62.8684 157.744 63.3309 158.69 63.4215V63.4215C158.69 63.4215 160.091 63.4215 160.547 65.5064C160.862 66.8015 160.998 68.1339 160.95 69.4659C161.371 69.6687 161.847 69.7254 162.304 69.627C162.761 69.5286 163.172 69.2809 163.473 68.9228C163.998 66.1371 163.543 60.1278 162.509 58.3232Z" fill="#37474F"/>
<path id="Vector_36" d="M65.2731 176.04C58.2987 176.065 51.3936 174.657 44.985 171.905C32.5808 166.492 11.697 150.689 11.697 105.487H14.833C14.833 137.654 25.9757 160.22 46.1938 169.015C64.9577 177.196 85.9643 171.467 96.1784 162.007C105.779 153.071 108.074 142.822 110.089 133.782C110.863 129.184 112.284 124.718 114.312 120.519L117.045 122.043C115.181 125.984 113.872 130.165 113.155 134.465C111.123 143.488 108.618 154.701 98.3158 164.249C91.0625 171.047 78.6584 176.04 65.2731 176.04Z" fill="#8389BE"/>
<path id="Vector_37" opacity="0.3" d="M65.2731 176.04C58.2987 176.065 51.3936 174.657 44.985 171.905C32.5808 166.492 11.697 150.689 11.697 105.487H14.833C14.833 137.654 25.9757 160.22 46.1938 169.015C64.9577 177.196 85.9643 171.467 96.1784 162.007C105.779 153.071 108.074 142.822 110.089 133.782C110.863 129.184 112.284 124.718 114.312 120.519L117.045 122.043C115.181 125.984 113.872 130.165 113.155 134.465C111.123 143.488 108.618 154.701 98.3158 164.249C91.0625 171.047 78.6584 176.04 65.2731 176.04Z" fill="white"/>
<path id="Vector_38" d="M151.629 95.9562C147.546 100.865 143.151 105.506 138.472 109.85C135.248 112.478 126.435 119.363 120.268 121.886C119.059 122.437 117.758 122.764 116.432 122.849C116.076 122.849 115.723 122.802 115.38 122.709C114.312 122.341 111.035 121.29 112.016 102.894C112.192 99.6704 116.852 90.5425 117.798 88.7554C117.906 88.6244 118.049 88.5268 118.21 88.474C118.372 88.4213 118.545 88.4156 118.709 88.4576C119.239 88.5475 119.735 88.7774 120.146 89.1234C120.549 89.4563 120.759 89.8592 120.584 90.1921C118.534 94.1166 115.328 101.072 115.153 103.069C114.644 112.46 115.415 118.837 116.449 119.766C117.951 119.715 119.406 119.228 120.636 118.364C126.2 115.205 131.476 111.564 136.404 107.484C140.923 103.26 145.177 98.7601 149.141 94.0114C150.035 93.223 152.225 95.1678 151.629 95.9562Z" fill="#8389BE"/>
<path id="Vector_39" opacity="0.3" d="M151.629 95.9562C147.546 100.865 143.151 105.506 138.472 109.85C135.248 112.478 126.435 119.363 120.268 121.886C119.059 122.437 117.758 122.764 116.432 122.849C116.076 122.849 115.723 122.802 115.38 122.709C114.312 122.341 111.035 121.29 112.016 102.894C112.192 99.6704 116.852 90.5425 117.798 88.7554C117.906 88.6244 118.049 88.5268 118.21 88.474C118.372 88.4213 118.545 88.4156 118.709 88.4576C119.239 88.5475 119.735 88.7774 120.146 89.1234C120.549 89.4563 120.759 89.8592 120.584 90.1921C118.534 94.1166 115.328 101.072 115.153 103.069C114.644 112.46 115.415 118.837 116.449 119.766C117.951 119.715 119.406 119.228 120.636 118.364C126.2 115.205 131.476 111.564 136.404 107.484C140.923 103.26 145.177 98.7601 149.141 94.0114C150.035 93.223 152.225 95.1678 151.629 95.9562Z" fill="white"/>
<path id="Vector_40" d="M21.1752 100.091C21.153 98.4425 20.7434 96.8225 19.9795 95.3616C19.2156 93.9008 18.1188 92.64 16.7778 91.6813C16.3628 91.3902 15.8774 91.2156 15.3722 91.1755C14.8669 91.1355 14.3601 91.2315 13.9045 91.4535L10.4005 93.4859C9.86691 93.889 9.44745 94.4241 9.18328 95.0384C8.91911 95.6528 8.81935 96.3253 8.89376 96.9898C8.916 98.6382 9.32558 100.258 10.0895 101.719C10.8534 103.18 11.9502 104.441 13.2912 105.399C13.7039 105.696 14.1897 105.874 14.6961 105.914C15.2026 105.954 15.7104 105.855 16.1645 105.627L19.6685 103.612C20.2009 103.204 20.6191 102.666 20.883 102.049C21.1469 101.432 21.2476 100.758 21.1752 100.091Z" fill="#263238"/>
<path id="Vector_41" d="M17.6888 102.106C17.6888 105.347 15.7265 106.836 13.2913 105.434C11.9502 104.476 10.8534 103.215 10.0895 101.754C9.3256 100.293 8.91602 98.6733 8.89377 97.0249C8.89377 93.7837 10.856 92.2945 13.2913 93.6961C14.6323 94.6548 15.7291 95.9155 16.493 97.3764C17.2569 98.8373 17.6666 100.457 17.6888 102.106Z" fill="#263238"/>
<path id="Vector_42" d="M19.0904 104.576C19.0904 98.6542 15.4813 91.7514 11.0312 89.1934C10.2714 88.6638 9.38513 88.3444 8.46214 88.2675C7.53915 88.1905 6.61221 88.3589 5.77522 88.7554L3.55014 90.0519C1.79814 91.0331 0.764468 93.3282 0.764468 96.5518C0.764468 102.491 4.3736 109.376 8.82368 111.952C9.57904 112.493 10.4674 112.817 11.3933 112.891C12.3193 112.966 13.248 112.786 14.0797 112.372L16.3047 111.093C18.0217 110.112 19.0904 107.817 19.0904 104.576Z" fill="#37474F"/>
<path id="Vector_43" d="M16.8654 105.855C16.8654 111.794 13.2562 114.527 8.80614 111.952C4.35606 109.376 0.746985 102.491 0.746985 96.5518C0.746985 90.6126 4.35606 87.897 8.80614 90.4724C13.2562 93.0479 16.8654 99.9332 16.8654 105.855Z" fill="#455A64"/>
<path id="Vector_44" d="M15.0783 104.821C15.0783 109.447 12.2751 111.566 8.80614 109.569C5.33718 107.572 2.53401 102.211 2.53401 97.5855C2.53401 92.9603 5.3547 90.8578 8.80614 92.8551C12.2576 94.8524 15.0783 100.231 15.0783 104.821Z" fill="#E0E0E0"/>
<path id="Vector_45" d="M21.7535 94.2567C20.9651 91.4886 20.2818 88.37 19.3532 88.3525C17.8115 88.3525 14.9207 91.2958 15.8492 95.9211C16.7778 100.546 18.8276 105.452 18.9853 106.731L26.8868 101.09C24.4593 99.4505 22.6518 97.0446 21.7535 94.2567V94.2567Z" fill="#FFA8A7"/>
</g>
</svg>
