<svg preserveAspectRatio="none" width="100%" height="100%" overflow="visible" style="display: block;" viewBox="0 0 175.2 364.784" fill="none" xmlns="http://www.w3.org/2000/svg">
<g id="freepik--Drawing--inject-22">
<g id="freepik--Poster--inject-22">
<path id="Vector" d="M114.423 244.842L50.773 281.652L50.7905 363.75L114.423 326.941V244.842Z" fill="#F0F0F0"/>
<path id="Vector_2" d="M52.9104 295.002C52.9104 289.343 58.1664 279.777 60.3739 278.515C62.5814 277.254 111.182 249.152 116.017 246.331V327.834L52.9104 364.416V295.002Z" fill="#FAFAFA"/>
<path id="Vector_3" d="M115.755 246.787V327.624L53.1732 363.873V295.002C53.1732 289.098 58.6219 279.847 60.5141 278.743L115.755 246.787M116.28 245.876L60.2162 278.288C58.0438 279.549 52.6126 289.15 52.6126 295.002V364.784L116.245 327.992V245.876H116.28Z" fill="#E0E0E0"/>
<path id="Vector_4" d="M60.2513 278.288C56.7473 281.126 59.3402 288.292 59.3402 288.292C58.4155 288.268 57.4963 288.44 56.643 288.797C55.7898 289.155 55.0218 289.688 54.3895 290.364C53.7573 291.039 53.2753 291.84 52.975 292.715C52.6748 293.59 52.5632 294.519 52.6476 295.44V295.44C52.6476 285.278 56.064 280.688 60.2513 278.288Z" fill="#E0E0E0"/>
</g>
<path id="Vector_5" d="M105.067 244.211L103.263 248.784L120.292 258.63L122.097 254.058L105.067 244.211Z" fill="#EBEBEB"/>
<path id="Vector_6" d="M48.653 349.349L46.831 353.922L63.8779 363.75L65.6825 359.178L48.653 349.349Z" fill="#EBEBEB"/>
<path id="Vector_7" d="M62.6165 329.709C62.6165 327.168 62.6165 324.628 62.6165 322.088C62.6165 319.547 62.6165 316.989 62.4763 314.659C62.4763 314.361 62.0208 314.204 61.9682 314.659C61.758 317.287 61.8806 319.915 61.8806 322.368C61.8806 324.821 61.8806 327.414 61.8806 329.937V344.811C61.8806 345.407 62.6165 345.337 62.6165 344.688C62.634 339.748 62.6165 334.72 62.6165 329.709Z" fill="#E0E0E0"/>
<path id="Vector_8" d="M87.3898 315.57C87.3898 313.012 87.3898 310.472 87.3898 307.931C87.3898 305.391 87.3898 302.851 87.2496 300.521C87.2496 300.205 86.7941 300.047 86.759 300.521C86.5488 303.149 86.759 305.777 86.759 308.247C86.759 310.717 86.759 313.293 86.759 315.798V330.69C86.759 331.286 87.4949 331.198 87.4949 330.55L87.3898 315.57Z" fill="#E0E0E0"/>
<path id="Vector_9" d="M103.648 306.18C103.648 303.639 103.648 301.099 103.648 298.558C103.648 296.018 103.648 293.46 103.508 291.13C103.508 290.832 103.053 290.674 103.018 291.13C102.807 293.758 102.93 296.386 102.93 298.839C102.93 301.291 102.93 303.884 102.93 306.407V321.282C102.93 321.877 103.666 321.79 103.666 321.159L103.648 306.18Z" fill="#E0E0E0"/>
<path id="Vector_10" d="M86.9693 300.433C86.5526 300.464 86.1525 300.61 85.813 300.853L84.534 301.537L81.9761 302.921C80.2241 303.867 78.4721 304.813 76.7201 305.794C73.2161 307.704 69.8698 309.701 66.4534 311.733C64.3644 312.858 62.372 314.153 60.4966 315.605C60.3389 315.728 60.4966 316.096 60.4966 316.043C62.3053 315.161 64.0604 314.172 65.7526 313.082C67.5046 312.084 69.1514 311.085 70.8684 310.104C74.3724 308.107 77.8764 306.144 81.2753 304.27L84.1135 302.728L85.4976 301.992C85.7466 301.869 85.9866 301.729 86.2159 301.572C86.4269 301.466 86.6216 301.33 86.7941 301.169C87.2496 300.924 87.1795 300.45 86.9693 300.433Z" fill="#E0E0E0"/>
<path id="Vector_11" d="M95.2738 279.409C95.1249 279.366 94.9671 279.366 94.8182 279.409C94.573 279.514 94.3452 279.654 94.0999 279.777L92.821 280.46L90.2806 281.844C88.5286 282.79 86.7766 283.736 85.0246 284.718C81.5206 286.627 78.1742 288.607 74.7578 290.657C72.6608 291.777 70.6622 293.072 68.7835 294.529C68.6434 294.634 68.7835 295.019 68.7835 294.967C70.6261 294.095 72.4109 293.106 74.1271 292.006L79.3656 289.08C82.8696 287.083 86.3386 285.138 89.7725 283.246L92.6282 281.722L93.9948 280.986C94.4423 280.804 94.8567 280.549 95.2212 280.232C95.484 279.97 95.5366 279.444 95.2738 279.409Z" fill="#E0E0E0"/>
<path id="Vector_12" d="M95.1862 279.654C94.3187 281.272 93.5749 282.953 92.9611 284.682C92.1902 286.434 91.4369 288.379 90.6835 290.236C89.1651 293.916 87.635 297.589 86.0933 301.256C85.7779 302.01 86.5488 302.185 86.8291 301.484C88.3358 297.98 89.825 294.371 91.2792 290.779C91.9975 289.027 92.6983 287.275 93.3991 285.523L94.4503 282.86C94.861 281.913 95.195 280.935 95.449 279.935C95.484 279.777 95.3438 279.391 95.1862 279.654Z" fill="#E0E0E0"/>
<path id="Vector_13" d="M68.9938 294.774C68.1263 296.392 67.3825 298.072 66.7687 299.802C66.0154 301.554 65.262 303.499 64.4911 305.356C62.9844 309.035 61.4426 312.714 59.9009 316.376C59.5855 317.13 60.3564 317.305 60.6542 316.604C62.1434 313.1 63.6326 309.491 65.0868 305.899C65.8051 304.147 66.5059 302.395 67.2067 300.643L68.2579 297.98C68.6686 297.033 69.0026 296.055 69.2566 295.054C69.2916 294.897 69.1514 294.511 68.9938 294.774Z" fill="#E0E0E0"/>
<path id="Vector_14" d="M103.929 291.761C103.983 291.737 104.031 291.701 104.069 291.655C104.279 291.41 104.437 290.972 104.262 290.779C102.72 288.887 101.196 286.978 99.6713 285.05L97.3937 282.072C96.8266 281.112 96.0694 280.277 95.1686 279.619C95.011 279.532 94.8708 280.092 94.9058 280.25C95.1272 280.891 95.4658 281.485 95.9045 282.002C96.2549 282.492 96.6053 282.983 96.9557 283.439C97.6565 284.367 98.3573 285.296 99.0756 286.207C99.7939 287.118 100.828 288.344 101.581 289.378C102.001 289.921 102.422 290.447 102.86 290.972C103.07 291.305 103.508 292.023 103.929 291.761Z" fill="#E0E0E0"/>
<path id="Vector_15" d="M62.2836 341.307C61.8677 340.79 61.353 340.361 60.7694 340.045C60.1858 339.729 59.5451 339.533 58.8847 339.467C58.5869 339.467 58.5343 340.028 58.692 340.203C59.2678 341.008 59.6405 341.939 59.7782 342.919C59.77 343.036 59.77 343.153 59.7782 343.269C59.6855 343.253 59.5907 343.253 59.4979 343.269H59.1826C58.715 343.275 58.2522 343.364 57.816 343.532C57.5182 343.637 57.5882 344.128 57.816 344.25C58.6327 344.794 59.2915 345.543 59.7257 346.423C59.8308 346.633 60.006 346.423 59.9359 346.108C59.7756 345.555 59.5011 345.041 59.13 344.601C58.98 344.419 58.816 344.249 58.6394 344.093C58.9585 344.04 59.284 344.04 59.603 344.093C59.7958 344.093 60.0235 344.215 60.2338 343.953C60.3172 343.824 60.3701 343.679 60.3883 343.527C60.4065 343.375 60.3896 343.221 60.3389 343.077C60.1868 342.182 59.9219 341.311 59.5505 340.484C60.4848 340.728 61.3147 341.269 61.9157 342.025C62.0208 342.131 62.1785 342.218 62.3362 342.025C62.3849 341.977 62.4227 341.919 62.4468 341.855C62.4709 341.791 62.4808 341.722 62.4758 341.654C62.4708 341.586 62.451 341.519 62.4178 341.46C62.3846 341.4 62.3388 341.348 62.2836 341.307V341.307Z" fill="#E0E0E0"/>
<path id="Vector_16" d="M107.205 315.57C107.082 314.922 106.539 315.342 106.171 315.57C105.903 315.797 105.651 316.043 105.418 316.306C105.418 315.851 105.576 315.342 105.646 314.887C105.799 314.203 105.852 313.501 105.803 312.802C105.803 312.504 105.47 312.434 105.295 312.802C104.8 313.527 104.372 314.295 104.016 315.097C103.634 315.866 103.346 316.678 103.158 317.515C103.158 317.83 103.368 318.128 103.526 317.76C103.841 316.954 104.121 316.148 104.489 315.377C104.7 314.957 104.927 314.554 105.155 314.186C105.155 314.624 104.98 315.062 104.91 315.483C104.75 316.16 104.709 316.859 104.787 317.55C104.792 317.606 104.815 317.658 104.852 317.7C104.889 317.742 104.939 317.771 104.994 317.783C105.049 317.795 105.106 317.789 105.157 317.766C105.208 317.743 105.25 317.704 105.278 317.655C105.563 317.258 105.893 316.893 106.259 316.569L106.416 316.446V316.621C106.128 317.685 105.963 318.779 105.926 319.88C105.926 320.423 106.557 320.318 106.574 319.67C106.609 318.957 106.703 318.248 106.854 317.55C106.854 317.182 107.012 316.832 107.117 316.464C107.209 316.175 107.239 315.871 107.205 315.57V315.57Z" fill="#E0E0E0"/>
<path id="Vector_17" d="M113.354 315.36C111.346 316.326 109.393 317.402 107.503 318.584L101.826 321.86L90.5609 328.36C83.0273 332.728 75.4878 337.091 67.9426 341.447L61.6879 345.074L58.3591 347.001C57.316 347.575 56.3096 348.212 55.3457 348.911C55.0478 349.139 55.223 349.699 55.4508 349.612C57.409 348.704 59.3052 347.668 61.1273 346.511L66.7162 343.287L77.999 336.804L100.547 323.787L106.925 320.108C109.115 318.846 111.322 317.69 113.512 316.148C113.968 315.763 113.652 315.132 113.354 315.36Z" fill="#E0E0E0"/>
<path id="Vector_18" d="M71.4991 318.058C71.4991 317.743 71.2188 317.725 71.0261 317.83C70.0625 318.321 69.0989 318.846 68.1353 319.425C67.052 320.012 66.0256 320.698 65.0693 321.474C65.0028 321.546 64.9658 321.64 64.9658 321.737C64.9658 321.835 65.0028 321.929 65.0693 322C65.0252 322.232 65.0252 322.469 65.0693 322.701C65.0693 322.981 65.0693 323.262 65.0693 323.524V328.903C65.0693 329.253 65.3846 329.358 65.5423 329.148C65.9626 329.001 66.3675 328.813 66.7512 328.588L68.1878 327.799C69.1514 327.291 70.0975 326.766 71.0436 326.24C71.1489 326.161 71.233 326.058 71.2881 325.938C71.3431 325.819 71.3675 325.688 71.359 325.557C71.4165 325.468 71.447 325.364 71.4466 325.259C71.4466 324.067 71.4466 322.876 71.4466 321.755V320.003C71.4728 319.583 71.4728 319.161 71.4466 318.741C71.5456 318.527 71.5643 318.285 71.4991 318.058V318.058ZM70.6231 319.092V319.355C70.6231 319.652 70.6231 319.95 70.6231 320.248V322C69.8698 322.473 69.0989 322.911 68.328 323.367C68.328 322.894 68.328 322.403 68.328 321.93C68.3292 321.478 68.294 321.027 68.2229 320.581C68.9762 320.02 69.7997 319.53 70.6231 319.092ZM67.6272 320.844C67.6272 321.282 67.6272 321.72 67.6272 322.088V323.717L66.3833 324.453L65.7526 324.838L65.5248 324.978V323.419C65.5462 322.949 65.5109 322.479 65.4197 322.018L67.6272 320.844ZM66.576 327.624L65.8226 328.062L65.4372 328.29V325.749C65.8634 325.632 66.2664 325.442 66.6286 325.189L67.6622 324.611C67.6622 325.399 67.6622 326.187 67.7498 326.976L66.576 327.624ZM68.328 326.608C68.328 325.819 68.328 325.031 68.2054 324.243L70.4654 322.911V325.416L68.328 326.608Z" fill="#E0E0E0"/>
<path id="Vector_19" d="M82.9397 311.453C82.9397 311.138 82.6594 311.12 82.4666 311.225C81.503 311.716 80.5394 312.241 79.5583 312.82C78.4871 313.417 77.4674 314.103 76.5098 314.869C76.4433 314.941 76.4064 315.035 76.4064 315.132C76.4064 315.23 76.4433 315.324 76.5098 315.395C76.4755 315.627 76.4755 315.863 76.5098 316.096C76.5098 316.376 76.5098 316.656 76.5098 316.937C76.5098 317.532 76.5098 318.146 76.5098 318.689C76.5098 319.88 76.5098 321.071 76.5098 322.193C76.5098 322.561 76.8427 322.648 77.0004 322.438C77.4193 322.288 77.8238 322.1 78.2093 321.877L79.6459 321.107L82.5017 319.53C82.6095 319.453 82.6954 319.35 82.7508 319.23C82.8061 319.11 82.829 318.978 82.817 318.846C82.8643 318.76 82.8941 318.664 82.9046 318.566V313.31C82.9309 312.89 82.9309 312.469 82.9046 312.049C82.9829 311.86 82.9952 311.65 82.9397 311.453ZM82.0637 312.487V312.749C82.0637 313.047 82.0637 313.345 82.0637 313.643V315.36C81.2928 315.833 80.5394 316.289 79.7686 316.727V315.29C79.7697 314.838 79.7346 314.387 79.6634 313.941C80.4168 313.415 81.2402 312.925 82.0637 312.487ZM79.0678 314.239C79.042 314.653 79.042 315.068 79.0678 315.483C79.0678 316.043 79.0678 316.569 79.0678 317.112L77.8238 317.848L77.1931 318.233L76.9654 318.373C76.9654 317.848 76.9654 317.34 76.9654 316.814C77.0297 316.349 77.0297 315.878 76.9654 315.413C77.561 315.027 78.3144 314.624 79.0678 314.186V314.239ZM78.0691 321.036L77.3333 321.474L76.9303 321.72V319.162C77.3553 319.041 77.7577 318.852 78.1217 318.601L79.1378 318.023L79.243 320.388L78.0691 321.036ZM79.8211 320.02L79.716 317.655L81.9761 316.324C81.9761 317.165 81.9761 317.988 81.9761 318.829L79.8211 320.02Z" fill="#E0E0E0"/>
<path id="Vector_20" d="M92.3304 316.376C92.3304 314.431 92.3304 312.504 92.3304 310.577V307.511C92.4021 306.601 92.4021 305.688 92.3304 304.778C92.3304 304.603 92.1552 304.463 92.0851 304.778C91.9385 305.711 91.8857 306.656 91.9274 307.599C91.9274 308.597 91.9274 309.578 91.9274 310.56C91.9274 312.533 91.9274 314.496 91.9274 316.446C91.9274 320.388 91.9274 324.313 92.0501 328.22C92.0501 328.675 92.6458 328.693 92.6458 328.115C92.383 324.225 92.3479 320.318 92.3304 316.376Z" fill="#E0E0E0"/>
<path id="Vector_21" d="M98.7953 312.644C98.7953 310.7 98.7953 308.773 98.7953 306.845V303.779C98.867 302.87 98.867 301.956 98.7953 301.046C98.7953 300.871 98.6201 300.731 98.55 301.046C98.4084 301.979 98.3615 302.924 98.4098 303.867V306.828C98.4098 308.802 98.4098 310.764 98.4098 312.715C98.4098 316.662 98.4507 320.587 98.5325 324.488C98.5325 324.943 99.1457 324.961 99.1282 324.383C98.8478 320.493 98.8128 316.569 98.7953 312.644Z" fill="#E0E0E0"/>
<path id="Vector_22" d="M98.4098 301.011C97.8365 301.22 97.2849 301.484 96.763 301.799L95.1336 302.658L93.5743 303.516C92.9875 303.775 92.4485 304.13 91.98 304.568C91.7698 304.778 91.98 305.163 91.98 305.128C92.4859 304.962 92.9687 304.733 93.4166 304.445L95.1686 303.516L96.8155 302.658C97.3765 302.433 97.916 302.157 98.4274 301.835C98.8829 301.572 98.6902 300.941 98.4098 301.011Z" fill="#E0E0E0"/>
<path id="Vector_23" d="M94.0649 313.923V312.715C94.0649 311.996 94.0649 311.278 94.0649 310.56C94.0649 309.841 94.0649 309.123 94.0649 308.405C94.1097 307.784 94.0803 307.161 93.9773 306.547C93.9773 306.547 93.9773 306.547 93.9773 306.547C93.8918 306.831 93.8562 307.128 93.8722 307.423V308.562C93.8722 309.298 93.8722 310.034 93.8722 310.77C93.8722 311.506 93.8722 312.189 93.8722 312.907V314.029C93.8782 314.341 93.9134 314.651 93.9773 314.957C93.9773 314.957 93.9773 314.957 94.0999 314.957C94.2226 314.957 94.0999 314.624 94.205 314.467C94.1695 314.283 94.1227 314.101 94.0649 313.923Z" fill="#E0E0E0"/>
<path id="Vector_24" d="M96.763 309.088C96.5702 309.088 96.2899 309.246 96.0622 309.386L95.5366 309.684C95.5366 308.965 95.5366 308.247 95.5366 307.529C95.5897 306.914 95.5602 306.295 95.449 305.689C95.449 305.689 95.449 305.689 95.449 305.689C95.3895 305.984 95.3895 306.288 95.449 306.583C95.449 306.968 95.449 307.336 95.449 307.721C95.449 308.44 95.449 309.158 95.449 309.876C94.9933 310.125 94.5596 310.412 94.1525 310.735C94.1525 310.735 94.1525 311.033 94.1525 311.015C94.5939 310.837 95.0214 310.626 95.4314 310.384C95.4314 310.945 95.4314 311.506 95.4314 312.049V313.188C95.4385 313.494 95.4736 313.799 95.5366 314.099C95.5366 314.204 95.6242 314.099 95.6592 314.099C95.6942 314.099 95.7468 313.766 95.7643 313.608C95.7731 313.445 95.7731 313.281 95.7643 313.117V311.856C95.7643 311.295 95.7643 310.752 95.7643 310.192L96.395 309.841L96.7805 309.613C96.8344 309.588 96.8824 309.551 96.9216 309.506C96.9607 309.46 96.9902 309.408 97.0082 309.351C97.0082 309.351 96.8155 309.105 96.763 309.088Z" fill="#E0E0E0"/>
<g id="Vector_25">
</g>
<path id="Vector_26" d="M109.43 267.075C109.44 266.232 109.127 265.416 108.554 264.797C108.333 264.606 108.057 264.489 107.766 264.464C107.601 264.441 107.433 264.456 107.275 264.507C107.117 264.559 106.973 264.646 106.854 264.762C106.644 264.972 106.854 265.34 106.854 265.323C107.31 265.323 107.748 265.13 108.116 265.446C108.533 265.858 108.772 266.418 108.782 267.005C108.863 267.772 108.717 268.546 108.361 269.23C108.034 269.875 107.608 270.466 107.1 270.982C106.259 271.823 105.348 272.068 104.717 271.367C104.392 270.79 104.212 270.143 104.19 269.481C104.169 268.82 104.308 268.162 104.594 267.565C104.875 266.808 105.271 266.099 105.768 265.463C106.255 264.916 106.789 264.412 107.363 263.956C107.503 263.834 107.363 263.466 107.363 263.501C106.565 263.809 105.877 264.345 105.383 265.043C104.811 265.769 104.367 266.586 104.069 267.46C103.754 268.191 103.609 268.984 103.646 269.78C103.682 270.575 103.899 271.351 104.279 272.051C105.032 272.997 106.241 272.804 107.345 271.77C107.963 271.2 108.473 270.524 108.852 269.773C109.301 268.948 109.502 268.011 109.43 267.075Z" fill="#E0E0E0"/>
<path id="Vector_27" d="M106.574 259.822C106.574 259.611 106.206 259.471 106.101 259.822C105.983 260.398 105.93 260.986 105.943 261.574C105.943 262.082 105.943 262.607 105.943 263.115C105.943 263.623 106.066 263.588 106.259 263.536C106.376 263.496 106.478 263.42 106.55 263.32C106.622 263.219 106.661 263.099 106.662 262.975C106.662 262.38 106.662 261.801 106.662 261.223C106.682 260.754 106.653 260.284 106.574 259.822V259.822Z" fill="#E0E0E0"/>
<path id="Vector_28" d="M106.872 275.064V274.328C106.872 274.135 106.872 273.943 106.872 273.768V273.592C106.861 273.486 106.825 273.384 106.767 273.294C106.767 273.172 106.574 273.119 106.469 273.294C106.449 273.375 106.449 273.459 106.469 273.54C106.46 273.598 106.46 273.657 106.469 273.715C106.46 273.861 106.46 274.007 106.469 274.153V276.01C106.451 276.109 106.451 276.209 106.469 276.308C106.483 276.353 106.505 276.395 106.535 276.431C106.565 276.467 106.602 276.497 106.644 276.518C106.676 276.539 106.712 276.549 106.749 276.549C106.787 276.549 106.823 276.539 106.854 276.518C106.861 276.466 106.861 276.413 106.854 276.36C106.863 276.308 106.863 276.255 106.854 276.203V276.115V275.064H106.872Z" fill="#E0E0E0"/>
<path id="Vector_29" d="M102.72 270.579C102.603 270.575 102.487 270.605 102.387 270.666L102.124 270.824L101.528 271.175L100.968 271.525C100.759 271.633 100.574 271.782 100.425 271.963C100.425 272.103 100.425 272.383 100.425 272.383C100.851 272.284 101.255 272.106 101.616 271.858L102.159 271.542C102.406 271.45 102.624 271.293 102.79 271.087C102.965 270.859 102.842 270.561 102.72 270.579Z" fill="#E0E0E0"/>
<path id="Vector_30" d="M112.408 264.429C112.185 264.512 111.973 264.624 111.778 264.762L111.217 265.095L110.113 265.778C110.008 265.861 109.926 265.968 109.874 266.09C109.822 266.213 109.802 266.347 109.815 266.479C109.815 266.76 110.061 266.847 110.253 266.724L111.322 266.059L111.848 265.726C112.094 265.568 112.328 265.392 112.548 265.2C112.611 265.133 112.658 265.052 112.685 264.964C112.713 264.876 112.72 264.783 112.706 264.692C112.671 264.552 112.548 264.394 112.408 264.429Z" fill="#E0E0E0"/>
<path id="Vector_31" d="M103.981 266.146C103.707 266.077 103.438 265.989 103.175 265.884L102.807 265.708L102.562 265.586C102.451 265.577 102.34 265.577 102.229 265.586C102.229 265.586 102.142 265.586 102.124 265.743C102.095 265.828 102.095 265.921 102.124 266.006V266.111V266.024C102.2 266.21 102.344 266.361 102.527 266.444L102.912 266.654C103.174 266.766 103.444 266.86 103.718 266.935C103.824 266.935 103.981 266.935 104.051 266.672C104.121 266.409 104.086 266.164 103.981 266.146Z" fill="#E0E0E0"/>
<path id="Vector_32" d="M110.376 260.698C110.277 260.781 110.194 260.882 110.131 260.995L110.043 261.171L109.885 261.521L109.57 262.239L108.974 263.623C108.923 263.705 108.896 263.799 108.896 263.895C108.896 263.991 108.923 264.085 108.974 264.167C109.08 264.167 109.255 264.254 109.36 264.009C109.465 263.764 109.78 263.045 109.973 262.555C110.166 262.064 110.166 262.099 110.253 261.871L110.411 261.521C110.411 261.433 110.411 261.381 110.411 261.293C110.428 261.177 110.428 261.059 110.411 260.943C110.534 260.82 110.376 260.61 110.376 260.698Z" fill="#E0E0E0"/>
<path id="Vector_33" d="M110.796 271.77C110.796 271.77 110.709 271.578 110.674 271.525L110.551 271.402L110.358 271.245L109.903 270.894L109.482 270.561L109.307 270.421C109.307 270.421 109.15 270.281 109.044 270.264C108.939 270.246 108.817 270.264 108.729 270.474C108.698 270.549 108.682 270.629 108.682 270.71C108.682 270.791 108.698 270.872 108.729 270.947C108.793 271.031 108.878 271.097 108.974 271.14L109.185 271.28L109.71 271.63L110.113 271.858C110.264 272.006 110.463 272.093 110.674 272.103C110.674 272.103 110.674 272.103 110.674 271.998C110.681 271.963 110.681 271.928 110.674 271.893C110.726 271.865 110.769 271.822 110.796 271.77V271.77Z" fill="#E0E0E0"/>
<g id="Vector_34">
</g>
<path id="Vector_35" d="M103.753 273.067C103.698 273.111 103.65 273.164 103.613 273.224L103.473 273.452L103.28 273.785L102.912 274.451C102.667 274.906 102.439 275.362 102.212 275.817C102.188 275.921 102.188 276.029 102.212 276.133C102.217 276.181 102.232 276.228 102.256 276.27C102.28 276.312 102.313 276.349 102.352 276.378C102.474 276.378 102.632 276.378 102.755 276.168C102.877 275.958 102.755 276.168 102.755 276.168V275.993L102.93 275.66L103.298 274.941C103.403 274.714 103.526 274.503 103.648 274.276C103.771 274.048 103.771 274.048 103.824 273.943L103.911 273.785C103.917 273.744 103.917 273.703 103.911 273.662C103.928 273.582 103.928 273.498 103.911 273.417C104.069 273.102 103.911 272.944 103.753 273.067Z" fill="#E0E0E0"/>
<path id="Vector_36" d="M102.649 276.255V276.168L102.545 276.325L102.649 276.255Z" fill="#E0E0E0"/>
<path id="Vector_37" d="M73.146 285.769C73.0621 285.649 72.9524 285.549 72.8248 285.477C72.6973 285.404 72.5552 285.362 72.409 285.352C72.2628 285.341 72.1162 285.364 71.98 285.418C71.8438 285.472 71.7214 285.556 71.6218 285.664C71.2538 284.244 70.6932 282.843 69.4843 283.158C68.2754 283.474 67.6097 285.085 67.3118 286.662C66.3658 286.557 65.2094 287.784 64.9466 289.606C64.5054 289.729 64.1075 289.973 63.7978 290.31C63.4882 290.648 63.2792 291.065 63.1946 291.515C62.8968 292.602 63.1946 293.548 63.7553 293.635C63.8044 293.641 63.8541 293.634 63.9 293.616C63.9458 293.598 63.9864 293.568 64.0181 293.53C64.7024 293.306 65.3469 292.975 65.9278 292.549L68.2754 291.2C69.8172 290.359 71.359 289.448 72.8832 288.572C72.9564 288.53 73.0165 288.468 73.0567 288.394C73.0969 288.32 73.1157 288.236 73.111 288.151C73.3289 287.794 73.4471 287.384 73.4533 286.965C73.4594 286.546 73.3533 286.133 73.146 285.769V285.769ZM68.1703 290.412C67.4345 290.867 66.6986 291.288 65.9628 291.708L64.9291 292.321C64.5963 292.471 64.2889 292.672 64.0181 292.917C63.9838 292.868 63.9347 292.831 63.8779 292.812C63.5976 292.812 63.6677 291.988 63.8779 291.585C63.9536 291.292 64.1227 291.03 64.3596 290.841C64.5966 290.651 64.8886 290.544 65.1919 290.534C65.2959 290.515 65.3903 290.461 65.4602 290.382C65.5301 290.302 65.5713 290.202 65.5774 290.096C65.665 288.73 66.5935 287.135 67.3294 287.661C67.452 287.766 67.8199 287.661 67.8725 287.275C68.0126 285.944 68.6959 284.052 69.6245 283.947C70.553 283.842 70.9034 285.296 71.2013 286.417C71.2013 286.575 71.429 286.697 71.5517 286.557C71.9546 286.119 72.4102 285.961 72.7255 286.259C72.8681 286.491 72.9436 286.758 72.9436 287.03C72.9436 287.302 72.8681 287.569 72.7255 287.801C72.698 287.788 72.6682 287.782 72.6379 287.782C72.6077 287.782 72.5778 287.788 72.5503 287.801C71.1487 288.677 69.6595 289.518 68.1703 290.412V290.412Z" fill="#E0E0E0"/>
</g>
</svg>
