<svg preserveAspectRatio="none" width="100%" height="100%" overflow="visible" style="display: block;" viewBox="0 0 75.2659 120.555" fill="none" xmlns="http://www.w3.org/2000/svg">
<g id="freepik--drawing--inject-22">
<g id="freepik--poster--inject-22">
<path id="Vector" d="M67.5746 0.630728L3.942 37.4403V119.539L67.5746 82.7294V0.630728Z" fill="#F0F0F0"/>
<path id="Vector_2" d="M6.07944 50.7905C6.07944 45.114 11.3354 35.5656 13.543 34.3042L69.1865 2.11993V83.6054L6.11448 120.117L6.07944 50.7905Z" fill="#FAFAFA"/>
<path id="Vector_3" d="M68.9237 2.55793V83.4478L6.34223 119.662V50.7905C6.34223 44.8862 11.791 35.6182 13.6831 34.5319L68.9237 2.55793ZM69.4493 1.64689L13.3853 34.0589C11.2128 35.3028 5.78159 44.9213 5.78159 50.773V120.555L69.4142 83.7631V1.6644L69.4493 1.64689Z" fill="#E0E0E0"/>
<path id="Vector_4" d="M13.4203 34.0939C9.91631 36.9322 12.5093 44.0803 12.5093 44.0803C11.5837 44.0592 10.6642 44.2339 9.81091 44.593C8.95762 44.9522 8.18986 45.4875 7.55795 46.1641C6.92604 46.8407 6.44425 47.6432 6.14417 48.5189C5.84408 49.3947 5.73246 50.3241 5.81664 51.246V51.246C5.81664 41.1019 9.26807 36.4766 13.4203 34.0939Z" fill="#E0E0E0"/>
</g>
<path id="Vector_5" d="M58.2365 7.14111e-06L56.4319 4.57273L73.4614 14.4015L75.2659 9.84625L58.2365 7.14111e-06Z" fill="#EBEBEB"/>
<path id="Vector_6" d="M1.80456 105.138L0 109.693L17.0294 119.539L18.8515 114.966L1.80456 105.138Z" fill="#EBEBEB"/>
<path id="Vector_7" d="M50.6854 45.5345C50.6002 45.9446 50.6047 46.3682 50.6984 46.7764C50.7922 47.1847 50.973 47.5678 51.2285 47.8997C51.719 48.4078 52.4373 48.2501 53.1381 47.6544C53.5324 47.2864 53.869 46.8612 54.1368 46.393C54.2887 46.1456 54.4233 45.888 54.5398 45.6221C54.6676 45.2911 54.7444 44.9425 54.7675 44.5884C54.7675 44.0628 54.4346 44.1855 54.2594 44.5884C54.0842 44.9914 53.9966 45.0965 53.874 45.3593L53.7689 45.5695L53.6287 45.8323V45.9374L53.4535 46.1827V46.2879L53.2783 46.4631L53.1732 46.5507C52.7702 46.7959 52.4549 46.8135 52.157 46.5507C51.8446 46.1535 51.6944 45.6526 51.7366 45.1491C51.7271 45.0091 51.7271 44.8686 51.7366 44.7286L52.1921 44.5359L52.6826 44.3607C52.9919 44.2657 53.3083 44.1954 53.6287 44.1504C53.8211 44.1335 54.0145 44.1335 54.2069 44.1504C54.2069 44.1504 54.5748 44.1504 54.5923 44.2731C54.6098 44.3957 54.75 44.2731 54.8026 44.1679C54.8836 43.9054 54.8836 43.6245 54.8026 43.362C54.7621 43.2848 54.7019 43.2198 54.628 43.1736C54.5541 43.1274 54.4692 43.1017 54.3821 43.0992C53.916 43.0604 53.4468 43.1079 52.998 43.2394L52.2797 43.4671C51.8278 43.5871 51.4364 43.8701 51.1808 44.2615C50.9253 44.6529 50.8237 45.1251 50.8956 45.5871L50.6854 45.5345Z" fill="#E0E0E0"/>
<path id="Vector_8" d="M44.9563 49.1786C45.3081 50.9393 46.2929 52.5101 47.7245 53.5937C50.1598 55.3457 53.5411 54.4697 56.4845 51.0533C58.0883 49.2019 59.3463 47.0775 60.1987 44.7811C61.1623 42.3079 61.4407 39.6205 61.0046 37.0023C61.0046 36.7044 60.8645 36.4241 60.7944 36.1263C60.7944 36.1263 61.0046 36.1262 61.0922 35.8109C61.7229 33.761 62.1785 31.6586 62.6165 29.5913C62.8267 28.6277 63.0194 27.6816 63.2121 26.718C63.47 25.9337 63.5654 25.1051 63.4925 24.2827C63.2822 23.5994 62.5814 24.055 62.1259 24.493C61.5794 25.081 61.0759 25.7075 60.6192 26.3676C59.4629 27.8568 58.3241 29.381 57.1152 30.8878C57.0249 30.9977 56.9538 31.1221 56.905 31.2557C56.1272 31.0269 55.3 31.0269 54.5222 31.2557V31.2557C54.7675 30.9228 55.0303 30.1344 54.6449 30.2395C53.1124 30.7979 51.7406 31.7245 50.6503 32.9376C50.5163 32.4825 50.2549 32.0752 49.8969 31.7638L48.8633 30.6425L47.7069 29.3986C47.4091 29.0657 46.9711 29.0832 46.6032 29.8366C46.358 30.5401 46.2393 31.2816 46.2528 32.0266C46.2528 32.8325 46.1477 33.6559 46.0951 34.4619C46.025 36.0854 46.025 37.6797 46.0951 39.2448C46.0951 39.4901 46.0951 39.5777 46.3054 39.5777C45.9501 40.3972 45.6516 41.2402 45.4118 42.1006C44.7009 44.3904 44.5448 46.8165 44.9563 49.1786V49.1786ZM50.2123 33.5683C49.9145 33.8837 49.6166 34.2166 49.3538 34.5494C48.4993 35.6383 47.7595 36.8125 47.1463 38.0534C47.1463 35.7233 47.1463 33.323 47.3741 30.8878L47.7069 31.2031L48.5654 32.0791L49.4589 32.9902C49.6545 33.2113 49.8784 33.4056 50.1247 33.5683H50.2123ZM60.8995 35.8459C60.7102 34.9536 60.3446 34.1081 59.8241 33.3589C59.3036 32.6098 58.6388 31.9722 57.8686 31.4834C58.7796 30.2746 59.6206 29.0832 60.5666 27.8568C61.0222 27.2261 61.4777 26.5954 61.9507 25.9822C62.1411 25.6722 62.3985 25.4087 62.7041 25.2113C62.9844 25.0886 62.8968 25.5266 62.8442 25.8595C62.5289 27.6115 62.196 29.2409 61.8456 30.9403C61.4952 32.6398 61.0747 34.2341 60.8119 35.8459H60.8995ZM46.7784 40.7165C47.5086 38.6087 48.6322 36.6586 50.0897 34.9699C50.773 34.186 51.5364 33.4755 52.3673 32.85C53.1031 32.2894 53.839 31.9214 54.5573 31.3783C54.347 31.6411 54.1718 32.3069 54.4171 32.3069C57.2028 32.2018 59.6731 34.3042 60.2162 38.5265C60.5196 41.0763 60.088 43.6597 58.9723 45.9725C58.1295 47.8687 56.9413 49.5916 55.4683 51.0533C52.7352 53.5411 49.9145 53.6638 47.9698 51.7891C46.7002 50.5626 45.9321 48.9077 45.8148 47.1463C45.6578 44.9655 45.9562 42.7758 46.6908 40.7165H46.7784Z" fill="#E0E0E0"/>
<path id="Vector_9" d="M56.0465 45.9374C56.9391 46.2075 57.7474 46.7022 58.3942 47.3741C59.1294 48.0388 59.7929 48.7787 60.3739 49.5816C60.5141 49.7743 60.3739 50.2999 60.1637 50.5102C59.9534 50.7204 59.7432 50.8956 59.603 50.7029C59.0877 49.9476 58.501 49.2436 57.851 48.6005C57.1678 47.9698 56.3794 47.5318 55.7311 46.8485C55.4683 46.6383 55.8012 45.9024 56.0465 45.9374Z" fill="#E0E0E0"/>
<path id="Vector_10" d="M57.8861 43.5547L57.0801 43.7124C56.8349 43.7124 56.502 43.8876 56.3268 43.7124C56.284 43.6108 56.2712 43.4991 56.2898 43.3905C56.3085 43.2818 56.3578 43.1808 56.4319 43.0992C56.9664 42.6789 57.6117 42.4233 58.289 42.3634C58.8497 42.2407 59.4278 42.1356 60.041 42.048C61.1266 41.8425 62.2369 41.8012 63.3348 41.9254C63.8254 41.9254 63.2297 43.2394 62.8442 43.2569C61.7405 43.2569 60.6893 43.2569 59.568 43.2569C58.9898 43.362 58.4467 43.4496 57.8861 43.5547Z" fill="#E0E0E0"/>
<path id="Vector_11" d="M43.0291 47.3741C43.1946 47.1008 43.4575 46.9004 43.765 46.8134L44.6234 46.428L46.3754 45.6571C46.9886 45.3768 47.6018 45.079 48.1274 44.8512C48.653 44.6235 49.0385 44.5534 49.3538 44.8512C49.6692 45.1491 49.3538 45.3768 49.2312 45.4294C48.1305 45.776 47.068 46.2339 46.0601 46.7959L44.4132 47.5843L43.5547 48.0048C43.3094 48.1099 43.0116 48.3377 42.8364 48.1625C42.6612 47.9873 42.889 47.6019 43.0291 47.3741Z" fill="#E0E0E0"/>
<path id="Vector_12" d="M44.8161 52.122C45.5345 51.211 46.2878 50.37 47.0412 49.5641C47.4033 49.1553 47.7712 48.7698 48.145 48.4078C48.4354 48.0525 48.7851 47.7502 49.1786 47.5143C49.3889 47.5143 49.3013 47.9523 49.1786 48.145C48.8194 48.6106 48.4271 49.0497 48.0048 49.459L46.9536 50.5803C46.2528 51.3511 45.5695 52.1746 44.8687 52.998C44.711 53.1907 44.5358 53.1732 44.5183 52.998C44.5065 52.6793 44.6125 52.3674 44.8161 52.122V52.122Z" fill="#E0E0E0"/>
<path id="Vector_13" d="M54.9252 39.3499C55.5209 38.0184 56.5195 37.1774 57.3079 37.265C57.4862 37.3022 57.6528 37.3823 57.7932 37.4983C57.9336 37.6143 58.0437 37.7627 58.1138 37.9308C58.2229 38.192 58.2823 38.4713 58.289 38.7542C58.2959 38.998 58.2603 39.241 58.1839 39.4726C58.1478 39.571 58.1008 39.665 58.0438 39.7529V39.7529C58.0438 39.7529 57.9036 39.6127 57.8861 39.5952C57.8766 39.5489 57.8766 39.5013 57.8861 39.455C57.8579 39.3873 57.8226 39.3227 57.781 39.2623C57.7019 39.1131 57.608 38.9722 57.5006 38.8418L57.3605 38.7367H57.2378H57.0802H56.8349H56.6597V38.8418C56.5362 39.0148 56.436 39.2033 56.3618 39.4025C56.2042 39.7704 55.8187 40.0332 55.6435 39.9106C55.4683 39.7879 54.75 39.7003 54.9252 39.3499Z" fill="#E0E0E0"/>
<path id="Vector_14" d="M51.9293 41.1019C51.7015 41.3647 51.3511 41.3297 51.2635 41.1019C51.2301 40.9515 51.1576 40.8125 51.0533 40.699V40.699H50.9657H50.7029H50.5277H50.4226L50.2474 40.8567C50.188 40.8964 50.1398 40.9507 50.1072 41.0143L49.932 41.2246C49.7837 41.4255 49.649 41.6362 49.529 41.8553C49.529 41.9604 49.4239 42.048 49.3889 42.1356L49.2838 42.3283C49.2838 42.3283 49.1086 42.6262 49.0735 42.6087C49.0453 42.6194 49.0141 42.6194 48.9859 42.6087C48.9859 42.6087 48.9859 42.6087 48.9859 42.6087C48.9732 42.545 48.9732 42.4795 48.9859 42.4159C48.9431 42.1843 48.9431 41.9468 48.9859 41.7151C49.0776 41.3636 49.2068 41.0229 49.3714 40.699C49.597 40.2185 49.9332 39.7982 50.3525 39.4726C50.5101 39.3127 50.708 39.1984 50.9253 39.1419C51.1426 39.0854 51.3712 39.0887 51.5867 39.1516C51.8023 39.2144 51.9968 39.3345 52.1496 39.4989C52.3025 39.6634 52.4079 39.8662 52.4549 40.0858C52.4726 40.2875 52.4325 40.4902 52.3395 40.6701C52.2464 40.85 52.1042 40.9998 51.9293 41.1019V41.1019Z" fill="#E0E0E0"/>
<path id="Vector_15" d="M12.4567 92.1026C12.8071 93.3816 13.8408 92.7684 14.6818 91.9274C14.6818 92.5932 14.8745 93.1889 15.2774 93.3991C15.6804 93.6094 16.3286 93.3991 16.7666 92.5757C17.1097 91.8189 17.2872 90.9976 17.2872 90.1667C17.2872 89.3358 17.1097 88.5145 16.7666 87.7577C17.6426 86.1634 18.5186 84.5515 19.3596 82.9222C20.2006 81.2928 21.2342 79.4182 22.0226 77.5435C22.2135 78.108 22.5451 78.6146 22.9862 79.0152C23.6686 79.4126 24.4393 79.6335 25.2286 79.658C26.0178 79.6825 26.8007 79.5097 27.5064 79.1554C27.0684 80.6796 26.753 82.2739 26.4377 83.7806L25.1762 89.7024C24.9323 90.4959 24.768 91.3117 24.6857 92.1377C24.6857 92.8735 25.1762 93.0137 25.439 93.3816C25.7495 93.7622 25.9168 94.2395 25.9121 94.7306C25.9121 95.1511 25.9121 95.046 25.6843 94.8708C25.5506 94.6597 25.4501 94.4292 25.3865 94.1875C25.2463 93.7145 24.6506 94.0999 24.4754 94.7131C24.3002 95.3263 23.9323 96.2549 23.4593 96.2899C22.9862 96.325 22.8286 95.6592 23.2315 95.0635C23.6345 94.4678 23.2315 93.6444 22.8286 94.205C22.4256 94.7657 22.1278 95.081 21.7774 95.1161C21.427 95.1511 21.2693 94.7306 21.6022 94.17C22.1458 93.3991 22.8915 92.7929 23.7571 92.418C24.0725 92.2428 24.5105 91.104 24.055 91.1916C23.2178 91.4154 22.467 91.8853 21.9 92.5406C21.1806 93.1984 20.6793 94.0604 20.4634 95.011C20.3057 95.9395 20.6736 96.5352 21.1466 96.6228C21.3199 96.6316 21.493 96.6051 21.6557 96.5448C21.8183 96.4846 21.967 96.3919 22.0927 96.2724C22.0927 97.0258 22.2504 97.6565 22.741 97.7791C23.2315 97.9018 24.2477 97.1659 24.8083 96.0271C25.2638 96.6228 25.9296 96.7805 26.5603 95.4665C26.841 94.9075 26.954 94.2793 26.8856 93.6575C26.8172 93.0358 26.5704 92.4471 26.1749 91.9625C25.9997 91.7698 25.6843 91.6471 25.6843 91.2617C25.7584 90.6699 25.8755 90.0844 26.0347 89.5097C26.2975 88.2483 26.5603 86.9868 26.8056 85.7429L27.5414 82.1338C27.7806 81.1161 27.9677 80.087 28.1021 79.0502L28.8905 78.805C33.9395 77.0693 38.5871 74.3343 42.5561 70.7633C42.3108 72.5153 42.2057 74.1622 42.083 75.809C41.9429 77.8238 41.8378 79.8036 41.7326 81.8009C41.6641 82.6346 41.6641 83.4725 41.7326 84.3062C41.8378 84.8494 42.1356 84.8669 42.486 84.8494C43.1167 84.8494 43.8876 84.7443 44.238 85.4626C44.0635 85.6226 43.8353 85.7114 43.5985 85.7114C43.3617 85.7114 43.1335 85.6226 42.959 85.4626C42.6612 85.1647 41.9254 86.0758 42.0655 86.689C42.2057 87.3022 41.9604 88.2833 41.4874 88.441C41.0143 88.5987 40.9442 87.7752 41.0669 87.197C41.0669 87.197 41.0669 87.0394 41.0669 86.9518C41.0669 86.0758 40.3661 86.286 40.1383 87.0919C40.1383 87.2496 40.1383 87.3898 40.1383 87.5299C40.1383 87.6701 39.5076 88.6863 39.4025 88.5811C39.2974 88.476 39.7003 87.5124 39.8054 87.3372C40.1957 86.5342 40.7301 85.8096 41.3822 85.1998C41.9078 84.7092 41.7852 83.4478 41.2421 84.0434C40.3577 84.8781 39.6282 85.8627 39.0871 86.9518C38.5743 87.7663 38.3406 88.7257 38.4214 89.6849C38.7017 90.5434 39.4901 90.0002 40.1734 89.1067C40.3661 89.755 40.769 90.1229 41.3472 89.8951C41.8058 89.6238 42.1999 89.2561 42.5024 88.8175C42.8049 88.3789 43.0085 87.8798 43.0992 87.3547C43.5351 87.3154 43.9561 87.1765 44.3297 86.9487C44.7034 86.7209 45.0197 86.4102 45.2542 86.0407C45.4591 85.7703 45.5531 85.432 45.517 85.0946C45.4979 84.6929 45.3413 84.31 45.0733 84.0101C44.8053 83.7102 44.4423 83.5117 44.0453 83.4478C43.7124 83.4478 43.3445 83.4478 43.0291 83.4478C42.7138 83.4478 42.8014 83.4478 42.8189 83.3251C42.8364 83.2025 42.8189 82.8521 42.8189 82.6068V81.3279C42.8189 79.4357 42.9941 77.5435 43.0992 75.6514C43.2043 73.7592 43.3795 72.0072 43.3795 70.2552C45.2537 68.7064 46.8942 66.8948 48.2501 64.8766C48.4172 65.4071 48.6281 65.9228 48.8808 66.4183L49.8444 68.9412C50.4284 70.4713 51.0124 72.013 51.5964 73.5665C50.9763 74.5747 50.4877 75.658 50.1422 76.7902C49.7538 77.7024 49.6619 78.7136 49.8794 79.681C50.2999 80.6095 51.3862 79.5583 52.0694 78.2443C52.1267 78.3369 52.2046 78.4149 52.2972 78.4721C52.6301 78.6998 53.1031 78.5772 53.5236 78.1042C54.0076 77.5046 54.3168 76.7832 54.4171 76.0193C54.4523 75.7576 54.4523 75.4925 54.4171 75.2309C54.8586 75.0217 55.2477 74.7164 55.5559 74.3374C56.2375 73.5654 56.6007 72.5635 56.5721 71.5342C56.5722 71.3828 56.5373 71.2335 56.4701 71.0979C56.403 70.9623 56.3053 70.8441 56.1849 70.7524C56.0644 70.6608 55.9244 70.5983 55.7758 70.5698C55.6272 70.5413 55.474 70.5475 55.3282 70.5881C54.3564 70.8145 53.4692 71.3128 52.7702 72.0247C52.6669 72.1281 52.589 72.2541 52.5425 72.3926C51.9468 70.6406 51.3511 69.0638 50.7905 67.452C50.4926 66.6811 50.1948 65.9278 49.8794 65.1744C49.6851 64.5956 49.4327 64.038 49.1261 63.51L49.2662 63.2647C50.6518 60.3123 51.5398 57.1511 51.8942 53.909C51.8942 53.3134 51.5614 53.6988 51.4387 54.1193C50.8214 57.4498 49.7361 60.6762 48.215 63.7027C46.4472 66.2749 44.2411 68.5165 41.6976 70.3253C37.8286 73.5602 33.3565 75.9958 28.5401 77.491C26.7881 77.999 24.3528 78.8926 23.3892 76.685C22.4463 73.9373 22.3608 70.9678 23.1439 68.1703C23.9108 65.5013 25.2702 63.0399 27.121 60.9696C28.2032 59.7189 29.3742 58.5478 30.625 57.4656C30.625 57.8686 30.625 58.289 30.625 58.657C30.625 59.3052 30.625 59.9359 30.625 60.5491C30.5935 61.3789 30.7681 62.2035 31.133 62.9494C31.3433 63.2647 31.6236 63.5275 31.9915 63.2472C32.4034 62.8406 32.6737 62.3124 32.7624 61.7405C33.0427 60.5666 33.3055 59.3928 33.6559 58.2365C34.0063 57.0802 34.3918 55.7136 34.8473 54.4872C35.8771 53.845 36.9416 53.2601 38.0359 52.7352C37.7297 53.731 37.5472 54.7608 37.4928 55.8012C37.4639 56.973 37.5342 58.1452 37.703 59.3052C37.703 59.7782 37.8782 60.3038 38.3162 59.8834C38.6474 59.4536 38.8968 58.9666 39.0521 58.4467C39.455 57.2904 39.6478 56.0815 40.0157 54.9427C40.3836 53.8039 40.8216 52.6126 41.3122 51.4387C42.6793 51.017 44.0721 50.6835 45.4819 50.4401C45.6758 50.3852 45.8505 50.2775 45.9866 50.129C46.1228 49.9805 46.2149 49.797 46.2528 49.5991C46.3754 49.1611 46.2528 48.7231 45.9725 48.7582C40.2083 49.5636 34.8157 52.0708 30.4848 55.9589C27.3615 58.5442 24.8386 61.7785 23.0914 65.4372C22.1732 65.8649 21.1473 66.0054 20.148 65.8402C19.3867 65.7536 18.6647 65.4563 18.0631 64.9817C16.7491 63.8429 16.679 60.8645 17.2222 57.9737C17.6872 55.5073 18.7254 53.1848 20.2531 51.1934C21.4795 49.6692 23.7571 48.0223 24.3002 50.2123C24.3751 50.7809 24.3362 51.3587 24.1858 51.9121C24.0355 52.4655 23.7766 52.9835 23.4242 53.436C23.1089 53.8565 22.6358 54.277 22.303 54.1894C21.9701 54.1018 21.935 53.3834 22.1453 52.7878C22.3555 52.1921 21.7423 52.087 21.462 52.5425C20.5334 53.9966 20.8138 55.7311 21.7248 55.9239C22.6358 56.1166 24.2126 54.6624 25.001 52.8754C25.3447 52.1909 25.5481 51.4446 25.5993 50.6804C25.6504 49.9162 25.5483 49.1494 25.2989 48.4253C25.1714 48.1543 24.984 47.9157 24.751 47.7276C24.518 47.5395 24.2453 47.4067 23.9535 47.3393C23.6617 47.2718 23.3584 47.2714 23.0664 47.3381C22.7745 47.4049 22.5014 47.537 22.2679 47.7245C19.9027 49.056 17.6602 52.595 16.5914 56.4845C15.6103 59.9885 15.4526 64.386 17.0119 66.0504C17.7938 66.8194 18.8413 67.2584 19.9378 67.2768C20.8407 67.4289 21.7682 67.2483 22.5482 66.7687C21.9967 68.2861 21.6549 69.8717 21.5321 71.4816C21.369 73.3444 21.517 75.2213 21.9701 77.0354C20.0779 80.2241 18.3259 83.658 16.5214 87.0043C16.5214 84.6041 14.7694 84.9895 13.5955 86.6364C12.9449 87.433 12.625 88.449 12.702 89.4746C12.7505 89.7008 12.8817 89.9007 13.0699 90.0353V90.0353C12.6533 90.6428 12.4387 91.3662 12.4567 92.1026ZM38.071 55.223C38.1011 54.1971 38.2842 53.1815 38.6141 52.2096C39.3324 51.9118 40.0682 51.6314 40.8041 51.3862C40.1931 52.5492 39.6832 53.7625 39.2798 55.0128C39.0521 55.6961 38.8769 56.3969 38.6842 57.0977C38.6842 57.3955 38.5265 57.7109 38.4214 58.0087L38.2637 58.4117C38.2637 58.2365 38.2637 58.0262 38.2637 57.8861C38.2637 57.7459 38.2637 57.2904 38.2637 56.975C38.2637 56.6597 38.0534 55.8362 38.071 55.223V55.223ZM31.3258 58.0262C31.3088 57.6877 31.3088 57.3486 31.3258 57.0101C31.3258 56.8349 31.3258 56.6597 31.3258 56.4845C31.7988 56.1166 32.2543 55.7486 32.7098 55.4333L33.9888 54.5573C33.4711 55.7656 33.015 56.9994 32.6222 58.254C32.4295 58.9548 32.2368 59.6381 32.0616 60.3214L31.8514 61.2149C31.8514 61.3901 31.7638 61.5478 31.7287 61.723L31.6061 61.5653C31.5151 61.4115 31.4444 61.2466 31.3958 61.0747C31.2828 60.6155 31.2182 60.1458 31.2031 59.6731C31.3082 59.1475 31.3082 58.6219 31.3258 58.0262V58.0262ZM52.087 73.7942C52.1279 73.6571 52.1279 73.5109 52.087 73.3738C52.2264 73.2488 52.3345 73.0928 52.4023 72.9182V72.9182C53.0551 72.538 53.7486 72.2324 54.4697 72.0072C54.7675 72.0072 55.1705 71.832 55.3282 72.1649C55.4858 72.4978 55.3282 72.9358 55.0128 73.2161C54.8674 73.4099 54.6758 73.5644 54.4555 73.6653C54.2352 73.7663 53.9931 73.8106 53.7514 73.7942C53.4535 73.7942 52.7878 74.5651 52.9805 75.0557C53.1313 75.3801 53.2147 75.7318 53.2258 76.0894C53.2374 76.3686 53.1771 76.6461 53.0506 76.8953C52.7352 77.2982 52.4724 76.2996 52.3848 76.0543C52.2096 75.4586 51.3686 76.177 51.4037 76.9303C51.3351 77.3921 51.1343 77.8241 50.8255 78.1742C50.8255 78.2794 50.6328 78.4195 50.5978 78.402C50.5627 78.3845 50.5978 77.9465 50.5978 77.7888C50.9498 76.4078 51.4491 75.0687 52.087 73.7942V73.7942ZM14.489 89.4046C14.9796 89.0717 15.1198 87.7752 14.489 88.1431C14.1912 88.3534 13.5955 88.8089 13.4203 88.3359C13.2451 87.8628 13.7006 87.2846 13.9634 86.9693C14.6292 86.1984 15.3475 86.4437 15.33 87.5825C15.33 87.9854 15.5402 88.003 15.768 87.8278C15.7091 87.9601 15.6786 88.1034 15.6786 88.2482C15.6786 88.3931 15.7091 88.5364 15.768 88.6687C16.1761 89.5 16.3516 90.4263 16.2761 91.3493C16.2761 91.8924 16.1009 92.1902 15.8556 91.8223C15.6688 91.3679 15.5966 90.8746 15.6454 90.3857C15.6454 89.9302 15.2774 89.9126 15.0146 90.228C14.7518 90.5434 13.7882 91.8223 13.4554 91.1741C13.1225 90.5258 14.1211 89.6674 14.489 89.4046Z" fill="#E0E0E0"/>
<path id="Vector_16" d="M31.2732 45.8148C32.1612 46.1972 33.1318 46.3479 34.0939 46.2528C34.2698 46.2764 34.4489 46.2549 34.6143 46.1906C34.7797 46.1263 34.9262 46.0211 35.04 45.8849V45.8849C35.0993 45.8699 35.1537 45.8397 35.1977 45.7973C36.635 44.5006 37.8903 43.0155 38.9294 41.3823C39.9757 39.835 40.6475 38.0656 40.8917 36.2139C41.0318 34.5495 40.5413 33.3581 39.7003 32.9727C38.8593 32.5872 37.7381 33.0953 36.7745 34.2341C36.2451 34.8642 35.7977 35.5588 35.4429 36.3014C35.2677 36.6694 35.1276 37.0548 34.9874 37.4403C34.818 37.1525 34.5984 36.8974 34.3392 36.6869C33.9541 36.3661 33.4867 36.1597 32.9901 36.0912C31.7988 35.9686 30.3446 36.8796 29.5913 39.1572C28.5226 42.451 29.7665 45.079 31.2732 45.8148ZM30.5899 40.1734C30.6163 39.5547 30.797 38.9524 31.1155 38.4214C31.2412 38.2477 31.4075 38.1073 31.5999 38.0127C31.7923 37.918 32.0049 37.8719 32.2193 37.8783C32.6618 37.9056 33.0846 38.0711 33.4281 38.3513C33.8837 38.6491 34.2516 39.1923 34.7772 39.2448C34.7772 39.2448 34.9349 39.2448 35.0049 39.0346H35.0926C35.5376 38.3488 35.9021 37.6139 36.1788 36.8446C36.4392 36.2872 36.7753 35.7684 37.1774 35.3028C37.8607 34.5495 38.5966 34.3918 39.1397 34.7772C39.4608 35.1458 39.6786 35.5929 39.7709 36.0729C39.8633 36.553 39.8268 37.0489 39.6653 37.5103C39.3433 38.8612 38.747 40.1315 37.9133 41.2421C37.125 42.3354 36.2268 43.3452 35.2327 44.2555H35.1276C34.9524 44.2555 34.7421 44.2555 34.5669 44.2555H33.9187C32.2894 44.3081 30.2395 43.4496 30.5899 40.1734Z" fill="#E0E0E0"/>
</g>
</svg>
