<svg preserveAspectRatio="none" width="100%" height="100%" overflow="visible" style="display: block;" viewBox="0 0 68.9724 162.609" fill="none" xmlns="http://www.w3.org/2000/svg">
<g id="freepik--Lamp--inject-22">
<path id="Vector" d="M51.5989 152.885C51.6103 152.426 51.5692 151.967 51.4763 151.518C50.3695 146.489 47.4032 142.065 43.1718 139.131H25.827C21.5905 142.06 18.6227 146.487 17.5225 151.518C17.4162 151.965 17.3691 152.425 17.3823 152.885C17.3823 152.885 17.3823 153.112 17.3823 153.112C17.54 155.513 19.1343 157.878 22.3755 159.717C26.128 161.618 30.2754 162.609 34.4819 162.609C38.6884 162.609 42.8358 161.618 46.5882 159.717C49.7593 157.878 51.4062 155.513 51.5639 153.112C51.5874 153.039 51.5993 152.962 51.5989 152.885Z" fill="#263238"/>
<path id="Vector_2" d="M26.265 138.851C21.7273 141.479 21.7273 145.736 26.265 148.364C28.8134 149.66 31.6318 150.335 34.4906 150.335C37.3495 150.335 40.1679 149.66 42.7163 148.364C47.2715 145.736 47.2715 141.479 42.7163 138.851C40.1654 137.564 37.348 136.893 34.4906 136.893C31.6333 136.893 28.8158 137.564 26.265 138.851V138.851Z" fill="#37474F"/>
<path id="Vector_3" d="M36.8646 50.9006H32.1342V141.777C32.1218 142.004 32.1789 142.23 32.2978 142.424C32.4167 142.618 32.5919 142.771 32.7999 142.863C33.3196 143.122 33.8924 143.257 34.4731 143.257C35.0538 143.257 35.6266 143.122 36.1463 142.863C36.3592 142.776 36.5395 142.624 36.662 142.429C36.7845 142.235 36.8431 142.007 36.8295 141.777V141.777L36.8646 50.9006Z" fill="#263238"/>
<path id="Vector_4" d="M68.2604 48.9209L52.3523 8.36207H16.6115L0.720829 48.9209C-1.55677 55.2631 1.56179 62.1134 10.094 67.0365C23.5494 74.8154 45.3968 74.8154 58.8697 67.0365C67.4019 62.0609 70.5205 55.2105 68.2604 48.9209Z" fill="#8389BE"/>
<path id="Vector_5" opacity="0.4" d="M68.2604 48.9209L52.3523 8.36207H16.6115L0.720829 48.9209C-1.55677 55.2631 1.56179 62.1134 10.094 67.0365C23.5494 74.8154 45.3968 74.8154 58.8697 67.0365C67.4019 62.0609 70.5205 55.2105 68.2604 48.9209Z" fill="white"/>
<path id="Vector_6" d="M21.5521 18.0331C25.5628 20.0636 29.9952 21.1217 34.4906 21.1217C38.9861 21.1217 43.4184 20.0636 47.4292 18.0331C54.5773 13.8984 54.5773 7.20574 47.4292 3.08854C43.4184 1.05803 38.9861 0 34.4906 0C29.9952 0 25.5628 1.05803 21.5521 3.08854C14.4215 7.20574 14.4215 13.8809 21.5521 18.0331Z" fill="#8389BE"/>
<path id="Vector_7" opacity="0.7" d="M21.5521 18.0331C25.5628 20.0636 29.9952 21.1217 34.4906 21.1217C38.9861 21.1217 43.4184 20.0636 47.4292 18.0331C54.5773 13.8984 54.5773 7.20574 47.4292 3.08854C43.4184 1.05803 38.9861 0 34.4906 0C29.9952 0 25.5628 1.05803 21.5521 3.08854C14.4215 7.20574 14.4215 13.8809 21.5521 18.0331Z" fill="white"/>
<path id="Vector_8" d="M34.4994 18.5237C30.5975 18.611 26.7379 17.7004 23.2866 15.8781C20.6761 14.3539 19.2395 12.4793 19.2395 10.6221C19.2395 8.76503 20.6761 6.82031 23.2866 5.36615C26.7357 3.53797 30.5968 2.627 34.4994 2.72064C38.396 2.63001 42.2507 3.5409 45.6947 5.36615C48.3227 6.87287 49.7593 8.76503 49.7593 10.6221C49.7593 12.4793 48.3227 14.424 45.6947 15.8781C42.2488 17.6983 38.3955 18.6088 34.4994 18.5237V18.5237Z" fill="#8389BE"/>
</g>
</svg>
