<svg preserveAspectRatio="none" width="100%" height="100%" overflow="visible" style="display: block;" viewBox="0 0 250.551 301.118" fill="none" xmlns="http://www.w3.org/2000/svg">
<g id="freepik--character--inject-22">
<g id="freepik--top--inject-22">
<path id="Vector" d="M79.9613 73.8307C86.9693 73.8307 92.1377 75.0046 96.4826 78.8414C100.828 82.6783 102.632 86.6028 105.733 97.8156C108.291 107.014 110.569 114.144 110.569 114.144L126.126 129.912L109.885 138.287C105.732 136.096 101.718 133.65 97.8667 130.963C91.8398 126.724 88.914 124.236 87.7927 120.171C86.6714 116.106 79.9613 73.8307 79.9613 73.8307Z" fill="#C8856A"/>
<path id="Vector_2" d="M98.988 80.7336C93.9072 74.8469 89.9827 73.2175 79.4882 73.0248L84.2186 109.624C89.1339 111.026 94.3152 111.218 99.3209 110.185C106.907 108.345 108.589 105.244 108.589 105.244C108.589 105.244 104.051 86.6203 98.988 80.7336Z" fill="#37474F"/>
<path id="Vector_3" d="M83.5704 104.613L83.8682 106.891C84.7442 106.891 85.6202 107.031 86.5663 107.031C93.9383 107.138 101.216 105.366 107.713 101.88C107.52 101.25 107.328 100.531 107.1 99.7778C99.9612 103.826 91.727 105.518 83.5704 104.613V104.613Z" fill="#8389BE"/>
<g id="freepik--Chest--inject-22">
<path id="Vector_4" d="M79.9613 214.026L157.049 169.087C157.049 169.087 143.419 158.312 137.287 154.072C131.155 149.832 112.846 138.304 105.943 135.431C103.992 131.154 101.583 127.101 98.7602 123.342C97.6214 112.375 97.5864 108.258 96.3775 97.5002C95.2737 87.7591 92.6107 75.0046 79.5583 72.9722C79.5583 72.9722 58.7971 72.7094 50.37 75.3725C40.6639 78.4209 36.2138 80.3131 36.2138 80.3131C33.6304 82.5865 31.5254 85.3513 30.0214 88.4465C28.5175 91.5417 27.6446 94.9053 27.4538 98.3412C26.8238 117.115 27.544 135.91 29.6088 154.58V154.58C29.6088 154.58 29.6088 170.962 36.8971 182.84C41.9429 191.075 53.436 199.502 63.6852 205.423" fill="#455A64"/>
<path id="Vector_5" d="M48.4603 74.7242L41.6801 78.2282C46.0256 85.1787 52.5865 90.462 60.3038 93.2254C73.549 98.201 78.0691 91.7887 78.0691 91.7887C78.0691 91.7887 83.4302 92.5421 84.5515 87.4262C86.1458 80.3131 77.0004 72.9722 77.0004 72.9722L48.4603 74.7242Z" fill="#8389BE"/>
<path id="Vector_6" opacity="0.2" d="M48.4603 74.7242L41.6801 78.2282C46.0256 85.1787 52.5865 90.462 60.3038 93.2254C73.549 98.201 78.0691 91.7887 78.0691 91.7887C78.0691 91.7887 83.4302 92.5421 84.5515 87.4262C86.1458 80.3131 77.0004 72.9722 77.0004 72.9722L48.4603 74.7242Z" fill="black"/>
<path id="Vector_7" opacity="0.15" d="M74.0921 195.928C85.6728 196.05 96.5001 185.416 87.9504 183.541C77.4384 181.141 71.9371 178.793 75.1082 178.513L72.6204 171.575C69.5556 171.321 66.5748 170.445 63.8604 168.999C54.5047 161.676 44.1329 146.136 44.1329 146.136C44.1329 146.136 45.9725 114.022 45.2542 103.107C44.5358 92.1917 36.1613 84.4653 36.1613 84.4653C34.2892 85.0523 32.4859 85.8394 30.7826 86.813C30.5899 87.1459 30.3972 87.4788 30.222 87.8117L30.0993 88.0219C29.9417 88.3197 29.8015 88.6351 29.6438 88.9505L29.4686 89.3359C29.346 89.6162 29.2058 89.9141 29.0832 90.2294C28.9605 90.5448 28.943 90.5798 28.8905 90.755L28.5751 91.6135L28.3649 92.2968C28.3649 92.5771 28.2072 92.8399 28.1371 93.1202L27.9269 93.9787L27.7692 94.7496C27.7692 95.1 27.6465 95.4854 27.594 95.8533L27.4889 96.4841C27.4889 97.0797 27.3662 97.6929 27.3312 98.3412C26.7011 117.115 27.4213 135.91 29.4862 154.58V154.58C29.5839 158.702 30.053 162.807 30.8878 166.844C39.0083 174.737 47.7432 181.973 57.0101 188.482C64.0181 193.545 69.2741 195.875 74.0921 195.928Z" fill="black"/>
<path id="Vector_8" d="M80.4869 98.1134C80.4869 98.3525 80.416 98.5862 80.2831 98.785C80.1503 98.9838 79.9615 99.1388 79.7406 99.2303C79.5197 99.3218 79.2767 99.3457 79.0422 99.2991C78.8077 99.2524 78.5923 99.1373 78.4232 98.9682C78.2541 98.7992 78.139 98.5838 78.0923 98.3493C78.0457 98.1148 78.0696 97.8717 78.1611 97.6508C78.2526 97.4299 78.4076 97.2411 78.6064 97.1083C78.8052 96.9755 79.0389 96.9046 79.278 96.9046C79.5986 96.9046 79.9061 97.0319 80.1328 97.2586C80.3595 97.4853 80.4869 97.7928 80.4869 98.1134Z" fill="#8389BE"/>
<path id="Vector_9" d="M81.6958 105.822C81.6958 106.061 81.6249 106.295 81.492 106.494C81.3592 106.693 81.1704 106.848 80.9495 106.939C80.7286 107.031 80.4855 107.055 80.251 107.008C80.0165 106.961 79.8011 106.846 79.6321 106.677C79.463 106.508 79.3479 106.293 79.3012 106.058C79.2546 105.824 79.2785 105.581 79.37 105.36C79.4615 105.139 79.6165 104.95 79.8153 104.817C80.0141 104.684 80.2478 104.613 80.4869 104.613C80.8075 104.613 81.115 104.741 81.3417 104.967C81.5684 105.194 81.6958 105.502 81.6958 105.822V105.822Z" fill="#8389BE"/>
<path id="Vector_10" d="M82.4491 113.636C82.4491 113.875 82.3782 114.109 82.2454 114.308C82.1125 114.507 81.9237 114.662 81.7029 114.753C81.482 114.844 81.2389 114.868 81.0044 114.822C80.7699 114.775 80.5545 114.66 80.3854 114.491C80.2164 114.322 80.1012 114.106 80.0546 113.872C80.0079 113.637 80.0319 113.394 80.1234 113.174C80.2149 112.953 80.3698 112.764 80.5686 112.631C80.7674 112.498 81.0011 112.427 81.2402 112.427C81.5608 112.427 81.8683 112.555 82.095 112.781C82.3217 113.008 82.4491 113.316 82.4491 113.636Z" fill="#8389BE"/>
</g>
<path id="Vector_11" d="M51.246 67.471C49.6819 67.5129 48.1431 67.8767 46.7258 68.5397C44.5502 69.3024 42.1787 69.2958 40.0074 68.521C37.836 67.7462 35.9961 66.2501 34.7947 64.2823C33.9027 65.0201 32.7812 65.4238 31.6236 65.4238C30.466 65.4238 29.3445 65.0201 28.4525 64.2823C27.5942 63.5043 26.9349 62.5321 26.5295 61.4469C26.1241 60.3618 25.9845 59.1953 26.1223 58.0452C25.5082 58.9605 25.2814 60.0817 25.4916 61.1638C24.0326 60.6946 22.7575 59.7795 21.846 58.5474C20.9345 57.3154 20.4325 55.8284 20.4108 54.2959C20.4336 51.2211 21.4202 48.2309 23.2315 45.7461C24.0273 44.6663 24.6809 43.4887 25.1762 42.2421C25.5861 40.0831 25.5861 37.8662 25.1762 35.7072C25.0711 33.7625 24.5806 24.7046 31.3783 21.3583C32.915 15.1733 36.7324 9.79766 42.0655 6.30863C55.3106 -1.83817 63.0895 -0.699362 73.3387 2.01624C78.7874 3.45288 83.4478 4.18872 90.0878 9.5148C93.0067 11.9391 95.3131 15.0173 96.8198 18.4996C98.3266 21.9819 98.9914 25.7704 98.7602 29.5577C98.6499 32.4258 97.6726 35.1931 95.957 37.4942C95.3088 38.3352 94.8007 38.9659 95.2738 40.0872C95.6551 40.8153 96.1725 41.4636 96.798 41.9969C98.1435 43.2368 99.2794 44.6864 100.162 46.2893C101.036 48.0983 101.497 50.0792 101.511 52.0884C101.578 53.4763 101.37 54.8637 100.898 56.1706C100.423 57.4777 99.4888 58.5674 98.2697 59.2366C98.411 58.006 98.1132 56.765 97.4287 55.7326C97.7283 57.1881 97.5489 58.7016 96.9174 60.0468C96.2858 61.392 95.236 62.4968 93.9247 63.1961C92.6011 63.8614 91.1433 64.2167 89.662 64.2349C88.1806 64.2531 86.7146 63.9338 85.375 63.3012C85.8655 63.529 82.7645 66.4898 82.4491 66.6826C81.0031 67.4451 79.3883 67.8307 77.7538 67.8038C74.2001 67.9523 70.7313 66.6932 68.1002 64.2998C67.2328 65.5424 66.1285 66.6015 64.8507 67.4163C63.5729 68.231 62.1468 68.7855 60.6542 69.0478C57.7109 69.5558 55.3982 68.5047 52.7177 67.7513C52.2393 67.6023 51.7456 67.5083 51.246 67.471V67.471Z" fill="#263238"/>
<path id="Vector_12" d="M91.5245 29.3299C91.4133 27.5108 90.726 25.7743 89.5622 24.3717C88.2471 23.441 86.7923 22.7254 85.2523 22.2518C83.4184 21.4736 81.7163 20.4156 80.2066 19.1157C80.5208 20.5446 81.1164 21.8965 81.9586 23.0928C82.8923 24.3011 84.1411 25.2287 85.5677 25.7733C83.6016 26.9222 81.4489 27.7168 79.2079 28.121C76.3411 28.4806 73.433 28.3203 70.6231 27.648C67.5092 26.8973 64.6795 25.2603 62.4763 22.9351C62.7416 24.7004 63.6609 26.3013 65.0518 27.4202C66.4395 28.5054 67.9581 29.4119 69.5719 30.1183C67.836 30.8488 65.9716 31.2251 64.0882 31.2251C62.2048 31.2251 60.3404 30.8488 58.6044 30.1183C57.1653 29.6438 55.8385 28.8799 54.7056 27.8736C53.5727 26.8673 52.6577 25.6398 52.0169 24.2666C52.0169 25.0901 52.4724 28.1911 52.4374 29.0146C52.4216 30.3824 52.2032 31.7404 51.7891 33.0441C50.7846 36.3253 48.8857 39.2617 46.3054 41.5238C46.9358 43.1629 47.1641 44.9292 46.9711 46.6747C46.9409 47.2304 46.7787 47.7709 46.4981 48.2515C46.4082 48.3705 46.3086 48.4819 46.2002 48.5844C44.5709 50.021 44.1154 46.8324 42.0305 45.0804C41.4638 44.6156 40.7972 44.2884 40.0829 44.1242C39.3686 43.9601 38.626 43.9635 37.9133 44.1343C36.7304 44.2694 35.6143 44.7529 34.7066 45.5233C33.7989 46.2938 33.1405 47.3165 32.815 48.4617C31.571 52.5614 34.8123 58.9738 40.1033 60.1126C47.1113 61.6543 47.9172 56.7312 47.9172 56.7312L48.583 77.2997C56.5453 85.298 66.9201 90.4515 78.1042 91.9639C79.3656 84.1149 77.8239 79.5948 76.8953 77.4398V69.8011C80.0465 69.3583 83.1087 68.4242 85.9706 67.033C88.7784 65.502 91.0977 63.2106 92.6627 60.4217C94.2276 57.6327 94.9747 54.4591 94.8182 51.265C94.6606 45.8162 93.0663 42.6802 92.3655 38.0724C91.8924 35.1466 91.8574 31.0994 91.5245 29.3299Z" fill="#C8856A"/>
<path id="Vector_13" d="M76.8252 69.6785C70.7107 70.2216 66.3132 70.5194 58.727 67.103C55.5449 65.4952 52.9019 62.9923 51.1233 59.9023C51.1233 59.9023 53.436 66.4898 56.5546 68.9952C64.7014 75.5652 76.8427 73.3577 76.8427 73.3577L76.8252 69.6785Z" fill="#AF6152"/>
<path id="Vector_14" d="M64.7364 34.5684L58.5869 38.0724C58.1111 37.2332 57.9822 36.2413 58.2277 35.3084C58.4732 34.3755 59.0737 33.5755 59.9009 33.0792C60.3139 32.8493 60.7692 32.7053 61.2393 32.656C61.7094 32.6067 62.1846 32.6529 62.6364 32.7921C63.0881 32.9312 63.5071 33.1603 63.868 33.4656C64.2289 33.7708 64.5243 34.146 64.7364 34.5684Z" fill="#263238"/>
<path id="Vector_15" d="M64.0181 42.067C64.1083 42.6385 64.3659 43.1705 64.7584 43.5956C65.1509 44.0208 65.6607 44.32 66.2232 44.4555C66.7857 44.5909 67.3758 44.5565 67.9188 44.3567C68.4618 44.1568 68.9334 43.8004 69.2739 43.3326C69.6143 42.8647 69.8084 42.3064 69.8316 41.7283C69.8549 41.1501 69.7061 40.578 69.4042 40.0844C69.1023 39.5908 68.6608 39.1978 68.1356 38.955C67.6104 38.7123 67.0249 38.6307 66.4533 38.7206C66.0727 38.7782 65.7072 38.9107 65.3782 39.1106C65.0491 39.3105 64.7631 39.5737 64.5365 39.885C64.31 40.1962 64.1475 40.5494 64.0585 40.924C63.9695 41.2985 63.9558 41.687 64.0181 42.067V42.067Z" fill="#263238"/>
<path id="Vector_16" d="M82.6068 38.16C82.7002 38.7302 82.9604 39.2599 83.3545 39.6824C83.7485 40.1049 84.2589 40.4014 84.8211 40.5343C85.3834 40.6672 85.9724 40.6306 86.514 40.4292C87.0555 40.2278 87.5253 39.8706 87.8641 39.4026C88.2029 38.9346 88.3956 38.3768 88.4178 37.7995C88.44 37.2221 88.2909 36.6511 87.989 36.1585C87.6872 35.6658 87.2463 35.2735 86.7218 35.031C86.1974 34.7886 85.6129 34.7069 85.0421 34.7961C84.6607 34.8558 84.2949 34.9903 83.9657 35.192C83.6365 35.3936 83.3505 35.6584 83.1242 35.9711C82.8978 36.2838 82.7356 36.6382 82.6468 37.0138C82.558 37.3895 82.5444 37.7791 82.6068 38.16V38.16Z" fill="#263238"/>
<path id="Vector_17" d="M88.5461 31.7126L81.5381 30.4687C81.6042 30.0079 81.7615 29.5649 82.0008 29.1655C82.2401 28.7662 82.5566 28.4186 82.9317 28.1429C83.3069 27.8673 83.7332 27.6691 84.1858 27.5601C84.6384 27.451 85.1081 27.4333 85.5677 27.5078C86.5074 27.6953 87.3398 28.2355 87.8937 29.0175C88.4476 29.7995 88.681 30.7639 88.5461 31.7126V31.7126Z" fill="#263238"/>
<path id="Vector_18" d="M70.4654 53.2447L79.2254 54.6288C79.1662 55.1995 78.9909 55.7521 78.7101 56.2525C78.4293 56.7529 78.0491 57.1905 77.5928 57.5385C77.1366 57.8864 76.6139 58.1373 76.0571 58.2756C75.5002 58.414 74.9209 58.4369 74.3549 58.343C73.1734 58.1606 72.1084 57.5278 71.3832 56.5773C70.6581 55.6268 70.3292 54.4325 70.4654 53.2447V53.2447Z" fill="#AF6152"/>
<path id="Vector_19" d="M72.1649 54.9441C72.5435 54.8817 72.9308 54.8948 73.3043 54.9827C73.6779 55.0706 74.0304 55.2316 74.3414 55.4563C74.6525 55.6811 74.916 55.9651 75.1168 56.2922C75.3175 56.6193 75.4516 56.9828 75.5112 57.3619C75.5642 57.6868 75.5642 58.0181 75.5112 58.343C75.1106 58.4044 74.703 58.4044 74.3023 58.343C73.5297 58.2148 72.8024 57.8917 72.1893 57.4043C71.5762 56.9169 71.0975 56.2812 70.7983 55.5574C71.1916 55.2357 71.6632 55.0241 72.1649 54.9441V54.9441Z" fill="#F28F8F"/>
<path id="Vector_20" d="M75.9842 38.0549L78.9977 49.8809L86.1108 46.6922L75.9842 38.0549Z" fill="#AF6152"/>
<path id="Vector_21" d="M55.6786 210.119C61.9858 206.475 58.0613 189.778 75.0732 174.431C92.0851 159.083 109.447 152.11 119.486 150.218C129.525 148.326 131.26 150.218 131.26 150.218C131.26 150.218 189.076 186.922 201.725 195.77C214.375 204.618 240.76 203.899 248.083 208.559C255.407 213.22 233.787 218.02 225.097 227.201C216.407 236.381 101.931 301.118 101.931 301.118L2.50244e-06 242.321L55.6786 210.119Z" fill="#8389BE"/>
<path id="Vector_22" opacity="0.2" d="M55.6786 210.119C61.9858 206.475 58.0613 189.778 75.0732 174.431C92.0851 159.083 109.447 152.11 119.486 150.218C129.525 148.326 131.26 150.218 131.26 150.218C131.26 150.218 189.076 186.922 201.725 195.77C214.375 204.618 240.76 203.899 248.083 208.559C255.407 213.22 233.787 218.02 225.097 227.201C216.407 236.381 101.931 301.118 101.931 301.118L2.50244e-06 242.321L55.6786 210.119Z" fill="black"/>
<path id="Vector_23" d="M248.083 208.367C240.76 203.706 214.287 204.372 201.725 195.577C189.163 186.782 131.26 150.025 131.26 150.025C131.26 150.025 130.314 149.009 125.811 149.219C134.834 154.826 173.343 178.863 186.816 188.009C202.006 198.328 205.159 200.973 210.906 202.392C216.652 203.812 233.594 206.352 240.182 207.508C246.769 208.665 251.78 209.068 249.73 216.531C251.079 213.167 250.921 210.206 248.083 208.367Z" fill="#8389BE"/>
<path id="Vector_24" opacity="0.1" d="M177.372 211.03C181.342 213.398 185.436 215.55 189.636 217.477C194.413 219.544 199.346 221.232 204.388 222.523C209.795 223.669 215.076 225.342 220.156 227.516C221.212 227.931 222.142 228.613 222.854 229.496C223.305 230.425 223.484 231.463 223.369 232.489C223.254 233.516 222.851 234.488 222.206 235.295C221.026 236.969 219.603 238.457 217.984 239.71C214.133 242.538 210.061 245.051 205.807 247.226C201.865 249.612 197.498 251.213 192.948 251.939C192.088 252.158 191.18 252.077 190.372 251.711C187.639 250.134 192.124 246.911 193.386 246.087C197.556 243.232 202.496 241.462 206.088 237.905C207.256 236.888 208.031 235.493 208.278 233.963C208.523 230.6 204.161 230.004 201.813 229.075C198.309 227.744 195.05 226.255 191.739 224.643C185.288 221.49 179.018 217.98 172.957 214.131C159.304 205.511 145.942 196.465 132.872 186.992C131.996 186.362 122.92 179.984 125.163 178.583C125.916 178.127 129.175 180.72 129.841 181.106C132.258 182.525 134.378 184.277 136.709 185.801C139.915 187.921 143.103 190.058 146.345 192.143C156.518 198.661 166.86 204.956 177.372 211.03Z" fill="black"/>
<path id="Vector_25" opacity="0.2" d="M85.9531 242.233L43.0116 266.989L38.2286 264.238L87.4774 235.838C99.2157 229.058 96.798 218.704 99.4085 210.382C102.019 202.06 115.054 190.812 128.264 182.174C141.474 173.537 154.684 169.613 163.304 170.594L166.51 172.608C155.91 173.607 145.679 174.361 130.647 184.575C115.614 194.789 103.263 205.984 102.142 212.607C100.652 221.507 101.476 232.895 85.9531 242.233Z" fill="black"/>
<path id="Vector_26" d="M87.9329 179.371C77.4209 176.971 71.9196 174.623 75.0732 174.343C77.0529 174.168 83.9733 174.22 83.8332 171.522C83.693 168.824 77.7187 168.176 72.5328 167.458C69.4669 167.21 66.4849 166.333 63.7728 164.882C54.4171 157.559 42.6787 141.178 42.6787 141.178C42.6787 141.178 45.9725 109.904 45.2542 98.9894C44.5358 88.0745 35.6182 80.9964 35.6182 80.9964C23.5819 84.7982 21.0766 92.6647 20.551 102.458L18.9041 133.118C19.0968 141.178 19.3596 145.382 24.9835 153.284C33.9069 165.324 44.7226 175.838 57.0101 184.417C64.0181 189.375 69.2741 191.705 74.057 191.758C85.6553 191.88 96.4651 181.333 87.9329 179.371Z" fill="#C8856A"/>
<path id="Vector_27" d="M36.1438 80.3657C27.9795 83.3441 22.5307 86.5327 20.8838 95.5906C19.237 104.648 18.2033 118.664 18.2033 118.664C18.2033 118.664 20.1655 122.063 29.1182 123.71C34.4549 124.703 39.9195 124.804 45.2892 124.008C45.2892 124.008 46.3053 106.821 46.3053 101.617C46.3053 96.414 46.4806 85.6042 36.1438 80.3657Z" fill="#37474F"/>
<path id="Vector_28" d="M18.8165 111.586C18.7289 112.497 18.6588 113.338 18.5887 114.109C23.652 117.193 30.8527 118.875 39.1222 118.875C41.2878 118.863 43.4514 118.74 45.6046 118.507C45.6046 117.788 45.6045 117.035 45.7272 116.264C34.6545 117.438 24.7207 115.704 18.8165 111.586Z" fill="#8389BE"/>
</g>
<path id="Vector_29" d="M137.392 144.752C136.183 140.091 132.626 135.554 126.126 129.982L109.956 137.411C111.445 138.672 111.129 145.61 111.708 148.904C112.636 154.037 113.565 159.416 116 158.925C118.435 158.435 119.504 150.165 119.504 150.165C121.414 151.129 123.569 153.985 127.458 159.766C132.329 167.002 140.265 155.947 137.392 144.752Z" fill="#C8856A"/>
</g>
</svg>
