<svg preserveAspectRatio="none" width="100%" height="100%" overflow="visible" style="display: block;" viewBox="0 0 14.6538 14.0292" fill="none" xmlns="http://www.w3.org/2000/svg">
<g id="freepik--Pills--inject-22">
<path id="Vector" d="M8.88968 2.06748C8.89685 1.99173 8.89685 1.91551 8.88968 1.83976C8.85934 1.76939 8.81794 1.7043 8.76704 1.64701C8.58434 1.36753 8.34572 1.12893 8.06624 0.946224V1.66455L7.45304 1.31413V0.578319C6.51307 0.173318 5.4958 -0.0208893 4.47274 0.00937879C3.44967 0.0396469 2.44565 0.293613 1.53127 0.753476C0.980616 1.02815 0.550316 1.49588 0.322402 2.06748V2.19013C0.313748 2.31262 0.313748 2.43555 0.322402 2.55803V3.99469C0.330253 4.33995 0.439968 4.67522 0.637762 4.95832C0.898898 5.30746 1.23391 5.59458 1.61888 5.79924C2.58473 6.29149 3.65338 6.54815 4.73744 6.54815C5.82149 6.54815 6.89014 6.29149 7.85599 5.79924C8.20832 5.64882 8.51418 5.40721 8.74206 5.09926C8.96994 4.79131 9.11162 4.42815 9.15248 4.04724V2.61065C9.1122 2.4103 9.02178 2.22339 8.88968 2.06748V2.06748Z" fill="#F0F0F0"/>
<path id="Vector_2" d="M5.94632 0.14031C4.41939 -0.173553 2.83107 0.0427121 1.44368 0.753468C0.893024 1.02814 0.462711 1.49587 0.234796 2.06747V2.19012C0.226143 2.31261 0.226143 2.43554 0.234796 2.55803V3.99468C0.242647 4.33994 0.352363 4.67521 0.550157 4.95831C0.811292 5.30745 1.14631 5.59457 1.53127 5.79924C2.91561 6.51968 4.50734 6.73646 6.03391 6.41245L5.94632 0.14031Z" fill="#E6E6E6"/>
<path id="Vector_3" d="M1.44369 0.753477C-0.185667 1.68204 -0.308304 3.17126 1.14586 4.1699L7.36545 0.665898C6.43183 0.247335 5.41789 0.0383025 4.39486 0.0534361C3.37182 0.0685698 2.36452 0.307481 1.44369 0.753477V0.753477Z" fill="#F5F5F5"/>
<path id="Vector_4" d="M1.14585 3.80197C1.14585 3.80197 -0.606163 2.47043 1.33856 0.823554C0.973665 0.912163 0.646907 1.11565 0.40643 1.40404C0.165953 1.69243 0.0244925 2.05049 0.00290279 2.42537C-0.0186869 2.80024 0.080725 3.17211 0.286504 3.4862C0.492283 3.80029 0.793542 4.03997 1.14585 4.16988L7.36544 0.66588L1.14585 3.80197Z" fill="white"/>
<path id="Vector_5" d="M7.97864 0.946206L1.75905 4.55532C2.69902 4.96032 3.71629 5.15453 4.73935 5.12426C5.76241 5.09399 6.76642 4.83997 7.6808 4.38011C9.31016 3.43403 9.39776 1.94485 7.97864 0.946206Z" fill="#F5F5F5"/>
<path id="Vector_6" d="M1.75905 4.55532C2.69902 4.96032 3.71629 5.15453 4.73935 5.12426C5.76241 5.09399 6.76642 4.83998 7.6808 4.38011C7.86225 4.28189 8.0326 4.16445 8.18888 4.02974C7.31942 4.50288 6.36079 4.78932 5.37429 4.87078C4.38778 4.95223 3.39514 4.82688 2.45985 4.50276L7.97864 0.998764L1.75905 4.55532Z" fill="white"/>
<path id="Vector_7" d="M7.36544 1.29663L1.14585 4.90574V4.16988L7.36544 0.578301V1.29663Z" fill="#E0E0E0"/>
<path id="Vector_8" opacity="0.2" d="M1.75905 4.53779L1.77656 5.27365L1.14585 4.90574L1.75905 4.53779Z" fill="black"/>
<path id="Vector_9" d="M14.4961 9.51348L14.391 9.28576L14.2859 9.09301C14.0914 8.81734 13.8479 8.5798 13.5675 8.39222V9.11055L12.9543 8.76013V8.05934C12.0144 7.65434 10.9971 7.46013 9.97402 7.4904C8.95096 7.52067 7.94694 7.77469 7.03256 8.23455C6.4819 8.50923 6.05161 8.97695 5.82369 9.54855C5.81794 9.58923 5.81794 9.63053 5.82369 9.6712C5.80667 9.79325 5.80667 9.91706 5.82369 10.0391V11.4758C5.83154 11.821 5.94126 12.1562 6.13905 12.4393C6.40019 12.7885 6.7352 13.0757 7.12017 13.2803C8.08602 13.7726 9.15467 14.0292 10.2387 14.0292C11.3228 14.0292 12.3914 13.7726 13.3573 13.2803C13.7096 13.1299 14.0155 12.8882 14.2433 12.5803C14.4712 12.2723 14.6129 11.9092 14.6538 11.5283V10.0917C14.6387 9.89064 14.5851 9.69434 14.4961 9.51348V9.51348Z" fill="#F0F0F0"/>
<path id="Vector_10" d="M11.5352 7.58631C10.0083 7.27245 8.41995 7.48871 7.03256 8.19947C6.4819 8.47414 6.05161 8.94187 5.82369 9.51347C5.81794 9.55415 5.81794 9.59544 5.82369 9.63612C5.80667 9.75817 5.80667 9.88198 5.82369 10.004V11.4407C5.83154 11.7859 5.94126 12.1212 6.13905 12.4043C6.40019 12.7534 6.7352 13.0406 7.12017 13.2452C8.50756 13.956 10.0959 14.1723 11.6228 13.8584L11.5352 7.58631Z" fill="#E6E6E6"/>
<path id="Vector_11" d="M7.03256 8.19948C5.4032 9.12804 5.28057 10.6173 6.73473 11.6159L12.9543 8.1119C12.0207 7.69333 11.0068 7.4843 9.98374 7.49944C8.96071 7.51457 7.95339 7.75348 7.03256 8.19948V8.19948Z" fill="#F5F5F5"/>
<path id="Vector_12" d="M6.73472 11.248C6.73472 11.248 4.98272 9.91643 6.92744 8.26955C6.58078 8.37111 6.27398 8.57732 6.04906 8.85999C5.82414 9.14265 5.69208 9.48797 5.67098 9.84859C5.64988 10.2092 5.74077 10.5675 5.93119 10.8745C6.12162 11.1814 6.40227 11.422 6.73472 11.5633L12.9543 8.05932L6.73472 11.248Z" fill="white"/>
<path id="Vector_13" d="M13.5675 8.39221L7.36544 11.9838C8.30301 12.3861 9.31713 12.5789 10.3369 12.5487C11.3567 12.5184 12.3576 12.2659 13.2697 11.8086C14.899 10.8801 14.9866 9.39085 13.5675 8.39221Z" fill="#F5F5F5"/>
<path id="Vector_14" d="M7.36544 11.9838C8.30301 12.3861 9.31713 12.5789 10.3369 12.5487C11.3567 12.5184 12.3576 12.2659 13.2697 11.8086C13.4541 11.7062 13.6298 11.589 13.7953 11.4582C12.9224 11.9308 11.9609 12.2168 10.9717 12.2982C9.98246 12.3797 8.98711 12.2547 8.04872 11.9312L13.5675 8.42723L7.36544 11.9838Z" fill="white"/>
<path id="Vector_15" d="M12.9543 8.74263L6.73472 12.3517V11.6159L12.9543 8.0243V8.74263Z" fill="#E0E0E0"/>
<path id="Vector_16" opacity="0.2" d="M7.36544 11.9838V12.7196L6.73472 12.3517L7.36544 11.9838Z" fill="black"/>
</g>
</svg>
