<svg preserveAspectRatio="none" width="100%" height="100%" overflow="visible" style="display: block;" viewBox="0 0 24.2652 36.5855" fill="none" xmlns="http://www.w3.org/2000/svg">
<g id="freepik--pill-bottle--inject-22">
<path id="Vector" opacity="0.1" d="M20.7174 34.5366C18.0562 35.8836 15.1153 36.5855 12.1326 36.5855C9.14989 36.5855 6.20902 35.8836 3.5478 34.5366C-1.1826 31.8034 -1.1826 27.3709 3.5478 24.6202C6.20902 23.2732 9.14989 22.5713 12.1326 22.5713C15.1153 22.5713 18.0562 23.2732 20.7174 24.6202C25.4478 27.3183 25.4478 31.8034 20.7174 34.5366Z" fill="black"/>
<path id="Vector_2" d="M2.16372 11.1649C2.25543 10.2507 2.58517 9.37654 3.12005 8.62954C3.65494 7.88254 4.37631 7.28883 5.21221 6.90754C7.49922 5.74157 10.0298 5.13367 12.5969 5.13367C15.164 5.13367 17.6946 5.74157 19.9816 6.90754C20.8175 7.28883 21.5388 7.88254 22.0737 8.62954C22.6086 9.37654 22.9383 10.2507 23.03 11.1649V11.1649V28.9127C22.9383 29.8268 22.6086 30.701 22.0737 31.448C21.5388 32.195 20.8175 32.7887 19.9816 33.17C17.6921 34.3278 15.1625 34.9311 12.5969 34.9311C10.0313 34.9311 7.50168 34.3278 5.21221 33.17C4.36989 32.7977 3.64279 32.2064 3.10663 31.4576C2.57048 30.7088 2.24486 29.83 2.16372 28.9127V11.1649Z" fill="#8389BE"/>
<path id="Vector_3" opacity="0.4" d="M6.1758 6.41698V33.6606C5.84292 33.5029 5.51005 33.3452 5.21221 33.17C4.57371 32.8309 3.98431 32.4065 3.46021 31.9086V8.15144C3.98981 7.66507 4.57842 7.24717 5.21221 6.90754C5.51005 6.73234 5.84292 6.57466 6.1758 6.41698Z" fill="white"/>
<path id="Vector_4" opacity="0.4" d="M8.90893 34.5366C8.39938 34.4313 7.8963 34.2967 7.40221 34.1336V5.94391C7.89277 5.78623 8.38333 5.64608 8.90893 5.52344V34.5366Z" fill="white"/>
<path id="Vector_5" opacity="0.1" d="M2.33893 10.0437C2.98716 9.17982 3.8112 8.46324 4.75668 7.94124C7.0295 6.79377 9.5251 6.15542 12.0697 6.0707C14.6144 5.98598 17.1469 6.45692 19.491 7.45068V6.64477C19.6487 6.73237 19.8239 6.80244 19.9816 6.90756C20.8175 7.28885 21.5388 7.88257 22.0737 8.62957C22.6086 9.37657 22.9383 10.2507 23.03 11.1649V15.247V23.061V28.9127C22.9383 29.8268 22.6086 30.701 22.0737 31.448C21.5388 32.195 20.8175 32.7887 19.9816 33.17C17.6921 34.3278 15.1625 34.9311 12.5969 34.9311C10.0313 34.9311 7.50168 34.3278 5.21221 33.17C4.519 32.7883 3.8919 32.2973 3.35508 31.7159C5.2998 33.4679 10.1178 34.5191 13.7094 33.8183C17.301 33.1175 19.491 30.8224 19.491 29.193V27.6162C17.2415 28.7209 14.761 29.2734 12.2552 29.228V21.2739C14.7514 21.3616 17.2323 20.851 19.491 19.7848V17.4546C17.1482 18.451 14.6163 18.9249 12.0717 18.8432C9.52703 18.7615 7.03078 18.1262 4.75668 16.9816C3.69943 16.4112 2.80653 15.5786 2.16372 14.5638V11.1649C2.1608 10.7841 2.21999 10.4054 2.33893 10.0437V10.0437Z" fill="black"/>
<path id="Vector_6" opacity="0.1" d="M21.278 29.6485V7.81856C21.7985 8.21286 22.2255 8.71731 22.5283 9.29579C22.8312 9.87427 23.0025 10.5125 23.03 11.1649V28.9127C22.9383 29.8268 22.6086 30.701 22.0737 31.448C21.5388 32.195 20.8175 32.7887 19.9816 33.17C18.7427 33.8581 17.3991 34.3375 16.0045 34.5891C19.929 33.5379 21.278 30.8223 21.278 29.6485Z" fill="black"/>
<path id="Vector_7" d="M1.51549 6.39944C1.60539 5.42597 1.95307 4.49406 2.52275 3.69958C3.09243 2.90511 3.86353 2.2768 4.75669 1.87931C7.18241 0.643969 9.86596 2.80762e-06 12.5881 2.80762e-06C15.3103 2.80762e-06 17.9938 0.643969 20.4196 1.87931C21.3149 2.27374 22.088 2.90119 22.6581 3.69627C23.2282 4.49135 23.5745 5.4249 23.6608 6.39944V6.39944V11.305C23.571 12.2809 23.2214 13.215 22.6483 14.0099C22.0752 14.8049 21.2996 15.4317 20.402 15.8252C17.9739 17.0524 15.2913 17.6917 12.5706 17.6917C9.84994 17.6917 7.16734 17.0524 4.73916 15.8252C3.84708 15.4262 3.07695 14.7975 2.50749 14.0033C1.93802 13.2092 1.58964 12.278 1.49797 11.305V11.305V6.39944H1.51549Z" fill="#E0E0E0"/>
<path id="Vector_8" opacity="0.1" d="M9.89005 17.5071C15.3738 17.5071 18.2646 15.7551 19.1406 14.301C19.8 12.6625 20.0699 10.8932 19.929 9.13256C19.929 9.13256 20.5948 4.54233 20.402 4.54233C20.2093 4.54233 21.716 4.22697 22.7848 3.99921C23.2991 4.70127 23.581 5.5467 23.5907 6.41698V11.3226C23.5045 12.2879 23.164 13.2132 22.6039 14.0041C22.0438 14.7951 21.284 15.4234 20.402 15.8252C17.1647 17.4854 13.4837 18.0744 9.89005 17.5071V17.5071Z" fill="black"/>
<g id="Group" opacity="0.2">
<path id="Vector_9" d="M16.1272 17.3319L16.6528 17.2443V10.8495H16.1272V17.3319Z" fill="black"/>
<path id="Vector_10" d="M13.6919 17.6298H14.235V11.1999H13.6919V17.6298Z" fill="black"/>
<path id="Vector_11" d="M18.4048 16.8063L18.9304 16.6136V10.2889H18.4048V16.8063Z" fill="black"/>
<path id="Vector_12" d="M22.6446 13.9681V7.766H22.154V14.5638C22.3351 14.3803 22.4993 14.181 22.6446 13.9681V13.9681Z" fill="black"/>
<path id="Vector_13" d="M23.398 12.6716C23.5693 12.2363 23.6584 11.7729 23.6608 11.305V11.305V6.39944C23.6556 6.09202 23.6144 5.78628 23.5381 5.48842H23.398V12.6716Z" fill="black"/>
<path id="Vector_14" d="M20.9977 15.4573V9.18512H20.402V15.7902L20.9977 15.4573Z" fill="black"/>
<path id="Vector_15" d="M11.204 17.6122H11.7297V11.1473H11.204V17.6122Z" fill="black"/>
<path id="Vector_16" d="M8.75124 17.2793L9.27685 17.367V10.8846H8.75124V17.2793Z" fill="black"/>
<path id="Vector_17" d="M6.38605 16.6136L6.91165 16.7888V10.3064H6.38605V16.6136Z" fill="black"/>
<path id="Vector_18" d="M3.00469 14.4937V8.04633H2.47908V13.9506C2.63676 14.0907 2.88205 14.301 3.00469 14.4937Z" fill="black"/>
<path id="Vector_19" d="M4.8618 15.8602V9.41289H4.31869V15.5449L4.75669 15.8252L4.8618 15.8602Z" fill="black"/>
<path id="Vector_20" d="M1.7958 5.94391H1.56804C1.54987 6.0952 1.54987 6.24815 1.56804 6.39944V11.305C1.5764 11.7739 1.67144 12.2373 1.84837 12.6716L1.7958 5.94391Z" fill="black"/>
</g>
<path id="Vector_21" d="M20.402 10.9196C17.9739 12.1468 15.2913 12.7862 12.5706 12.7862C9.84994 12.7862 7.16734 12.1468 4.73916 10.9196C0.429241 8.41427 0.429241 4.36715 4.73916 1.87931C7.16488 0.643969 9.84844 2.80762e-06 12.5706 2.80762e-06C15.2928 2.80762e-06 17.9763 0.643969 20.402 1.87931C24.747 4.36715 24.747 8.41427 20.402 10.9196Z" fill="#EBEBEB"/>
<path id="Vector_22" d="M4.17852 10.5342C0.464277 8.02883 0.67452 4.24451 4.75668 1.87931C7.10092 0.628441 9.72087 -0.0160208 12.3779 0.00465549C13.7976 0.225389 15.1675 0.693887 16.425 1.38875C17.2594 1.74704 17.9704 2.34212 18.47 3.10038C18.9696 3.85865 19.2359 4.7468 19.2359 5.65487C19.2359 6.56293 18.9696 7.45103 18.47 8.2093C17.9704 8.96756 17.2594 9.56269 16.425 9.92098C14.5361 10.8615 12.4732 11.4014 10.3658 11.5069C8.25839 11.6124 6.1519 11.2813 4.17852 10.5342V10.5342Z" fill="#F5F5F5"/>
<path id="Vector_23" opacity="0.1" d="M19.3684 32.697C17.2283 33.6247 14.9206 34.1034 12.5881 34.1034C10.2556 34.1034 7.94794 33.6247 5.80788 32.697C2.07612 30.8048 2.07612 27.7563 5.80788 25.8817C7.94579 24.9457 10.2543 24.4626 12.5881 24.4626C14.9219 24.4626 17.2305 24.9457 19.3684 25.8817C23.1176 27.7563 23.1176 30.8223 19.3684 32.697Z" fill="black"/>
<path id="Vector_24" d="M23.03 15.7551C22.9383 16.6693 22.6086 17.5435 22.0737 18.2905C21.5388 19.0375 20.8175 19.6312 19.9816 20.0125C17.7086 21.2222 15.1622 21.8256 12.5881 21.7645V29.5959C15.1613 29.6484 17.7056 29.0455 19.9816 27.8439C20.8175 27.4626 21.5388 26.8689 22.0737 26.1219C22.6086 25.3749 22.9383 24.5007 23.03 23.5866V15.7551Z" fill="white"/>
<path id="Vector_25" d="M22.8198 8.85223C19.9006 11.3353 16.133 12.5912 12.3078 12.3562C5.2998 12.1635 2.56669 8.36171 2.21629 7.18787C2.02875 6.49436 2.01537 5.76525 2.17736 5.06534C2.33935 4.36543 2.67169 3.71636 3.14485 3.17577C2.67459 3.591 2.29265 4.09657 2.02177 4.66241C1.75088 5.22826 1.59658 5.84284 1.56805 6.46954V11.3751C1.56805 11.7781 1.35782 13.2147 3.60038 15.0543C2.87689 14.2342 2.41878 13.2141 2.28638 12.1285V8.72963C2.28638 8.72963 4.75668 12.8468 12.3078 12.8468C19.8589 12.8468 22.4344 9.46543 22.8198 8.85223Z" fill="white"/>
</g>
</svg>
