<svg preserveAspectRatio="none" width="100%" height="100%" overflow="visible" style="display: block;" viewBox="0 0 227.24 132.901" fill="none" xmlns="http://www.w3.org/2000/svg">
<g id="freepik--Rug--inject-22">
<path id="Vector" d="M225.911 84.9486L142.848 132.901L0.936301 50.9774C0.612974 50.5973 0.368757 50.1565 0.217975 49.6808C0.00942099 49.0671 -0.0506189 48.4126 0.0427773 47.7712C0.0839005 47.3612 0.202819 46.9628 0.393172 46.5974C0.482326 46.4053 0.58176 46.2181 0.691022 46.0367C1.0418 45.4967 1.50867 45.0418 2.05758 44.7052C2.82323 44.2132 3.71415 43.9516 4.62425 43.9516C5.53435 43.9516 6.42529 44.2132 7.19094 44.7052C7.37458 43.7719 7.67477 42.8655 8.08445 42.0071C8.44581 41.1826 9.01289 40.4647 9.73134 39.9222C10.6319 39.3514 11.707 39.1215 12.7623 39.274C13.8078 39.4063 14.8322 39.6712 15.8108 40.0624C16.2014 38.9365 16.7001 37.851 17.3 36.8212C17.9908 35.1791 18.95 33.6634 20.1382 32.3361C20.6378 31.8315 21.2661 31.4733 21.9548 31.3003C22.6435 31.1273 23.3664 31.1462 24.0452 31.3549C25.2541 31.7229 25.4468 32.8617 25.4993 34.0706C28.806 31.0869 33.0075 29.2818 37.448 28.9372C36.6421 27.7984 35.3456 26.572 35.5733 25.0828C35.5532 24.9964 35.5532 24.9065 35.5733 24.82C35.6392 24.7461 35.724 24.6915 35.8186 24.6623C36.5375 24.4136 37.3177 24.4057 38.0415 24.6396C38.7653 24.8735 39.3933 25.3365 39.8307 25.9588C39.9642 25.4513 40.2042 24.978 40.5348 24.5705C40.8653 24.1629 41.2789 23.8304 41.7479 23.5951C42.2169 23.3598 42.7307 23.2269 43.255 23.2055C43.7793 23.1841 44.3022 23.2746 44.7888 23.4709C45.779 21.5898 47.2411 19.9984 49.0318 18.8528C50.8224 17.7072 52.8801 17.0466 55.003 16.936C55.003 16.936 55.7213 14.1854 55.7914 13.905C55.862 13.4311 56.029 12.9767 56.2821 12.5699C56.5353 12.1631 56.8691 11.8125 57.2631 11.5398C57.4557 11.3958 57.6759 11.293 57.91 11.2377C58.144 11.1825 58.387 11.176 58.6236 11.2188C58.8603 11.2615 59.0857 11.3525 59.2856 11.4861C59.4856 11.6197 59.6559 11.7931 59.786 11.9954C59.7588 11.1834 59.8654 10.3725 60.1013 9.59513C60.3453 8.81636 60.8534 8.14712 61.538 7.70294C63.29 6.72182 63.728 9.80534 64.166 10.8741C64.2959 10.1578 64.6066 9.48666 65.0686 8.92412C65.5306 8.36159 66.1286 7.92635 66.8059 7.65963C67.4832 7.39292 68.2174 7.30356 68.9389 7.40005C69.6604 7.49655 70.3453 7.77572 70.9287 8.21104C71.4606 7.45782 71.6918 6.53298 71.5769 5.61806C71.5769 4.84718 70.7009 3.86607 70.8937 3.21783C71.4543 1.20303 74.713 3.60327 75.2737 4.42671C74.5553 2.41191 78.3397 0.922701 79.1631 2.9375C80.1087 1.66179 81.4331 0.71746 82.9474 0.239406C83.7137 -0.0161641 84.5332 -0.0681736 85.3256 0.0884692C86.1181 0.245112 86.8562 0.605045 87.4676 1.13294C88.0207 1.73071 88.3382 2.50885 88.3611 3.32294C88.5723 3.10807 88.8268 2.94066 89.1078 2.8319C89.3887 2.72315 89.6896 2.67556 89.9905 2.69225C91.6198 2.77985 92.6535 4.95233 93.2141 6.19625C93.6573 6.16185 94.1025 6.16185 94.5457 6.19625C95.0291 6.28766 95.4921 6.4657 95.9122 6.72183C96.3257 6.98403 96.6797 7.33 96.9512 7.73738C97.2228 8.14476 97.406 8.60451 97.489 9.08704C98.59 8.58505 99.7831 8.31659 100.993 8.29862C101.602 8.30454 102.201 8.45542 102.74 8.73876C103.28 9.02209 103.744 9.42977 104.094 9.92802C104.446 10.6034 104.66 11.3418 104.725 12.1005C104.725 11.5924 107.738 11.6975 108.054 11.7501C109.126 11.9782 110.089 12.5668 110.78 13.4178C111.472 14.2689 111.851 15.3312 111.855 16.4279C112.858 15.9287 113.997 15.7747 115.097 15.9899C115.639 16.1083 116.135 16.3843 116.521 16.7832C116.908 17.1822 117.168 17.6863 117.269 18.2325C118.928 18.2628 120.579 18.4742 122.192 18.8632C122.504 19.0053 122.775 19.222 122.983 19.4939C123.191 19.7659 123.328 20.0848 123.384 20.4225C123.384 21.2284 122.893 21.9642 122.823 22.7702C124.122 22.6376 125.435 22.7085 126.712 22.9804C127.779 23.2414 128.748 23.8026 129.506 24.5974C130.264 25.3923 130.778 26.3876 130.987 27.4655C133.668 26.2741 136.436 28.727 136.856 31.3199C137.785 30.1811 139.66 29.5679 140.676 30.9695C140.939 31.3199 141.604 32.7215 141.412 33.2296C141.603 32.7942 141.904 32.4156 142.284 32.1302C142.665 31.8448 143.113 31.6623 143.584 31.6002C144.445 31.5679 145.298 31.7676 146.054 32.1784C149.191 33.6501 151.713 35.6824 152.379 39.1864C152.379 38.8885 153.851 38.3279 154.131 38.2578C154.814 38.0946 155.521 38.059 156.216 38.1527C156.806 38.1059 157.399 38.183 157.957 38.3791C158.515 38.5753 159.026 38.886 159.457 39.2915C160.596 40.7807 159.089 41.499 158.371 42.6028C158.96 42.4136 159.586 42.3689 160.196 42.4726C160.806 42.5763 161.382 42.8253 161.875 43.1985C162.357 43.5965 162.73 44.1113 162.957 44.6941C163.184 45.2768 163.258 45.9079 163.172 46.5273C163.766 46.0799 164.471 45.8014 165.211 45.7212C165.951 45.641 166.699 45.7621 167.376 46.0717C168.046 46.4003 168.644 46.8593 169.135 47.4219C169.625 47.9845 169.998 48.6393 170.232 49.348C170.969 48.7825 171.829 48.3989 172.743 48.2284C173.656 48.0579 174.597 48.1053 175.488 48.3668C176.129 48.5127 176.696 48.8862 177.082 49.4181C177.252 49.7159 177.357 50.0462 177.39 50.3874C177.423 50.7285 177.384 51.0729 177.275 51.3978C177.032 52.0182 176.715 52.6065 176.329 53.1498C177.152 51.8884 180.236 55.6377 180.429 56.1808C180.914 55.3235 181.721 54.6942 182.67 54.4314C183.62 54.1685 184.635 54.2936 185.492 54.7792C186.349 55.2647 186.979 56.071 187.241 57.0206C187.504 57.9701 187.379 58.9852 186.894 59.8425C188.397 59.1767 190.08 59.0289 191.677 59.422C193.201 59.9651 194.234 62.085 193.148 63.2939C194.9 63.1888 194.375 59.422 196.092 59.5797C196.328 59.6372 196.55 59.7431 196.743 59.8909C196.936 60.0387 197.096 60.2251 197.213 60.4382C198.297 61.949 198.906 63.7481 198.965 65.6066C199.138 65.2328 199.393 64.9024 199.71 64.6396C200.028 64.3767 200.4 64.1881 200.799 64.0874C201.199 63.9866 201.616 63.9764 202.02 64.0573C202.424 64.1383 202.805 64.3085 203.135 64.5554C203.756 65.1145 204.142 65.8889 204.213 66.7218C204.285 67.5546 204.037 68.3835 203.52 69.0405C204.347 68.4896 205.313 68.1844 206.306 68.1601C207.299 68.1358 208.279 68.3935 209.131 68.9033C209.984 69.4131 210.675 70.154 211.124 71.0403C211.572 71.9267 211.761 72.922 211.667 73.911C211.89 73.5592 212.185 73.259 212.533 73.0304C212.881 72.8018 213.273 72.6501 213.685 72.5854C214.096 72.5208 214.516 72.5446 214.918 72.6554C215.319 72.7661 215.692 72.9613 216.012 73.2277C217.24 74.4027 218 75.9843 218.149 77.6778C219.122 77.0092 220.27 76.6412 221.451 76.6194C222.631 76.5976 223.792 76.923 224.789 77.5552C225.136 77.7802 225.414 78.0951 225.595 78.4662C225.85 79.0131 225.923 79.6267 225.806 80.2182C226.223 80.4434 226.574 80.7732 226.825 81.1751C227.076 81.5771 227.218 82.0375 227.238 82.5111C227.257 82.9846 227.153 83.4551 226.936 83.8763C226.719 84.2975 226.395 84.655 225.998 84.9136L225.911 84.9486Z" fill="#8389BE"/>
<path id="Vector_2" opacity="0.2" d="M225.911 84.9486L142.848 132.901L0.936307 50.9774C0.61298 50.5973 0.368763 50.1565 0.217981 49.6808C0.00942722 49.0671 -0.0506126 48.4126 0.0427836 47.7712C0.10513 47.3657 0.223033 46.9707 0.393178 46.5974C0.482332 46.4053 0.581766 46.2181 0.691028 46.0367L142.883 128.1L225.718 80.2007C226.135 80.4259 226.486 80.7557 226.737 81.1577C226.988 81.5596 227.131 82.02 227.15 82.4936C227.17 82.9671 227.066 83.4376 226.848 83.8588C226.631 84.28 226.308 84.6375 225.911 84.8961V84.9486Z" fill="black"/>
</g>
</svg>
