<svg preserveAspectRatio="none" width="100%" height="100%" overflow="visible" style="display: block;" viewBox="0 0 749.318 388.611" fill="none" xmlns="http://www.w3.org/2000/svg">
<g id="freepik--Shadows--inject-22">
<path id="freepik--shadow--inject-22" d="M376.799 336.402L225.532 248.872L135.076 301.064L286.344 388.611L376.799 336.402Z" fill="#E0E0E0"/>
<path id="freepik--shadow--inject-22_2" d="M120.639 172.239L487.718 384.231C490.489 385.631 493.55 386.36 496.654 386.36C499.758 386.36 502.818 385.631 505.589 384.231L745.613 245.701C750.554 242.845 750.554 238.219 745.613 235.381L378.534 23.3892C375.766 21.9814 372.704 21.2476 369.599 21.2476C366.493 21.2476 363.432 21.9814 360.663 23.3892L120.639 161.902C115.716 164.776 115.716 169.401 120.639 172.239Z" fill="#E0E0E0"/>
<path id="freepik--shadow--inject-22_3" d="M76.0861 277.832L1.31073 234.733C0.929298 234.607 0.597311 234.364 0.361991 234.038C0.126671 233.713 6.10352e-07 233.321 6.10352e-07 232.92C6.10352e-07 232.518 0.126671 232.126 0.361991 231.801C0.597311 231.475 0.929298 231.232 1.31073 231.106L105.169 170.96C106.147 170.467 107.228 170.211 108.323 170.211C109.418 170.211 110.498 170.467 111.476 170.96L186.234 214.042C186.614 214.173 186.943 214.418 187.176 214.745C187.409 215.072 187.534 215.463 187.534 215.864C187.534 216.265 187.409 216.656 187.176 216.983C186.943 217.31 186.614 217.555 186.234 217.686L82.3758 277.832C81.3999 278.322 80.323 278.577 79.2309 278.577C78.1389 278.577 77.062 278.322 76.0861 277.832V277.832Z" fill="#E0E0E0"/>
<path id="freepik--shadow--inject-22_4" d="M674.727 43.2744L599.917 1.44043e-05L493.763 61.1974L568.556 104.472L674.727 43.2744Z" fill="#E0E0E0"/>
</g>
</svg>
