<svg preserveAspectRatio="none" width="100%" height="100%" overflow="visible" style="display: block;" viewBox="0 0 162.533 133.767" fill="none" xmlns="http://www.w3.org/2000/svg">
<g id="freepik--shelf--inject-22">
<path id="Vector" opacity="0.1" d="M7.32422e-07 108.678V129.124L119.083 60.3577V38.0723L7.32422e-07 108.678Z" fill="black"/>
<path id="Vector_2" d="M119.083 34.3581L7.32422e-07 103.124L43.4496 128.195L162.533 59.4467L119.083 34.3581Z" fill="#455A64"/>
<path id="Vector_3" d="M119.083 34.3581L7.32422e-07 103.124L43.4496 128.195L162.533 59.4467L119.083 34.3581Z" fill="#455A64"/>
<path id="Vector_4" d="M162.533 59.4467V65.0181L43.4496 133.767V128.195L162.533 59.4467Z" fill="#37474F"/>
<path id="Vector_5" d="M7.32422e-07 103.124L43.4496 128.195V133.767L7.32422e-07 108.678V103.124Z" fill="#263238"/>
<g id="freepik--Books--inject-22">
<path id="freepik--Shadow--inject-22" d="M100.845 89.1431L62.9669 67.4709C62.599 67.2431 62.599 66.8927 62.9669 66.6825L104.384 42.7677C104.595 42.6557 104.829 42.5971 105.067 42.5971C105.306 42.5971 105.54 42.6557 105.751 42.7677L143.629 64.4399C144.014 64.6677 144.014 65.0181 143.629 65.2283L102.212 89.1431C102.001 89.2551 101.767 89.3136 101.528 89.3136C101.29 89.3136 101.055 89.2551 100.845 89.1431V89.1431Z" fill="#37474F"/>
<g id="freepik--Book--inject-22">
<path id="Vector_6" d="M136.779 15.6993V16.8906C136.779 16.8906 136.323 16.4701 136.306 16.1723C136.288 15.8745 136.779 15.6993 136.779 15.6993Z" fill="black"/>
<path id="Vector_7" d="M135.868 15.4189C135.818 15.5823 135.802 15.7542 135.821 15.924C135.84 16.0938 135.894 16.2577 135.98 16.4057C136.065 16.5536 136.18 16.6823 136.318 16.7839C136.455 16.8854 136.612 16.9575 136.779 16.9957C138.058 17.3987 138.881 16.9957 139.074 17.3637C139.266 17.7316 132.959 21.3232 132.959 21.3232L134.168 16.0672L135.868 15.4189Z" fill="#8389BE"/>
<path id="Vector_8" opacity="0.3" d="M135.868 15.4189C135.818 15.5823 135.802 15.7542 135.821 15.924C135.84 16.0938 135.894 16.2577 135.98 16.4057C136.065 16.5536 136.18 16.6823 136.318 16.7839C136.455 16.8854 136.612 16.9575 136.779 16.9957C138.058 17.3987 138.881 16.9957 139.074 17.3637C139.266 17.7316 132.959 21.3232 132.959 21.3232L134.168 16.0672L135.868 15.4189Z" fill="black"/>
<path id="Vector_9" d="M133.467 64.1421L132.837 63.7742L105.838 48.1813L108.239 1.45551C108.239 0.702147 108.659 0.334224 109.167 0.632064L110.078 1.15767L135.324 15.7343V15.9445L133.467 64.1421Z" fill="#8389BE"/>
<path id="Vector_10" opacity="0.2" d="M133.467 64.1421L132.837 63.7742L105.838 48.1813L108.239 1.45551C108.239 0.702147 108.659 0.334224 109.167 0.632064L110.078 1.15767L135.324 15.7343V15.9445L133.467 64.1421Z" fill="black"/>
<path id="Vector_11" d="M129.823 22.7949L128.509 21.3057L135.219 17.3812C136.253 18.1521 136.971 18.5725 137.952 18.1871L129.823 22.7949Z" fill="#455A64"/>
<path id="Vector_12" d="M134.939 16.5928L109.938 2.15631C109.693 2.03309 109.423 1.9689 109.15 1.9689C108.876 1.9689 108.606 2.03309 108.361 2.15631L101.686 6.01071L127.038 20.5173C127.64 20.3883 128.27 20.5016 128.79 20.8326C129.543 21.4458 129.49 20.6749 129.49 20.6749L135.219 17.3812C134.816 16.768 134.939 16.5928 134.939 16.5928Z" fill="#EBEBEB"/>
<path id="Vector_13" d="M129.333 22.4795C129.087 22.3394 128.965 22.1642 129.087 22.0941L129.298 21.9714C129.543 21.8313 129.298 21.4809 128.807 21.183C128.614 21.0445 128.395 20.9467 128.163 20.8955C127.931 20.8443 127.691 20.8408 127.458 20.8852L127.248 21.0078C126.891 21.007 126.542 20.8969 126.249 20.6925L126.459 67.576L127.09 67.9439C127.211 67.9751 127.337 67.9751 127.458 67.9439L127.668 67.8213C127.9 67.7744 128.14 67.7751 128.371 67.8232C128.603 67.8714 128.823 67.9661 129.017 68.1016C129.525 68.3994 129.753 68.7498 129.508 68.89L129.298 69.0126C129.175 69.0126 129.298 69.2579 129.543 69.3981L129.333 22.4795Z" fill="#8389BE"/>
<path id="Vector_14" opacity="0.25" d="M129.333 22.4795C129.087 22.3394 128.965 22.1642 129.087 22.0941L129.298 21.9714C129.543 21.8313 129.298 21.4809 128.807 21.183C128.614 21.0445 128.395 20.9467 128.163 20.8955C127.931 20.8443 127.691 20.8408 127.458 20.8852L127.248 21.0078C126.891 21.007 126.542 20.8969 126.249 20.6925L126.459 67.576L127.09 67.9439C127.211 67.9751 127.337 67.9751 127.458 67.9439L127.668 67.8213C127.9 67.7744 128.14 67.7751 128.371 67.8232C128.603 67.8714 128.823 67.9661 129.017 68.1016C129.525 68.3994 129.753 68.7498 129.508 68.89L129.298 69.0126C129.175 69.0126 129.298 69.2579 129.543 69.3981L129.333 22.4795Z" fill="white"/>
<path id="Vector_15" d="M127.038 67.8563L126.459 67.576L99.4085 51.9832V6.55383C99.4085 5.80047 99.829 5.43254 100.337 5.73038L101.248 6.25599L127.038 20.5173V67.8563Z" fill="#8389BE"/>
<path id="Vector_16" opacity="0.4" d="M127.038 67.8563L126.459 67.576L99.4085 51.9832V6.55383C99.4085 5.80047 99.829 5.43254 100.337 5.73038L101.248 6.25599L127.038 20.5173V67.8563Z" fill="white"/>
<path id="Vector_17" d="M129.052 69.1002V22.1642L130.804 22.8299V69.6258C130.5 69.7093 130.18 69.7093 129.876 69.6258L129.052 69.1002Z" fill="#8389BE"/>
<path id="Vector_18" opacity="0.4" d="M129.052 69.1002V22.1642L130.804 22.8299V69.6258C130.5 69.7093 130.18 69.7093 129.876 69.6258L129.052 69.1002Z" fill="white"/>
<path id="Vector_19" d="M139.74 64.2297V64.3173V64.4399C139.699 64.5139 139.652 64.5843 139.599 64.6502L139.407 64.8604L139.179 65.0531L139.021 65.1757L138.899 65.2634L138.601 65.4385L132.784 68.8024C132.18 69.1581 131.514 69.3959 130.822 69.5032V22.8299L139.845 17.4337V64.2122L139.74 64.2297Z" fill="#8389BE"/>
<g id="Group" opacity="0.7">
<path id="Vector_20" d="M139.74 64.2297V64.3173V64.4399C139.699 64.5139 139.652 64.5843 139.599 64.6502L139.407 64.8604L139.179 65.0531L139.021 65.1757L138.899 65.2634L138.601 65.4385L132.784 68.8024C132.18 69.1581 131.514 69.3959 130.822 69.5032V22.8299L139.845 17.4337V64.2122L139.74 64.2297Z" fill="white"/>
</g>
<path id="Vector_21" d="M130.717 26.7194V32.3608C134.091 31.3312 137.18 29.5319 139.74 27.1048V21.4984C137.176 23.9128 134.087 25.7 130.717 26.7194V26.7194Z" fill="#FAFAFA"/>
<path id="Vector_22" d="M130.717 58.1152V63.7566C134.091 62.727 137.18 60.9277 139.74 58.5006V52.8592C137.174 55.2792 134.087 57.0774 130.717 58.1152V58.1152Z" fill="#FAFAFA"/>
<path id="Vector_23" d="M132.679 22.1466L132.223 21.3582C131.636 21.7067 130.977 21.9164 130.296 21.9714C130.331 21.7041 130.276 21.4327 130.139 21.2005C129.916 20.8654 129.615 20.589 129.263 20.3946C128.86 20.1581 128.412 20.0089 127.949 19.9566H127.843C127.565 19.9336 127.286 19.9881 127.038 20.1143L103.088 6.27351L102.282 5.80047L101.231 5.20479C101.146 5.1538 101.049 5.12686 100.95 5.12686C100.851 5.12686 100.755 5.1538 100.67 5.20479L99.7589 5.74791C99.8455 5.69347 99.9457 5.66458 100.048 5.66458C100.15 5.66458 100.25 5.69347 100.337 5.74791V5.74791L103.088 7.34223L126.249 20.71C126.687 20.9553 127.125 21.1129 127.248 21.0429L127.458 20.9202C127.616 20.8627 127.79 20.8627 127.949 20.9202C128.251 20.9733 128.542 21.0801 128.807 21.2356C129.315 21.5334 129.543 21.8838 129.298 22.024L129.087 22.1466C128.965 22.1466 129.087 22.3744 129.333 22.5321L129.806 22.7949C130.304 22.8874 130.815 22.8777 131.309 22.7662C131.803 22.6548 132.269 22.444 132.679 22.1466V22.1466Z" fill="#8389BE"/>
<path id="Vector_24" opacity="0.6" d="M132.679 22.1466L132.223 21.3582C131.636 21.7067 130.977 21.9164 130.296 21.9714C130.331 21.7041 130.276 21.4327 130.139 21.2005C129.916 20.8654 129.615 20.589 129.263 20.3946C128.86 20.1581 128.412 20.0089 127.949 19.9566H127.843C127.565 19.9336 127.286 19.9881 127.038 20.1143L103.088 6.27351L102.282 5.80047L101.231 5.20479C101.146 5.1538 101.049 5.12686 100.95 5.12686C100.851 5.12686 100.755 5.1538 100.67 5.20479L99.7589 5.74791C99.8455 5.69347 99.9457 5.66458 100.048 5.66458C100.15 5.66458 100.25 5.69347 100.337 5.74791V5.74791L103.088 7.34223L126.249 20.71C126.687 20.9553 127.125 21.1129 127.248 21.0429L127.458 20.9202C127.616 20.8627 127.79 20.8627 127.949 20.9202C128.251 20.9733 128.542 21.0801 128.807 21.2356C129.315 21.5334 129.543 21.8838 129.298 22.024L129.087 22.1466C128.965 22.1466 129.087 22.3744 129.333 22.5321L129.806 22.7949C130.304 22.8874 130.815 22.8777 131.309 22.7662C131.803 22.6548 132.269 22.444 132.679 22.1466V22.1466Z" fill="white"/>
<path id="Vector_25" d="M132.223 21.3232L138.04 17.9594L138.285 17.8192L138.461 17.679C137.904 17.8115 137.32 17.7756 136.784 17.576C136.247 17.3764 135.782 17.022 135.447 16.5577C135.3 16.3038 135.25 16.0048 135.307 15.7168H135.132L111.918 2.22639L110.691 1.45551L110.306 1.22775L109.185 0.597026C109.108 0.550644 109.02 0.526129 108.931 0.526129C108.841 0.526129 108.753 0.550644 108.677 0.597026L108.922 0.439353L109.605 0.0539105C109.676 0.0184604 109.754 2.56348e-06 109.833 2.56348e-06C109.912 2.56348e-06 109.99 0.0184604 110.061 0.0539105V0.0539105L110.481 0.299189L110.726 0.439353L111.182 0.702149L111.462 0.859829C111.529 0.896677 111.593 0.937635 111.655 0.982468L111.988 1.17519L130.384 11.7923L136.253 15.1737C136.674 15.4189 136.919 15.6642 136.831 15.7518L136.621 15.8569C136.358 16.0146 136.621 16.365 137.076 16.6629C137.244 16.7846 137.438 16.8628 137.643 16.8904C137.848 16.9179 138.057 16.8939 138.25 16.8205L138.496 16.6804C138.618 16.6804 138.793 16.5753 138.864 16.6804H139.004L139.284 16.8381L139.652 17.0483C139.727 17.0858 139.788 17.148 139.823 17.2245C139.858 17.301 139.865 17.3872 139.845 17.4688V17.5914C139.804 17.6654 139.757 17.7358 139.704 17.8017L139.512 17.9944L139.284 18.2046L139.126 18.3097H139.004L138.706 18.5025L132.889 21.8663L132.223 21.3232Z" fill="#8389BE"/>
<path id="Vector_26" opacity="0.6" d="M132.223 21.3232L138.04 17.9594L138.285 17.8192L138.461 17.679C137.904 17.8115 137.32 17.7756 136.784 17.576C136.247 17.3764 135.782 17.022 135.447 16.5577C135.3 16.3038 135.25 16.0048 135.307 15.7168H135.132L111.918 2.22639L110.691 1.45551L110.306 1.22775L109.185 0.597026C109.108 0.550644 109.02 0.526129 108.931 0.526129C108.841 0.526129 108.753 0.550644 108.677 0.597026L108.922 0.439353L109.605 0.0539105C109.676 0.0184604 109.754 2.56348e-06 109.833 2.56348e-06C109.912 2.56348e-06 109.99 0.0184604 110.061 0.0539105V0.0539105L110.481 0.299189L110.726 0.439353L111.182 0.702149L111.462 0.859829C111.529 0.896677 111.593 0.937635 111.655 0.982468L111.988 1.17519L130.384 11.7923L136.253 15.1737C136.674 15.4189 136.919 15.6642 136.831 15.7518L136.621 15.8569C136.358 16.0146 136.621 16.365 137.076 16.6629C137.244 16.7846 137.438 16.8628 137.643 16.8904C137.848 16.9179 138.057 16.8939 138.25 16.8205L138.496 16.6804C138.618 16.6804 138.793 16.5753 138.864 16.6804H139.004L139.284 16.8381L139.652 17.0483C139.727 17.0858 139.788 17.148 139.823 17.2245C139.858 17.301 139.865 17.3872 139.845 17.4688V17.5914C139.804 17.6654 139.757 17.7358 139.704 17.8017L139.512 17.9944L139.284 18.2046L139.126 18.3097H139.004L138.706 18.5025L132.889 21.8663L132.223 21.3232Z" fill="white"/>
</g>
<g id="freepik--book--inject-22">
<path id="Vector_27" d="M95.4314 10.4082V11.7222L94.6781 10.9338C94.7352 10.7799 94.8379 10.6471 94.9726 10.5532C95.1072 10.4593 95.2673 10.4087 95.4314 10.4082V10.4082Z" fill="#8389BE"/>
<path id="Vector_28" opacity="0.5" d="M95.4314 10.4082V11.7222L94.6781 10.9338C94.7352 10.7799 94.8379 10.6471 94.9726 10.5532C95.1072 10.4593 95.2673 10.4087 95.4314 10.4082V10.4082Z" fill="black"/>
<path id="Vector_29" d="M124.164 29.2597C124.138 28.8471 124.015 28.4463 123.805 28.0901C123.595 27.734 123.304 27.4324 122.955 27.2099L96.5002 11.95L96.833 57.502V58.5707L122.955 74.0058C123.604 74.3737 124.129 74.0058 124.129 73.3225L124.164 29.2597Z" fill="#8389BE"/>
<path id="Vector_30" d="M94.5379 34.9012V24.249L88.5811 20.745V12.7909L92.5932 10.4608C93.1188 10.1629 94.205 10.3206 94.205 10.6009C94.5269 10.9427 94.8853 11.2482 95.2738 11.512C95.9614 11.922 96.6969 12.2456 97.4638 12.4756L97.7791 36.7583L94.5379 34.9012Z" fill="#8389BE"/>
<path id="Vector_31" opacity="0.15" d="M94.5379 34.9012V24.249L88.5811 20.745V12.7909L92.5932 10.4608C93.1188 10.1629 94.205 10.3206 94.205 10.6009C94.5269 10.9427 94.8853 11.2482 95.2738 11.512C95.9614 11.922 96.6969 12.2456 97.4638 12.4756L97.7791 36.7583L94.5379 34.9012Z" fill="black"/>
<path id="Vector_32" d="M90.9463 15.8044L95.3088 13.2815C94.9529 13.0919 94.6513 12.8145 94.4328 12.4756C94.2837 12.2601 94.2098 12.0015 94.2226 11.7397L89.0717 14.7182L90.9463 15.8044Z" fill="#37474F"/>
<path id="Vector_33" d="M97.4462 13.5443C97.1633 13.6807 96.8461 13.7295 96.5352 13.6845H96.0622H95.9045H95.7293H95.5891C95.4907 13.6484 95.3967 13.6014 95.3088 13.5443L90.9638 16.0497L92.2603 16.803L97.4462 13.5443Z" fill="#E0E0E0"/>
<path id="Vector_34" opacity="0.4" d="M92.5757 10.4608C93.1013 10.1629 94.1875 10.3206 94.1875 10.6009V11.7047L90.8237 13.6144H88.9666L88.5636 13.264V12.7909L92.5757 10.4608Z" fill="black"/>
<path id="Vector_35" d="M118.032 31.4497L122.955 28.5765C122.826 28.331 122.632 28.1253 122.395 27.9808L119.504 26.2288L97.4462 13.5443L92.1902 16.5577L118.032 31.4497Z" fill="#EBEBEB"/>
<path id="Vector_36" d="M118.698 75.7228L122.447 73.5503C122.674 73.4018 122.863 73.2026 123 72.9685C123.137 72.7345 123.218 72.4718 123.236 72.2013V29.3474C123.225 29.0754 123.147 28.8104 123.008 28.5765L118.593 31.1169L118.698 75.7228Z" fill="#F5F5F5"/>
<path id="Vector_37" d="M90.4032 61.2162V15.489L90.8587 15.2262C91.1215 15.0861 90.9989 14.6656 90.4908 14.3677C90.2854 14.2069 90.0414 14.1028 89.7831 14.0659C89.5248 14.029 89.2613 14.0606 89.0191 14.1575L88.5636 14.3677V61.1462H88.8089L89.0191 61.0235C89.2507 60.959 89.4931 60.9427 89.7312 60.9759C89.9693 61.0091 90.1981 61.0909 90.4032 61.2162Z" fill="#8389BE"/>
<path id="Vector_38" opacity="0.1" d="M90.4032 61.2162V15.489L90.8587 15.2262C91.1215 15.0861 90.9989 14.6656 90.4908 14.3677C90.2854 14.2069 90.0414 14.1028 89.7831 14.0659C89.5248 14.029 89.2613 14.0606 89.0191 14.1575L88.5636 14.3677V61.1462H88.8089L89.0191 61.0235C89.2507 60.959 89.4931 60.9427 89.7312 60.9759C89.9693 61.0091 90.1981 61.0909 90.4032 61.2162Z" fill="black"/>
<path id="Vector_39" d="M116.858 30.7665L90.9814 15.8219C90.666 15.6292 90.4032 15.4365 90.4032 15.2963V61.7418C90.4549 61.9553 90.5521 62.155 90.6882 62.3273C90.8243 62.4997 90.996 62.6406 91.1916 62.7405L116.841 77.5449C117.507 77.9303 118.032 77.5449 118.032 76.8791V32.7988C118.012 32.3913 117.894 31.9945 117.69 31.6411C117.486 31.2878 117.201 30.988 116.858 30.7665V30.7665Z" fill="#8389BE"/>
<g id="Vector_40">
</g>
<path id="Vector_41" d="M122.955 27.2099L121.361 26.2989L97.4462 12.5632C97.1633 12.6996 96.8461 12.7484 96.5352 12.7034C96.0713 12.6511 95.6236 12.5019 95.2212 12.2654C94.8691 12.0704 94.5687 11.7941 94.3452 11.4594C94.2094 11.2268 94.154 10.9559 94.1875 10.6886C93.5026 10.7211 92.8381 10.9325 92.2603 11.3017L91.8048 10.5134C92.2163 10.2203 92.6842 10.0161 93.1788 9.91353C93.6735 9.81098 94.184 9.81239 94.6781 9.91767L95.1336 10.1805C95.3964 10.3206 95.519 10.4958 95.3964 10.5659L95.1686 10.6886C94.9409 10.8287 95.1686 11.1791 95.6767 11.4769C95.871 11.6124 96.0907 11.7071 96.3225 11.7553C96.5544 11.8035 96.7936 11.8041 97.0258 11.7573L97.236 11.6346C97.3586 11.6346 97.7966 11.6346 98.2346 11.9675L121.396 25.3353L123.901 26.7894C124.243 27.0097 124.526 27.3105 124.725 27.6654L123.831 28.191C123.629 27.7941 123.327 27.4562 122.955 27.2099V27.2099Z" fill="#8389BE"/>
<path id="Vector_42" opacity="0.3" d="M122.955 27.2099L121.361 26.2989L97.4462 12.5632C97.1633 12.6996 96.8461 12.7484 96.5352 12.7034C96.0713 12.6511 95.6236 12.5019 95.2212 12.2654C94.8691 12.0704 94.5687 11.7941 94.3452 11.4594C94.2094 11.2268 94.154 10.9559 94.1875 10.6886C93.5026 10.7211 92.8381 10.9325 92.2603 11.3017L91.8048 10.5134C92.2163 10.2203 92.6842 10.0161 93.1788 9.91353C93.6735 9.81098 94.184 9.81239 94.6781 9.91767L95.1336 10.1805C95.3964 10.3206 95.519 10.4958 95.3964 10.5659L95.1686 10.6886C94.9409 10.8287 95.1686 11.1791 95.6767 11.4769C95.871 11.6124 96.0907 11.7071 96.3225 11.7553C96.5544 11.8035 96.7936 11.8041 97.0258 11.7573L97.236 11.6346C97.3586 11.6346 97.7966 11.6346 98.2346 11.9675L121.396 25.3353L123.901 26.7894C124.243 27.0097 124.526 27.3105 124.725 27.6654L123.831 28.191C123.629 27.7941 123.327 27.4562 122.955 27.2099V27.2099Z" fill="black"/>
<g id="Vector_43">
</g>
<g id="Vector_44" opacity="0.3">
</g>
<path id="Vector_45" d="M117.699 77.6325L118.628 77.1069C118.745 77.0252 118.839 76.9144 118.901 76.7853C118.962 76.6563 118.989 76.5135 118.978 76.371V32.2732C118.96 31.8646 118.839 31.4671 118.628 31.1169L117.717 31.6425C117.928 31.9927 118.049 32.3902 118.067 32.7988V34.5508V76.7915C118.101 76.9526 118.084 77.1202 118.018 77.2711C117.952 77.4219 117.841 77.5483 117.699 77.6325V77.6325Z" fill="#8389BE"/>
<path id="Vector_46" opacity="0.2" d="M117.699 77.6325L118.628 77.1069C118.745 77.0252 118.839 76.9144 118.901 76.7853C118.962 76.6563 118.989 76.5135 118.978 76.371V32.2732C118.96 31.8646 118.839 31.4671 118.628 31.1169L117.717 31.6425C117.928 31.9927 118.049 32.3902 118.067 32.7988V34.5508V76.7915C118.101 76.9526 118.084 77.1202 118.018 77.2711C117.952 77.4219 117.841 77.5483 117.699 77.6325V77.6325Z" fill="black"/>
<path id="Vector_47" d="M123.814 74.0934L124.725 73.5678C124.845 73.4846 124.941 73.371 125.002 73.2386C125.064 73.1062 125.089 72.9598 125.075 72.8145V72.8145V28.7342C125.067 28.3238 124.946 27.9236 124.725 27.5778L123.831 28.1034C124.04 28.4537 124.155 28.8521 124.164 29.2597V31.0117V73.2349C124.199 73.3967 124.184 73.5651 124.121 73.7182C124.059 73.8713 123.952 74.0021 123.814 74.0934V74.0934Z" fill="#8389BE"/>
<path id="Vector_48" opacity="0.2" d="M123.814 74.0934L124.725 73.5678C124.845 73.4846 124.941 73.371 125.002 73.2386C125.064 73.1062 125.089 72.9598 125.075 72.8145V72.8145V28.7342C125.067 28.3238 124.946 27.9236 124.725 27.5778L123.831 28.1034C124.04 28.4537 124.155 28.8521 124.164 29.2597V31.0117V73.2349C124.199 73.3967 124.184 73.5651 124.121 73.7182C124.059 73.8713 123.952 74.0021 123.814 74.0934V74.0934Z" fill="black"/>
</g>
<g id="freepik--book--inject-22_2">
<path id="Vector_49" d="M89.9126 24.4943L114.791 39.0359L107.976 82.7658L83.0974 68.2242L89.9126 24.4943Z" fill="#8389BE"/>
<path id="Vector_50" d="M113.81 39.7192L89.6674 25.7207C87.8002 27.1163 85.5908 27.9819 83.2726 28.2261L107.152 42.2421C109.462 41.6611 111.696 40.8145 113.81 39.7192V39.7192Z" fill="white"/>
<path id="Vector_51" d="M104.717 41.9617C105.494 42.3335 106.338 42.5453 107.199 42.5844C108.06 42.6235 108.92 42.4892 109.728 42.1895L114.458 40.2623C115.947 39.6491 116.123 38.5103 114.844 37.8095L91.0865 24.0037L89.9126 24.4943L113.267 38.1249C114.02 38.5804 113.915 39.2286 113.022 39.5965L108.642 41.3485C108.155 41.527 107.638 41.6066 107.121 41.5825C106.603 41.5585 106.096 41.4313 105.628 41.2084L82.2914 27.6304L80.9599 28.1735L104.717 41.9617Z" fill="#8389BE"/>
<path id="Vector_52" opacity="0.6" d="M104.717 41.9617C105.494 42.3335 106.338 42.5453 107.199 42.5844C108.06 42.6235 108.92 42.4892 109.728 42.1895L114.458 40.2623C115.947 39.6491 116.123 38.5103 114.844 37.8095L91.0865 24.0037L89.9126 24.4943L113.267 38.1249C114.02 38.5804 113.915 39.2286 113.022 39.5965L108.642 41.3485C108.155 41.527 107.638 41.6066 107.121 41.5825C106.603 41.5585 106.096 41.4313 105.628 41.2084L82.2914 27.6304L80.9599 28.1735L104.717 41.9617Z" fill="white"/>
<path id="Vector_53" d="M80.9074 28.1735L74.0921 71.9735L97.8317 85.7617C98.6078 86.1363 99.4513 86.3511 100.312 86.3932C101.173 86.4354 102.033 86.304 102.842 86.007L107.573 84.0623C108.309 83.7469 108.729 83.3265 108.799 82.8709L115.632 39.0709C115.632 39.5265 115.141 39.947 114.406 40.2448L109.675 42.207C108.867 42.508 108.006 42.6415 107.145 42.5993C106.283 42.5572 105.439 42.3402 104.664 41.9617L80.9074 28.1735Z" fill="#8389BE"/>
<path id="Vector_54" opacity="0.4" d="M80.9074 28.1735L74.0921 71.9735L97.8317 85.7617C98.6078 86.1363 99.4513 86.3511 100.312 86.3932C101.173 86.4354 102.033 86.304 102.842 86.007L107.573 84.0623C108.309 83.7469 108.729 83.3265 108.799 82.8709L115.632 39.0709C115.632 39.5265 115.141 39.947 114.406 40.2448L109.675 42.207C108.867 42.508 108.006 42.6415 107.145 42.5993C106.283 42.5572 105.439 42.3402 104.664 41.9617L80.9074 28.1735Z" fill="white"/>
<path id="Vector_55" d="M107.187 42.5925C108.069 42.64 108.951 42.5089 109.78 42.207L114.511 40.2448C115.247 39.947 115.667 39.5265 115.737 39.0709L108.904 82.8709C108.904 83.3265 108.414 83.7469 107.678 84.0623L102.948 86.007C102.124 86.3089 101.248 86.44 100.372 86.3925L107.187 42.5925Z" fill="#8389BE"/>
<path id="Vector_56" opacity="0.7" d="M107.187 42.5925C108.069 42.64 108.951 42.5089 109.78 42.207L114.511 40.2448C115.247 39.947 115.667 39.5265 115.737 39.0709L108.904 82.8709C108.904 83.3265 108.414 83.7469 107.678 84.0623L102.948 86.007C102.124 86.3089 101.248 86.44 100.372 86.3925L107.187 42.5925Z" fill="white"/>
</g>
</g>
<g id="freepik--books--inject-22">
<path id="freepik--shadow--inject-22" d="M48.9859 118.734L18.3434 101.214C18.2608 101.189 18.1885 101.138 18.1371 101.069C18.0857 100.999 18.058 100.915 18.058 100.829C18.058 100.743 18.0857 100.659 18.1371 100.589C18.1885 100.52 18.2608 100.469 18.3434 100.444L58.9198 77.0193C59.127 76.9073 59.3588 76.8487 59.5943 76.8487C59.8298 76.8487 60.0616 76.9073 60.2688 77.0193L90.8938 94.5393C91.2792 94.7495 91.2792 95.0824 90.8938 95.3102L50.335 118.734C50.1252 118.838 49.8944 118.892 49.6604 118.892C49.4265 118.892 49.1957 118.838 48.9859 118.734V118.734Z" fill="#37474F"/>
<g id="freepik--book--inject-22_3">
<path id="Vector_57" d="M23.1089 99.988L49.021 114.757L85.8655 93.6107L59.9534 78.8414L23.1089 99.988Z" fill="#8389BE"/>
<path id="Vector_58" opacity="0.3" d="M23.1089 99.988L49.021 114.757L85.8655 93.6107L59.9534 78.8414L23.1089 99.988Z" fill="black"/>
<path id="Vector_59" d="M49.2662 113.794L24.1426 99.3923C24.7111 97.5668 24.6743 95.6063 24.0374 93.8034L49.021 108.082C49.3575 109.967 49.44 111.887 49.2662 113.794V113.794Z" fill="#F5F5F5"/>
<path id="Vector_60" d="M47.9172 106.348C48.5117 106.73 49.0084 107.245 49.3674 107.854C49.7264 108.463 49.9378 109.147 49.9846 109.852V114.004C49.9846 115.318 49.056 115.756 47.9172 115.195L23.0914 101.022V99.988L47.6194 114.004C48.3026 114.407 48.8458 114.092 48.8458 113.303V109.449C48.8224 109.019 48.6975 108.602 48.4812 108.23C48.265 107.859 47.9636 107.544 47.6018 107.311L23.0738 93.2954V92.1215L47.9172 106.348Z" fill="#8389BE"/>
<path id="Vector_61" opacity="0.1" d="M47.9172 106.348C48.5117 106.73 49.0084 107.245 49.3674 107.854C49.7264 108.463 49.9378 109.147 49.9846 109.852V114.004C49.9846 115.318 49.056 115.756 47.9172 115.195L23.0914 101.022V99.988L47.6194 114.004C48.3026 114.407 48.8458 114.092 48.8458 113.303V109.449C48.8224 109.019 48.6975 108.602 48.4812 108.23C48.265 107.859 47.9636 107.544 47.6018 107.311L23.0738 93.2954V92.1215L47.9172 106.348Z" fill="black"/>
<path id="Vector_62" d="M23.0913 92.104L59.8833 70.9749L84.6916 85.2011C85.2861 85.583 85.7828 86.0988 86.1418 86.7074C86.5008 87.3159 86.7122 88.0001 86.759 88.7051V92.8574C86.7876 93.1141 86.7457 93.3738 86.6376 93.6084C86.5295 93.8431 86.3595 94.0438 86.1458 94.1889L49.3713 115.388C49.585 115.243 49.7551 115.042 49.8631 114.808C49.9712 114.573 50.0131 114.313 49.9845 114.057V109.904C49.9324 109.201 49.7188 108.518 49.3602 107.911C49.0017 107.303 48.5078 106.786 47.9171 106.4L23.0913 92.104Z" fill="#8389BE"/>
<path id="Vector_63" opacity="0.2" d="M23.0913 92.104L59.8833 70.9749L84.6916 85.2011C85.2861 85.583 85.7828 86.0988 86.1418 86.7074C86.5008 87.3159 86.7122 88.0001 86.759 88.7051V92.8574C86.7876 93.1141 86.7457 93.3738 86.6376 93.6084C86.5295 93.8431 86.3595 94.0438 86.1458 94.1889L49.3713 115.388C49.585 115.243 49.7551 115.042 49.8631 114.808C49.9712 114.573 50.0131 114.313 49.9845 114.057V109.904C49.9324 109.201 49.7188 108.518 49.3602 107.911C49.0017 107.303 48.5078 106.786 47.9171 106.4L23.0913 92.104Z" fill="white"/>
<path id="Vector_64" d="M49.3714 107.872C49.7514 108.483 49.963 109.185 49.9846 109.904V114.057C50.0132 114.313 49.9713 114.573 49.8632 114.808C49.7551 115.042 49.5851 115.243 49.3714 115.388L86.1634 94.2414C86.3771 94.0963 86.5471 93.8956 86.6552 93.661C86.7633 93.4263 86.8052 93.1666 86.7766 92.9099V88.7577C86.755 88.038 86.5434 87.3369 86.1634 86.7253L49.3714 107.872Z" fill="#8389BE"/>
<path id="Vector_65" d="M49.3714 107.872C49.7514 108.483 49.963 109.185 49.9846 109.904V114.057C50.0132 114.313 49.9713 114.573 49.8632 114.808C49.7551 115.042 49.5851 115.243 49.3714 115.388L86.1634 94.2414C86.3771 94.0963 86.5471 93.8956 86.6552 93.661C86.7633 93.4263 86.8052 93.1666 86.7766 92.9099V88.7577C86.755 88.038 86.5434 87.3369 86.1634 86.7253L49.3714 107.872Z" fill="#8389BE"/>
</g>
<g id="freepik--book--inject-22_4">
<path id="Vector_66" d="M28.1722 92.3317L54.0667 107.119L90.9288 85.972L65.0167 71.1851L28.1722 92.3317Z" fill="#8389BE"/>
<path id="Vector_67" d="M54.3295 106.138L29.2058 91.7361C29.7656 89.9152 29.7288 87.9631 29.1007 86.1647L54.0667 100.444C54.42 102.32 54.5085 104.237 54.3295 106.138V106.138Z" fill="#F5F5F5"/>
<path id="Vector_68" d="M52.9805 98.6915C53.575 99.0734 54.0716 99.5892 54.4307 100.198C54.7897 100.806 55.0011 101.491 55.0478 102.196V106.365C55.0478 107.662 54.1193 108.205 52.9805 107.539L28.1722 93.3654V92.3317L52.7002 106.348C53.401 106.733 53.9441 106.348 53.9441 105.629V101.775C53.918 101.346 53.7919 100.93 53.5759 100.559C53.3599 100.187 53.06 99.872 52.7002 99.6376L28.1722 85.6216V84.3952L52.9805 98.6915Z" fill="#8389BE"/>
<path id="Vector_69" opacity="0.3" d="M52.9805 98.6915C53.575 99.0734 54.0716 99.5892 54.4307 100.198C54.7897 100.806 55.0011 101.491 55.0478 102.196V106.365C55.0478 107.662 54.1193 108.205 52.9805 107.539L28.1722 93.3654V92.3317L52.7002 106.348C53.401 106.733 53.9441 106.348 53.9441 105.629V101.775C53.918 101.346 53.7919 100.93 53.5759 100.559C53.3599 100.187 53.06 99.872 52.7002 99.6376L28.1722 85.6216V84.3952L52.9805 98.6915Z" fill="white"/>
<path id="Vector_70" d="M28.1722 84.3952L65.0167 63.3712L89.825 77.5974C90.4167 77.9823 90.9112 78.4989 91.2699 79.1068C91.6285 79.7147 91.8416 80.3974 91.8924 81.1014V85.2712C91.9173 85.5276 91.8736 85.7859 91.7659 86.0199C91.6581 86.2538 91.4902 86.455 91.2792 86.6027L54.4872 107.732C54.6995 107.59 54.8688 107.392 54.9769 107.16C55.085 106.929 55.1277 106.672 55.1004 106.418V102.248C55.0536 101.543 54.8423 100.859 54.4832 100.25C54.1242 99.6418 53.6275 99.1259 53.033 98.7441L28.1722 84.3952Z" fill="#8389BE"/>
<path id="Vector_71" opacity="0.7" d="M28.1722 84.3952L65.0167 63.3712L89.825 77.5974C90.4167 77.9823 90.9112 78.4989 91.2699 79.1068C91.6285 79.7147 91.8416 80.3974 91.8924 81.1014V85.2712C91.9173 85.5276 91.8736 85.7859 91.7659 86.0199C91.6581 86.2538 91.4902 86.455 91.2792 86.6027L54.4872 107.732C54.6995 107.59 54.8688 107.392 54.9769 107.16C55.085 106.929 55.1277 106.672 55.1004 106.418V102.248C55.0536 101.543 54.8423 100.859 54.4832 100.25C54.1242 99.6418 53.6275 99.1259 53.033 98.7441L28.1722 84.3952Z" fill="white"/>
<path id="Vector_72" d="M54.4346 100.163C54.8148 100.768 55.0265 101.464 55.0478 102.178V106.348C55.0751 106.602 55.0324 106.859 54.9244 107.09C54.8163 107.322 54.6469 107.519 54.4346 107.662L91.2266 86.5326C91.4376 86.3849 91.6056 86.1837 91.7133 85.9498C91.821 85.7158 91.8647 85.4575 91.8398 85.2011V81.0314C91.8185 80.3171 91.6068 79.6216 91.2266 79.0165L54.4346 100.163Z" fill="#8389BE"/>
<path id="Vector_73" d="M54.4346 100.163C54.8148 100.768 55.0265 101.464 55.0478 102.178V106.348C55.0751 106.602 55.0324 106.859 54.9244 107.09C54.8163 107.322 54.6469 107.519 54.4346 107.662L91.2266 86.5326C91.4376 86.3849 91.6056 86.1837 91.7133 85.9498C91.821 85.7158 91.8647 85.4575 91.8398 85.2011V81.0314C91.8185 80.3171 91.6068 79.6216 91.2266 79.0165L54.4346 100.163Z" fill="#8389BE"/>
<path id="Vector_74" opacity="0.4" d="M54.4346 100.163C54.8148 100.768 55.0265 101.464 55.0478 102.178V106.348C55.0751 106.602 55.0324 106.859 54.9244 107.09C54.8163 107.322 54.6469 107.519 54.4346 107.662L91.2266 86.5326C91.4376 86.3849 91.6056 86.1837 91.7133 85.9498C91.821 85.7158 91.8647 85.4575 91.8398 85.2011V81.0314C91.8185 80.3171 91.6068 79.6216 91.2266 79.0165L54.4346 100.163Z" fill="white"/>
</g>
<g id="freepik--book--inject-22_5">
<path id="Vector_75" d="M25.4566 80.6109L51.3511 95.3978L88.2132 74.2336L62.3011 59.4642L25.4566 80.6109Z" fill="#8389BE"/>
<path id="Vector_76" opacity="0.5" d="M25.4566 80.6109L51.3511 95.3978L88.2132 74.2336L62.3011 59.4642L25.4566 80.6109Z" fill="black"/>
<path id="Vector_77" d="M51.6139 94.4166L26.4902 80.0152C27.0588 78.1896 27.022 76.2292 26.3851 74.4263L51.3686 88.7051C51.7051 90.5894 51.7876 92.5104 51.6139 94.4166V94.4166Z" fill="#F5F5F5"/>
<path id="Vector_78" d="M50.2649 86.9706C50.8594 87.3525 51.356 87.8684 51.7151 88.4769C52.0741 89.0854 52.2855 89.7696 52.3322 90.4746V94.6269C52.3322 95.9409 51.4037 96.3789 50.2649 95.8182L25.4566 81.592V80.5583L49.9846 94.5743C50.6678 94.9598 51.211 94.5743 51.211 93.856V90.0016C51.1849 89.5729 51.0588 89.1564 50.8428 88.7852C50.6268 88.414 50.3268 88.0986 49.967 87.8642L25.439 73.8482V72.6918L50.2649 86.9706Z" fill="#8389BE"/>
<path id="Vector_79" opacity="0.3" d="M50.2649 86.9706C50.8594 87.3525 51.356 87.8684 51.7151 88.4769C52.0741 89.0854 52.2855 89.7696 52.3322 90.4746V94.6269C52.3322 95.9409 51.4037 96.3789 50.2649 95.8182L25.4566 81.592V80.5583L49.9846 94.5743C50.6678 94.9598 51.211 94.5743 51.211 93.856V90.0016C51.1849 89.5729 51.0588 89.1564 50.8428 88.7852C50.6268 88.414 50.3268 88.0986 49.967 87.8642L25.439 73.8482V72.6918L50.2649 86.9706Z" fill="black"/>
<path id="Vector_80" d="M25.4565 72.7444L62.2485 51.5977L87.1094 65.824C87.7038 66.2058 88.2005 66.7217 88.5595 67.3302C88.9186 67.9388 89.13 68.623 89.1767 69.328V73.5328C89.2074 73.7897 89.1663 74.0501 89.0581 74.2851C88.9499 74.5201 88.7787 74.7206 88.5635 74.8643L51.7715 96.0109C51.9867 95.8672 52.1578 95.6668 52.2661 95.4318C52.3743 95.1967 52.4154 94.9364 52.3847 94.6794V90.5272C52.338 89.8222 52.1266 89.138 51.7676 88.5295C51.4085 87.9209 50.9118 87.405 50.3174 87.0232L25.4565 72.7444Z" fill="#8389BE"/>
<path id="Vector_81" opacity="0.1" d="M25.4565 72.7444L62.2485 51.5977L87.1094 65.824C87.7038 66.2058 88.2005 66.7217 88.5595 67.3302C88.9186 67.9388 89.13 68.623 89.1767 69.328V73.5328C89.2074 73.7897 89.1663 74.0501 89.0581 74.2851C88.9499 74.5201 88.7787 74.7206 88.5635 74.8643L51.7715 96.0109C51.9867 95.8672 52.1578 95.6668 52.2661 95.4318C52.3743 95.1967 52.4154 94.9364 52.3847 94.6794V90.5272C52.338 89.8222 52.1266 89.138 51.7676 88.5295C51.4085 87.9209 50.9118 87.405 50.3174 87.0232L25.4565 72.7444Z" fill="black"/>
<path id="Vector_82" d="M51.719 88.4949C52.0968 89.1074 52.3082 89.8079 52.3322 90.5272V94.6794C52.3629 94.9363 52.3218 95.1967 52.2136 95.4318C52.1054 95.6668 51.9342 95.8672 51.719 96.0109L88.511 74.8643C88.7262 74.7206 88.8974 74.5201 89.0056 74.2851C89.1138 74.0501 89.1549 73.7897 89.1242 73.5328V69.3805C89.1029 68.6663 88.8912 67.9708 88.511 67.3657L51.719 88.4949Z" fill="#8389BE"/>
<path id="Vector_83" d="M51.719 88.4949C52.0968 89.1074 52.3082 89.8079 52.3322 90.5272V94.6794C52.3629 94.9363 52.3218 95.1967 52.2136 95.4318C52.1054 95.6668 51.9342 95.8672 51.719 96.0109L88.511 74.8643C88.7262 74.7206 88.8974 74.5201 89.0056 74.2851C89.1138 74.0501 89.1549 73.7897 89.1242 73.5328V69.3805C89.1029 68.6663 88.8912 67.9708 88.511 67.3657L51.719 88.4949Z" fill="#8389BE"/>
<path id="Vector_84" opacity="0.25" d="M51.719 88.4949C52.0968 89.1074 52.3082 89.8079 52.3322 90.5272V94.6794C52.3629 94.9363 52.3218 95.1967 52.2136 95.4318C52.1054 95.6668 51.9342 95.8672 51.719 96.0109L88.511 74.8643C88.7262 74.7206 88.8974 74.5201 89.0056 74.2851C89.1138 74.0501 89.1549 73.7897 89.1242 73.5328V69.3805C89.1029 68.6663 88.8912 67.9708 88.511 67.3657L51.719 88.4949Z" fill="black"/>
</g>
</g>
<g id="freepik--Trophy--inject-22">
<path id="freepik--shadow--inject-22_2" opacity="0.15" d="M63.8954 65.9466C70.0099 69.4506 70.0099 75.1972 63.8954 78.7187C60.465 80.4525 56.6752 81.3558 52.8316 81.3558C48.9879 81.3558 45.1981 80.4525 41.7677 78.7187C35.6707 75.2147 35.6707 69.4682 41.7677 65.9466C45.1981 64.2129 48.9879 63.3096 52.8316 63.3096C56.6752 63.3096 60.465 64.2129 63.8954 65.9466V65.9466Z" fill="black"/>
<g id="freepik--trophy--inject-22">
<path id="Vector_85" d="M61.1273 44.6949L62.634 45.5709C68.6609 42.0669 76.177 29.067 76.177 22.1116L74.6527 21.2356L64.5086 27.1048C64.5086 27.1048 64.5086 27.8056 64.5086 29.067L66.0854 28.156C66.0854 28.4363 66.0854 29.0495 66.0854 29.908L72.708 26.0886C72.2809 27.7813 71.6942 29.4297 70.956 31.0117C69.5932 33.8886 67.8681 36.5793 65.8226 39.0184C65.0737 39.8313 64.2592 40.5814 63.3874 41.2609C62.8936 41.678 62.379 42.0698 61.8456 42.4348C61.6354 43.1706 61.3959 43.924 61.1273 44.6949Z" fill="#8389BE"/>
<path id="Vector_86" d="M66.0154 27.9808C66.0154 27.9808 66.0154 28.6816 66.0154 29.943L74.5301 25.0199C74.1729 27.4229 73.4336 29.7534 72.3401 31.9228C70.9836 34.8031 69.258 37.4946 67.2067 39.9294C66.5291 40.7213 65.7911 41.4594 64.9992 42.1369C64.3334 42.6801 63.7728 43.0655 63.4399 43.2933C63.2297 44.0291 62.9669 44.8 62.7041 45.5709C68.731 42.0669 76.247 29.067 76.247 22.1116L66.0154 27.9808Z" fill="#8389BE"/>
<path id="Vector_87" opacity="0.4" d="M66.0154 27.9808C66.0154 27.9808 66.0154 28.6816 66.0154 29.943L74.5301 25.0199C74.1729 27.4229 73.4336 29.7534 72.3401 31.9228C70.9836 34.8031 69.258 37.4946 67.2067 39.9294C66.5291 40.7213 65.7911 41.4594 64.9992 42.1369C64.3334 42.6801 63.7728 43.0655 63.4399 43.2933C63.2297 44.0291 62.9669 44.8 62.7041 45.5709C68.731 42.0669 76.247 29.067 76.247 22.1116L66.0154 27.9808Z" fill="white"/>
<path id="Vector_88" d="M76.177 22.1116L66.0154 27.9808L64.5086 27.1048L74.6702 21.2356L76.177 22.1116Z" fill="#8389BE"/>
<path id="Vector_89" opacity="0.6" d="M76.177 22.1116L66.0154 27.9808L64.5086 27.1048L74.6702 21.2356L76.177 22.1116Z" fill="white"/>
<path id="Vector_90" d="M61.8982 70.239C61.8226 69.4397 61.5362 68.6747 61.0684 68.0222C60.6005 67.3696 59.9679 66.8529 59.2351 66.5248C57.2494 65.5223 55.056 65 52.8316 65C50.6071 65 48.4137 65.5223 46.428 66.5248C45.734 66.8478 45.1299 67.3362 44.6686 67.9471C44.2074 68.5581 43.9031 69.2729 43.7825 70.0288V72.2714C43.9001 73.0283 44.2033 73.7444 44.6649 74.3558C45.1265 74.9672 45.7322 75.4549 46.428 75.7754C48.4137 76.7779 50.6071 77.3001 52.8316 77.3001C55.056 77.3001 57.2494 76.7779 59.2351 75.7754C59.9655 75.4487 60.5965 74.9346 61.0642 74.2854C61.5319 73.6362 61.8196 72.8749 61.8982 72.0786V70.239Z" fill="#8389BE"/>
<path id="Vector_91" opacity="0.3" d="M61.8982 70.239C61.8226 69.4397 61.5362 68.6747 61.0684 68.0222C60.6005 67.3696 59.9679 66.8529 59.2351 66.5248C57.2494 65.5223 55.056 65 52.8316 65C50.6071 65 48.4137 65.5223 46.428 66.5248C45.734 66.8478 45.1299 67.3362 44.6686 67.9471C44.2074 68.5581 43.9031 69.2729 43.7825 70.0288V72.2714C43.9001 73.0283 44.2033 73.7444 44.6649 74.3558C45.1265 74.9672 45.7322 75.4549 46.428 75.7754C48.4137 76.7779 50.6071 77.3001 52.8316 77.3001C55.056 77.3001 57.2494 76.7779 59.2351 75.7754C59.9655 75.4487 60.5965 74.9346 61.0642 74.2854C61.5319 73.6362 61.8196 72.8749 61.8982 72.0786V70.239Z" fill="black"/>
<path id="Vector_92" opacity="0.7" d="M54.0142 77.1419C55.8536 77.0471 57.6489 76.5444 59.2702 75.6702C59.8129 75.3554 60.3133 74.9727 60.7594 74.5314V67.6636C60.3133 67.2223 59.8129 66.8397 59.2702 66.5248C57.6489 65.6506 55.8536 65.1479 54.0142 65.0531V77.1419Z" fill="#8389BE"/>
<path id="Vector_93" opacity="0.2" d="M47.707 65.9291C47.2665 66.0957 46.839 66.2949 46.428 66.5248C45.734 66.8478 45.1299 67.3362 44.6686 67.9471C44.2074 68.5581 43.9031 69.2729 43.7825 70.0288V72.2714C43.9001 73.0283 44.2033 73.7444 44.6649 74.3558C45.1265 74.9672 45.7322 75.4549 46.428 75.7754C46.8422 76.0041 47.2692 76.2088 47.707 76.3885V65.9291Z" fill="black"/>
<path id="Vector_94" d="M44.4132 71.9385C44.3256 71.7983 44.2555 71.6581 44.1679 71.5355V71.4129C44.1107 71.3005 44.0638 71.1833 44.0278 71.0625V70.9573C43.9844 70.8075 43.9493 70.6555 43.9226 70.5018V70.5018C43.9046 70.3505 43.9046 70.1976 43.9226 70.0463V69.9061C43.914 69.8012 43.914 69.6957 43.9226 69.5908C43.9141 69.5386 43.9141 69.4853 43.9226 69.4331C43.9226 69.328 43.9226 69.2229 43.9226 69.1177V68.9776C43.9704 68.8275 44.0289 68.6812 44.0978 68.5396L44.1854 68.4169C44.2339 68.3121 44.2926 68.2124 44.3606 68.1191L44.4833 67.9264L44.5884 67.8037L44.7286 67.6285H44.8162C45.845 66.5467 47.1025 65.7084 48.4969 65.175C49.8912 64.6415 51.3872 64.4262 52.8754 64.545C54.3441 64.4235 55.8216 64.6274 57.2025 65.1422C58.5834 65.657 59.8338 66.4701 60.8645 67.5234V67.5234L61.0222 67.7161L61.1273 67.8563L61.2324 68.014C61.3068 68.1187 61.3714 68.2301 61.4251 68.3469V68.452C61.4998 68.5931 61.5643 68.7395 61.6178 68.89C61.6178 68.89 61.6178 68.89 61.6178 69.0301C61.6178 69.1703 61.6178 69.2404 61.6178 69.3455C61.6178 69.4506 61.6178 69.4506 61.6178 69.5032C61.6178 69.5557 61.6178 69.7309 61.6178 69.8361V69.9587C61.6167 70.2748 61.5634 70.5885 61.4602 70.8873C61.4602 70.8873 61.4602 70.8873 61.4602 70.8873L61.6354 71.4304V71.518C61.6354 71.6581 61.4777 71.7983 61.3901 71.9385C61.2826 72.102 61.1594 72.2545 61.0222 72.394V72.394L60.6192 72.7794H60.5141L60.1111 73.0948L60.006 73.1824L59.4103 73.5503C57.427 74.561 55.2327 75.0878 53.0068 75.0878C50.7808 75.0878 48.5865 74.561 46.6032 73.5503L45.8674 73.3225L45.7447 73.2349L45.3593 72.9196H45.2366C45.1054 72.8059 44.9824 72.6829 44.8687 72.5517L44.5183 72.1137L44.4132 71.9385Z" fill="#F0F0F0"/>
<path id="Vector_95" d="M56.8874 67.7162V65.1232C55.7453 64.8055 54.5685 64.6289 53.3834 64.5976V69.1177L53.9441 75.2322C55.7858 75.1373 57.5823 74.6283 59.2001 73.743L59.7958 73.3751L59.9009 73.2875L60.3038 72.9722H60.409L60.6893 72.7093L56.8874 67.7162Z" fill="#FAFAFA"/>
<path id="Vector_96" d="M50.2123 68.6272V64.7377C48.1515 65.0012 46.2514 65.9885 44.8512 67.5234H44.7636L44.6234 67.6986L44.5183 67.8213L44.3957 68.014C44.3276 68.1073 44.2689 68.207 44.2205 68.3118L44.1329 68.4345C44.064 68.576 44.0054 68.7224 43.9577 68.8725V69.0126C43.9577 69.1178 43.9577 69.2229 43.9577 69.328C43.9492 69.3802 43.9492 69.4334 43.9577 69.4857C43.9491 69.5906 43.9491 69.6961 43.9577 69.801V69.9412C43.9397 70.0925 43.9397 70.2454 43.9577 70.3967V70.3967C43.9844 70.5504 44.0195 70.7024 44.0628 70.8522V70.9574C44.0988 71.0781 44.1457 71.1954 44.203 71.3077V71.4304C44.203 71.553 44.3606 71.6932 44.4482 71.8334L44.7986 72.2714C44.9124 72.4026 45.0353 72.5256 45.1666 72.6393H45.2892L45.6746 72.9546L45.7973 73.0422L46.3754 73.4102C46.7878 73.6425 47.215 73.8474 47.6544 74.0234L50.2123 68.6272Z" fill="#E0E0E0"/>
<path id="Vector_97" d="M57.8861 65.2283C57.8438 64.7801 57.6816 64.3516 57.4165 63.9878C57.1513 63.624 56.7931 63.3384 56.3794 63.1609C55.2717 62.5992 54.0472 62.3064 52.8053 62.3064C51.5633 62.3064 50.3388 62.5992 49.2312 63.1609C48.8477 63.3431 48.5156 63.6179 48.2648 63.9604C48.014 64.303 47.8524 64.7026 47.7946 65.1232V66.8752C47.8613 67.2931 48.0307 67.6879 48.2875 68.0243C48.5444 68.3606 48.8807 68.628 49.2662 68.8024C50.3739 69.3642 51.5984 69.6569 52.8403 69.6569C54.0823 69.6569 55.3068 69.3642 56.4144 68.8024C56.8216 68.62 57.1726 68.3323 57.4314 67.9688C57.6901 67.6054 57.8471 67.1794 57.8861 66.735V65.2283Z" fill="#8389BE"/>
<path id="Vector_98" opacity="0.3" d="M57.8861 65.2283C57.8438 64.7801 57.6816 64.3516 57.4165 63.9878C57.1513 63.624 56.7931 63.3384 56.3794 63.1609C55.2717 62.5992 54.0472 62.3064 52.8053 62.3064C51.5633 62.3064 50.3388 62.5992 49.2312 63.1609C48.8477 63.3431 48.5156 63.6179 48.2648 63.9604C48.014 64.303 47.8524 64.7026 47.7946 65.1232V66.8752C47.8613 67.2931 48.0307 67.6879 48.2875 68.0243C48.5444 68.3606 48.8807 68.628 49.2662 68.8024C50.3739 69.3642 51.5984 69.6569 52.8403 69.6569C54.0823 69.6569 55.3068 69.3642 56.4144 68.8024C56.8216 68.62 57.1726 68.3323 57.4314 67.9688C57.6901 67.6054 57.8471 67.1794 57.8861 66.735V65.2283Z" fill="black"/>
<path id="Vector_99" opacity="0.7" d="M53.4886 69.6083C54.5012 69.5512 55.4886 69.27 56.3794 68.7849C56.6706 68.6121 56.941 68.4063 57.1853 68.1717V63.7917C56.9464 63.5459 56.6753 63.3337 56.3794 63.1609C55.478 62.6708 54.4782 62.3894 53.4535 62.3375L53.4886 69.6083Z" fill="#8389BE"/>
<path id="Vector_100" opacity="0.2" d="M49.9846 62.8281C49.7358 62.9177 49.4954 63.0291 49.2662 63.1609C48.8762 63.3385 48.537 63.6113 48.2799 63.9542C48.0227 64.297 47.8558 64.699 47.7946 65.1232V66.8752C47.8613 67.2931 48.0307 67.6879 48.2875 68.0243C48.5444 68.3606 48.8807 68.628 49.2662 68.8024C49.4987 68.9331 49.7385 69.0501 49.9846 69.1528V62.8281Z" fill="black"/>
<path id="Vector_101" d="M57.8861 65.1232C57.7634 63.2135 52.8403 59.8672 52.8403 59.8672C52.8403 59.8672 47.8997 63.2836 47.7946 65.1232C47.7859 65.1989 47.7859 65.2753 47.7946 65.3509V65.3509C47.864 65.7657 48.0346 66.157 48.2913 66.4901C48.548 66.8231 48.8829 67.0878 49.2662 67.2606C50.3739 67.8224 51.5984 68.1152 52.8403 68.1152C54.0823 68.1152 55.3068 67.8224 56.4144 67.2606C56.7935 67.0817 57.1246 66.8152 57.3804 66.4832C57.6363 66.1512 57.8096 65.7631 57.8861 65.3509V65.1232Z" fill="#F0F0F0"/>
<path id="Vector_102" d="M56.3794 67.2782C56.6445 67.1258 56.8914 66.9435 57.1152 66.735C57.1152 64.3523 52.8053 59.727 52.8053 59.727C52.8053 59.727 53.4535 66.2795 53.4535 68.0841C54.4768 68.0376 55.4766 67.7622 56.3794 67.2782V67.2782Z" fill="#FAFAFA"/>
<path id="Vector_103" d="M47.7946 65.1232C47.7859 65.1989 47.7859 65.2753 47.7946 65.3509V65.3509C47.864 65.7657 48.0346 66.157 48.2913 66.4901C48.548 66.8231 48.8829 67.0878 49.2662 67.2606C49.5188 67.4042 49.7824 67.5272 50.0546 67.6285C50.7418 64.9167 51.6863 62.2768 52.8754 59.7445C52.8754 59.7445 47.8997 63.1609 47.7946 65.1232Z" fill="#E0E0E0"/>
<path id="Vector_104" d="M70.1501 29.6802C70.1501 27.1223 68.3981 24.5644 65.0868 22.6722C61.2875 20.7397 57.0853 19.7324 52.8228 19.7324C48.5603 19.7324 44.3581 20.7397 40.5588 22.6722C37.1774 24.6169 35.478 27.1749 35.478 29.6802V32.7462C35.478 35.3041 37.23 37.8621 40.5588 39.7542C44.3581 41.6867 48.5603 42.694 52.8228 42.694C57.0853 42.694 61.2875 41.6867 65.0868 39.7542C68.4682 37.8095 70.1501 35.2516 70.1501 32.7462V29.6802Z" fill="#8389BE"/>
<path id="Vector_105" opacity="0.3" d="M70.1501 29.6802C70.1501 27.1223 68.3981 24.5644 65.0868 22.6722C61.2875 20.7397 57.0853 19.7324 52.8228 19.7324C48.5603 19.7324 44.3581 20.7397 40.5588 22.6722C37.1774 24.6169 35.478 27.1749 35.478 29.6802V32.7462C35.478 35.3041 37.23 37.8621 40.5588 39.7542C44.3581 41.6867 48.5603 42.694 52.8228 42.694C57.0853 42.694 61.2875 41.6867 65.0868 39.7542C68.4682 37.8095 70.1501 35.2516 70.1501 32.7462V29.6802Z" fill="black"/>
<path id="Vector_106" opacity="0.7" d="M66.2782 23.3906V39.0534C67.3854 38.3935 68.3161 37.4749 68.9904 36.3764C69.6648 35.2779 70.0627 34.0322 70.1501 32.7462V29.6802C70.0629 28.3965 69.6649 27.1532 68.9904 26.0575C68.3159 24.9618 67.3851 24.0466 66.2782 23.3906V23.3906Z" fill="#8389BE"/>
<path id="Vector_107" opacity="0.7" d="M52.8754 42.7502C56.2385 42.7911 59.579 42.1967 62.7216 40.9982V21.4634C59.5767 20.2732 56.2377 19.6791 52.8754 19.7114V42.7502Z" fill="#8389BE"/>
<path id="Vector_108" opacity="0.2" d="M41.61 22.0765C41.2596 22.2517 40.9092 22.4269 40.5938 22.6197C37.2125 24.5644 35.513 27.1223 35.513 29.6277V32.6937C35.513 35.2516 37.265 37.8095 40.5938 39.7017C40.9092 39.8944 41.2596 40.0696 41.61 40.2448V22.0765Z" fill="black"/>
<path id="Vector_109" d="M40.6114 22.6197C33.8486 26.5266 33.8486 32.8513 40.6114 36.7583C44.4106 38.6908 48.6128 39.6981 52.8754 39.6981C57.1379 39.6981 61.3401 38.6908 65.1394 36.7583C71.9021 32.8513 71.9021 26.5266 65.1394 22.6197C61.3401 20.6872 57.1379 19.6799 52.8754 19.6799C48.6128 19.6799 44.4106 20.6872 40.6114 22.6197V22.6197Z" fill="#8389BE"/>
<path id="Vector_110" opacity="0.15" d="M40.6114 22.6197C33.8486 26.5266 33.8486 32.8513 40.6114 36.7583C44.4106 38.6908 48.6128 39.6981 52.8754 39.6981C57.1379 39.6981 61.3401 38.6908 65.1394 36.7583C71.9021 32.8513 71.9021 26.5266 65.1394 22.6197C61.3401 20.6872 57.1379 19.6799 52.8754 19.6799C48.6128 19.6799 44.4106 20.6872 40.6114 22.6197V22.6197Z" fill="black"/>
<path id="Vector_111" d="M68.3806 29.6802C68.3741 30.2062 68.2794 30.7274 68.1002 31.222C67.2934 29.4784 65.9149 28.0628 64.1933 27.2099C60.662 25.4267 56.7613 24.4977 52.8053 24.4977C48.8493 24.4977 44.9486 25.4267 41.4173 27.2099C39.7039 28.0683 38.3326 29.4828 37.5278 31.222C37.3402 30.7297 37.2452 30.207 37.2475 29.6802C37.2475 27.6829 38.7192 25.7032 41.4173 24.1614C44.9486 22.3782 48.8493 21.4492 52.8053 21.4492C56.7613 21.4492 60.662 22.3782 64.1933 24.1614C66.8914 25.7032 68.3806 27.6829 68.3806 29.6802Z" fill="#8389BE"/>
<path id="Vector_112" opacity="0.1" d="M45.6396 22.4269C44.1836 22.8392 42.7833 23.4276 41.4698 24.1789C38.7718 25.7207 37.3001 27.6829 37.3001 29.6977C37.2977 30.2246 37.3928 30.7473 37.5804 31.2395C38.3852 29.5003 39.7565 28.0858 41.4698 27.2274C42.7868 26.4831 44.1862 25.8951 45.6396 25.4754V22.4269Z" fill="black"/>
<path id="Vector_113" opacity="0.2" d="M53.2783 24.5294C56.6953 24.5204 60.0731 25.2558 63.1771 26.6843V23.6183C60.0705 22.1977 56.6944 21.4627 53.2783 21.4634V24.5294Z" fill="white"/>
<path id="Vector_114" d="M35.513 32.7462C35.513 35.3041 37.265 37.8621 40.5938 39.7542C44.3931 41.6867 48.5953 42.694 52.8578 42.694C57.1204 42.694 61.3226 41.6867 65.1218 39.7542C68.5032 37.8095 70.1851 35.2516 70.1851 32.7462C70.1851 48.8121 62.0208 62.1273 52.8754 62.1273C43.7299 62.1273 35.5481 48.8121 35.5481 32.7462H35.513Z" fill="#F0F0F0"/>
<path id="Vector_115" d="M52.8754 62.1273C56.9225 62.1273 60.7944 59.4993 63.8429 55.1193C59.6906 60.568 51.6665 59.8672 48.3377 52.8592C46.839 49.3529 45.9275 45.6239 45.6396 41.8216C43.882 41.3748 42.1912 40.6973 40.6114 39.8068C37.23 37.8621 35.5306 35.3042 35.5306 32.7988C35.513 48.8121 43.6949 62.1273 52.8754 62.1273Z" fill="#E0E0E0"/>
<path id="Vector_116" opacity="0.1" d="M40.8566 48.5493C40.1061 45.4572 39.6485 42.3014 39.4901 39.1235C38.3579 38.4648 37.4038 37.5395 36.7107 36.4281C36.0176 35.3166 35.6065 34.0527 35.513 32.7462V32.7462C35.513 48.5142 43.3795 61.6017 52.2972 62.0922C47.2339 61.6192 42.521 55.1368 40.8566 48.5493Z" fill="black"/>
<path id="Vector_117" d="M65.1394 39.8068C60.8013 42.0878 55.9027 43.0845 51.0182 42.6801C51.8592 52.719 54.5222 56.2055 59.3402 53.8053C63.2998 51.808 65.2094 45.3256 66.0854 39.2111C65.735 39.4213 65.4197 39.6141 65.1394 39.8068Z" fill="#FAFAFA"/>
<path id="Vector_118" d="M68.1002 31.222C67.2866 32.9567 65.9095 34.3647 64.1933 35.2165C60.662 36.9998 56.7613 37.9288 52.8053 37.9288C48.8493 37.9288 44.9486 36.9998 41.4173 35.2165C39.7093 34.3592 38.3393 32.9523 37.5278 31.222C38.3326 29.4828 39.7039 28.0683 41.4173 27.2099C44.9486 25.4267 48.8493 24.4977 52.8053 24.4977C56.7613 24.4977 60.662 25.4267 64.1933 27.2099C65.9149 28.0628 67.2934 29.4784 68.1002 31.222V31.222Z" fill="#8389BE"/>
<path id="Vector_119" opacity="0.7" d="M68.1002 31.222C67.2866 32.9567 65.9095 34.3647 64.1933 35.2165C60.662 36.9998 56.7613 37.9288 52.8053 37.9288C48.8493 37.9288 44.9486 36.9998 41.4173 35.2165C39.7093 34.3592 38.3393 32.9523 37.5278 31.222C38.3326 29.4828 39.7039 28.0683 41.4173 27.2099C44.9486 25.4267 48.8493 24.4977 52.8053 24.4977C56.7613 24.4977 60.662 25.4267 64.1933 27.2099C65.9149 28.0628 67.2934 29.4784 68.1002 31.222V31.222Z" fill="white"/>
<path id="Vector_120" opacity="0.1" d="M60.3214 36.8634C61.6719 36.4676 62.9714 35.9149 64.1933 35.2165C65.9095 34.3647 67.2866 32.9567 68.1002 31.222C67.2934 29.4784 65.9149 28.0628 64.1933 27.2099C63.218 26.6513 62.1913 26.1878 61.1273 25.8258C61.2333 29.5228 60.9633 33.221 60.3214 36.8634V36.8634Z" fill="#8389BE"/>
<path id="Vector_121" opacity="0.15" d="M65.3321 27.9457C65.2306 30.2971 64.9672 32.6386 64.5437 34.9537C66.0876 34.1011 67.3161 32.7742 68.0477 31.1694C67.4719 29.8557 66.5289 28.7363 65.3321 27.9457Z" fill="#8389BE"/>
<path id="Vector_122" d="M30.6425 46.6571L40.8041 40.7879L42.3283 41.6639C42.3283 41.6639 42.3283 42.3822 42.3283 43.5561L33.8136 48.4617C34.024 50.1446 34.8175 51.7006 36.0562 52.8592C36.2832 53.0722 36.5231 53.2712 36.7745 53.4549C37.6853 53.8569 38.6697 54.0657 39.6653 54.0681C40.415 54.0686 41.1601 53.9504 41.8728 53.7177C42.404 53.5435 42.9246 53.3388 43.4321 53.1045L44.9563 53.9805C45.1841 54.4535 45.4294 54.9266 45.6922 55.3821C44.3235 56.1827 42.7664 56.6046 41.1808 56.6046C39.5951 56.6046 38.038 56.1827 36.6694 55.3821L35.1451 54.5236C33.7703 53.7361 32.6291 52.5978 31.8381 51.225C31.047 49.8522 30.6344 48.294 30.6425 46.7097V46.7097V46.6571Z" fill="#8389BE"/>
<path id="Vector_123" d="M42.3108 41.6639L32.1492 47.5331L30.625 46.6571L40.7866 40.7879L42.3108 41.6639Z" fill="#8389BE"/>
<path id="Vector_124" opacity="0.6" d="M42.3108 41.6639L32.1492 47.5331L30.625 46.6571L40.7866 40.7879L42.3108 41.6639Z" fill="white"/>
<path id="Vector_125" d="M32.1492 47.6032C32.1483 49.1883 32.565 50.7457 33.3574 52.1185C34.1498 53.4914 35.2898 54.6313 36.6628 55.4235C38.0358 56.2156 39.5932 56.6321 41.1783 56.631C42.7635 56.6299 44.3203 56.2112 45.6922 55.4171C45.4294 54.9616 45.1841 54.4886 44.9563 54.0155C44.4475 54.2467 43.927 54.4514 43.397 54.6287C42.684 54.86 41.9391 54.9782 41.1895 54.9791C39.2709 54.952 37.4349 54.1938 36.0562 52.8592C34.8441 51.7017 34.0702 50.1602 33.8662 48.4967L42.3634 43.5561C42.3634 42.3822 42.3634 41.6639 42.3634 41.6639L32.1492 47.6032Z" fill="#8389BE"/>
<path id="Vector_126" opacity="0.4" d="M32.1492 47.6032C32.1483 49.1883 32.565 50.7457 33.3574 52.1185C34.1498 53.4914 35.2898 54.6313 36.6628 55.4235C38.0358 56.2156 39.5932 56.6321 41.1783 56.631C42.7635 56.6299 44.3203 56.2112 45.6922 55.4171C45.4294 54.9616 45.1841 54.4886 44.9563 54.0155C44.4475 54.2467 43.927 54.4514 43.397 54.6287C42.684 54.86 41.9391 54.9782 41.1895 54.9791C39.2709 54.952 37.4349 54.1938 36.0562 52.8592C34.8441 51.7017 34.0702 50.1602 33.8662 48.4967L42.3634 43.5561C42.3634 42.3822 42.3634 41.6639 42.3634 41.6639L32.1492 47.6032Z" fill="white"/>
</g>
</g>
</g>
</svg>
