<svg preserveAspectRatio="none" width="100%" height="100%" overflow="visible" style="display: block;" viewBox="0 0 65.0868 100.753" fill="none" xmlns="http://www.w3.org/2000/svg">
<g id="freepik--speech-bubble--inject-22">
<g id="freepik--speech-bubble--inject-22_2">
<path id="Vector" d="M37.5453 99.9944L32.2893 90.1131L36.5117 77.8491V70.3856L23.5819 77.8491V85.3126L29.1533 94.9486C29.2397 95.0941 29.3679 95.2101 29.5212 95.2815L37.5453 99.9944Z" fill="#8389BE"/>
<path id="Vector_2" opacity="0.3" d="M37.5453 99.9944L32.2893 90.1131L36.5117 77.8491V70.3856L23.5819 77.8491V85.3126L29.1533 94.9486C29.2397 95.0941 29.3679 95.2101 29.5212 95.2815L37.5453 99.9944Z" fill="black"/>
<path id="Vector_3" d="M65.0868 9.45103C65.0125 8.10735 64.6234 6.79995 63.9508 5.63435C63.2782 4.46875 62.341 3.47759 61.2149 2.74086L58.0613 0.988863C56.8569 0.384695 55.5281 0.0700891 54.1806 0.0700891C52.8332 0.0700891 51.5043 0.384695 50.2999 0.988863L3.87191 27.7594C2.74381 28.4941 1.80515 29.4848 1.13232 30.6508C0.459492 31.8168 0.0715284 33.1253 0 34.4696V91.357C0.0715284 92.7014 0.459492 94.0098 1.13232 95.1758C1.80515 96.3418 2.74381 97.3325 3.87191 98.0672L7.02551 99.8192C8.22706 100.433 9.557 100.753 10.9062 100.753C12.2554 100.753 13.5853 100.433 14.7869 99.8192L31.7112 90.0956L37.2475 99.6965C37.3293 99.8316 37.4474 99.9409 37.5884 100.012C37.7294 100.083 37.8876 100.113 38.0448 100.098C38.202 100.084 38.3519 100.025 38.4774 99.9293C38.6028 99.8334 38.6988 99.7042 38.7542 99.5564L44.6059 82.6321L61.2149 73.0661C62.341 72.3294 63.2782 71.3383 63.9508 70.1727C64.6234 69.0071 65.0125 67.6997 65.0868 66.356V9.45103Z" fill="#8389BE"/>
<path id="Vector_4" opacity="0.3" d="M0 91.2869C0.0715283 92.6313 0.459492 93.9397 1.13232 95.1057C1.80515 96.2718 2.74381 97.2624 3.8719 97.9971L7.02551 99.7491C8.11795 100.303 9.31582 100.617 10.5393 100.672C11.7628 100.726 12.9839 100.519 14.1211 100.064C12.3691 100.765 10.8974 99.7316 10.8974 97.5241V41.7579C10.687 40.0152 10.9035 38.2475 11.5282 36.607L1.13879 30.5801C0.438349 31.7347 0.0462307 33.0499 0 34.3995V91.2869Z" fill="black"/>
<path id="Vector_5" opacity="0.3" d="M64.9642 8.34726C64.5086 6.7179 63.0019 6.1923 61.2149 7.22598L14.7869 33.979C13.4928 34.5603 12.3704 35.4655 11.5282 36.607L1.13879 30.5801C1.789 29.3997 2.72972 28.4047 3.8719 27.6893L50.2999 0.918781C51.5043 0.314613 52.8332 7.50732e-06 54.1806 7.50732e-06C55.528 7.50732e-06 56.8569 0.314613 58.0613 0.918781L61.2149 2.75839C62.1847 3.38863 63.0169 4.20873 63.6613 5.16926C64.3056 6.12978 64.7488 7.21083 64.9642 8.34726V8.34726Z" fill="white"/>
</g>
<path id="Vector_6" d="M53.2279 60.9783C59.5963 46.0114 57.8949 30.9577 49.4277 27.3549C40.9604 23.752 28.9337 32.9643 22.5652 47.9312C16.1968 62.898 17.8982 77.9517 26.3654 81.5546C34.8327 85.1574 46.8594 75.9451 53.2279 60.9783Z" fill="white"/>
<path id="Vector_7" d="M41.9253 56.8601V66.2509L33.8136 70.9462V61.5555L25.6843 66.2509V56.8601L33.8136 52.1648V42.7916L41.9253 38.0962V47.4694L50.0546 42.7916V52.1648L41.9253 56.8601Z" fill="#8389BE"/>
</g>
</svg>
