<svg preserveAspectRatio="none" width="100%" height="100%" overflow="visible" style="display: block;" viewBox="0 0 44.4662 80.7672" fill="none" xmlns="http://www.w3.org/2000/svg">
<g id="freepik--Tea--inject-22">
<path id="Vector" opacity="0.1" d="M42.3731 72.9708C42.3731 77.2807 35.8031 80.7672 27.6913 80.7672C19.5796 80.7672 12.992 77.2632 12.992 72.9708C12.992 68.6784 19.562 65.1569 27.6913 65.1569C35.8206 65.1569 42.3731 68.6609 42.3731 72.9708Z" fill="black"/>
<path id="Vector_2" d="M11.7831 47.9522C6.03658 47.9522 0.710508 47.9522 0.0973082 51.4562C-0.515892 54.9602 1.84931 65.7526 4.93283 68.5207C8.01635 71.2889 15.62 70.2727 15.62 70.2727V66.7687C13.1879 66.9757 10.7382 66.7863 8.36675 66.2081C5.86139 65.2795 4.09187 54.5222 4.09187 53.2608C4.09187 51.9994 12.3613 52.2797 12.3613 52.2797L11.7831 47.9522Z" fill="#E6E6E6"/>
<path id="Vector_3" d="M11.2225 42.5036C11.608 40.9092 13.1848 39.3675 15.988 38.1586C23.5383 35.355 31.8443 35.355 39.3947 38.1586C42.1979 39.385 43.7747 40.9268 44.1601 42.5211C45.2464 53.0331 43.3717 65.0868 39.64 71.797C39.6457 71.8377 39.6457 71.879 39.64 71.9197V72.0248C38.8924 73.2432 37.8342 74.2409 36.574 74.9156C33.8207 76.3102 30.7777 77.0369 27.6913 77.0369C24.605 77.0369 21.562 76.3102 18.8087 74.9156C17.5568 74.2357 16.5055 73.2388 15.7602 72.0248V72.0248V71.9371C15.766 71.8847 15.766 71.8319 15.7602 71.7795C12.046 65.0693 10.2064 52.9455 11.3101 42.5036H11.2225Z" fill="#F5F5F5"/>
<path id="Vector_4" d="M15.9879 38.1586C9.52307 40.9618 9.52307 45.517 15.9879 48.3377C23.5444 51.141 31.8557 51.141 39.4122 48.3377C45.8771 45.5345 45.8771 40.9793 39.4122 38.1586C31.8566 35.3506 23.5436 35.3506 15.9879 38.1586Z" fill="#FAFAFA"/>
<path id="Vector_5" d="M18.248 39.9281C12.992 41.6801 12.992 44.7286 18.248 46.5682C24.4092 48.4077 30.9734 48.4077 37.1346 46.5682C42.3906 44.8162 42.3906 41.7677 37.1346 39.9281C30.9734 38.0886 24.4092 38.0886 18.248 39.9281Z" fill="#E6E6E6"/>
<path id="Vector_6" d="M18.248 43.9752C17.3114 44.2798 16.4257 44.7227 15.62 45.2892C16.4257 45.8557 17.3114 46.2986 18.248 46.6032C24.4092 48.4428 30.9734 48.4428 37.1346 46.6032C38.0674 46.3028 38.9481 45.8595 39.7451 45.2892C38.9481 44.7189 38.0674 44.2756 37.1346 43.9752C30.9721 42.1448 24.4105 42.1448 18.248 43.9752V43.9752Z" fill="#37474F"/>
<path id="Vector_7" d="M25.1684 33.7786C19.9124 29.749 17.1443 22.9862 20.4731 16.2586C23.8019 9.53088 30.1792 4.95816 26.973 0C26.973 0 34.1737 3.60913 32.3692 10.8274C30.004 20.3583 22.0674 21.9526 25.1684 33.7786Z" fill="#E0E0E0"/>
<path id="Vector_8" d="M29.0754 33.7786C29.0754 33.7786 27.3234 27.6466 30.1967 23.5819C33.07 19.5173 36.8192 17.2747 36.8893 12.6494C36.8893 12.6494 40.7963 17.3623 38.0807 22.5483C35.3651 27.7342 30.0215 28.2072 29.0754 33.7786Z" fill="#E0E0E0"/>
</g>
</svg>
