<svg preserveAspectRatio="none" width="100%" height="100%" overflow="visible" style="display: block;" viewBox="0 0 94.9274 127.571" fill="none" xmlns="http://www.w3.org/2000/svg">
<g id="freepik--teddy-bear--inject-22">
<g id="freepik--Paw--inject-22">
<path id="Vector" d="M59.3917 100.648C60.951 103.801 72.6544 111.16 75.7379 112.614C77.9598 113.691 80.3694 114.328 82.8335 114.488C88.3348 114.313 91.3832 111.3 93.7484 104.712C95.3077 100.367 96.3589 89.5399 89.8941 87.1923C82.6408 84.6343 77.6301 91.9227 77.6301 91.9227C77.6301 91.9227 69.9563 89.0319 64.7703 89.9955C59.5844 90.9591 57.85 97.494 59.3917 100.648Z" fill="#EBEBEB"/>
<path id="Vector_2" d="M81.537 96.548C82.137 94.9807 83.0489 93.5516 84.2174 92.347C85.3858 91.1424 86.7865 90.1875 88.3347 89.54C89.5636 89.1934 90.8786 89.3307 92.0093 89.9238C93.1401 90.5169 94.0007 91.5206 94.4142 92.7286C95.2549 96.6884 95.0251 100.801 93.7484 104.642C91.5584 110.774 88.7552 113.805 83.9372 114.331C77.6475 113.823 78.7513 102.557 81.537 96.548Z" fill="#F5F5F5"/>
<path id="Vector_3" d="M88.948 97.1261C89.427 96.7634 89.8155 96.2947 90.083 95.7567C90.3505 95.2186 90.4897 94.6259 90.4897 94.0251C90.4897 92.8512 89.7188 92.2731 88.8603 92.8512C88.3782 93.2111 87.9875 93.6792 87.7197 94.2179C87.4519 94.7566 87.3145 95.3507 87.3186 95.9523C87.3536 97.1261 88.0895 97.6517 88.948 97.1261ZM84.0073 100.63C84.4879 100.274 84.8769 99.8087 85.1419 99.2725C85.407 98.7363 85.5405 98.1447 85.5315 97.5466C85.5315 96.3727 84.7782 95.7946 83.9022 96.3727C83.4215 96.7288 83.0326 97.1942 82.7676 97.7304C82.5025 98.2666 82.3689 98.8582 82.378 99.4563C82.3955 100.683 83.1313 101.208 84.0073 100.665V100.63ZM92.6272 94.9186C92.1452 95.2773 91.7555 95.7457 91.4904 96.285C91.2254 96.8242 91.0925 97.4189 91.1029 98.0196C91.1029 99.1935 91.8563 99.7716 92.7323 99.1935C93.2081 98.829 93.5932 98.3594 93.8576 97.8215C94.1221 97.2836 94.2586 96.6918 94.2565 96.0924C94.239 94.9536 93.5382 94.428 92.6272 94.9536V94.9186ZM87.0032 99.4563C85.7478 100.419 84.7345 101.662 84.044 103.085C83.3536 104.509 83.005 106.074 83.0262 107.656C83.0262 110.774 85.0234 112.158 87.3361 110.757C88.6005 109.807 89.624 108.573 90.324 107.155C91.0239 105.737 91.3808 104.174 91.3657 102.592C91.2256 99.4738 89.2983 98.0897 87.0032 99.4913V99.4563Z" fill="#8389BE"/>
<path id="Vector_4" opacity="0.5" d="M88.948 97.1261C89.427 96.7634 89.8155 96.2947 90.083 95.7567C90.3505 95.2186 90.4897 94.6259 90.4897 94.0251C90.4897 92.8512 89.7188 92.2731 88.8603 92.8512C88.3782 93.2111 87.9875 93.6792 87.7197 94.2179C87.4519 94.7566 87.3145 95.3507 87.3186 95.9523C87.3536 97.1261 88.0895 97.6517 88.948 97.1261ZM84.0073 100.63C84.4879 100.274 84.8769 99.8087 85.1419 99.2725C85.407 98.7363 85.5405 98.1447 85.5315 97.5466C85.5315 96.3727 84.7782 95.7946 83.9022 96.3727C83.4215 96.7288 83.0326 97.1942 82.7676 97.7304C82.5025 98.2666 82.3689 98.8582 82.378 99.4563C82.3955 100.683 83.1313 101.208 84.0073 100.665V100.63ZM92.6272 94.9186C92.1452 95.2773 91.7555 95.7457 91.4904 96.285C91.2254 96.8242 91.0925 97.4189 91.1029 98.0196C91.1029 99.1935 91.8563 99.7716 92.7323 99.1935C93.2081 98.829 93.5932 98.3594 93.8576 97.8215C94.1221 97.2836 94.2586 96.6918 94.2565 96.0924C94.239 94.9536 93.5382 94.428 92.6272 94.9536V94.9186ZM87.0032 99.4563C85.7478 100.419 84.7345 101.662 84.044 103.085C83.3536 104.509 83.005 106.074 83.0262 107.656C83.0262 110.774 85.0234 112.158 87.3361 110.757C88.6005 109.807 89.624 108.573 90.324 107.155C91.0239 105.737 91.3808 104.174 91.3657 102.592C91.2256 99.4738 89.2983 98.0897 87.0032 99.4913V99.4563Z" fill="white"/>
<path id="Vector_5" opacity="0.1" d="M74.2662 98.7555C73.9496 96.1919 74.3689 93.5911 75.4751 91.2569C76.7891 91.6424 77.6475 91.9577 77.6475 91.9577C76.1973 94.048 75.0583 96.3378 74.2662 98.7555Z" fill="black"/>
</g>
<path id="Vector_6" d="M55.9578 57.4433C61.424 55.9191 77.1044 69.7073 78.3483 71.9323C79.5923 74.1574 78.068 81.253 72.2689 81.218C68.7649 81.218 56.9915 69.1992 55.2395 66.2559C53.4875 63.3125 55.9578 57.4433 55.9578 57.4433Z" fill="#F5F5F5"/>
<g id="freepik--Body--inject-22">
<path id="Vector_7" d="M18.2898 93.044C20.3571 105.22 28.8018 109.548 36.5281 110.792C39.8919 111.311 43.3114 111.364 46.6897 110.949C53.943 110.056 67.8539 107.989 72.4792 91.7825C76.8942 76.2948 61.5992 67.2545 61.5992 67.2545C58.2178 54.4649 47.2679 53.6064 41.2059 54.3948C27.6455 56.1468 15.1712 74.718 18.2898 93.044Z" fill="#F5F5F5"/>
<path id="Vector_8" d="M72.5142 91.7825C75.1071 82.164 69.3255 72.5105 61.2313 67.5523C59.1815 58.0915 50.5616 53.3086 41.241 54.3948C43.4549 54.0472 45.7046 53.9884 47.9336 54.2196C50.2006 54.4598 52.3893 55.1849 54.3512 56.3458C56.3131 57.5066 58.0023 59.0759 59.3041 60.9473C60.5364 62.8558 61.4699 64.9414 62.0723 67.1319L61.862 66.8515C70.0964 71.9849 75.878 82.129 72.5142 91.7825V91.7825Z" fill="#E0E0E0"/>
<path id="Vector_9" d="M63.4038 91.0642C62.7459 91.0701 62.0918 91.1644 61.4591 91.3445C61.1963 90.416 60.9159 89.5049 60.5655 88.5939L59.8823 86.8419L60.6532 86.6141L61.2313 86.4389C61.3328 86.4303 61.4311 86.3991 61.5191 86.3475C61.607 86.296 61.6823 86.2255 61.7394 86.1411C61.7394 85.9834 61.7394 85.6505 61.5992 85.5804C61.3184 85.5019 61.0215 85.5019 60.7407 85.5804L60.04 85.6855L59.4968 85.8257C58.86 84.195 58.4817 82.4748 58.3755 80.7274C58.3755 79.7463 58.3755 78.7651 58.3755 77.8015C59.2165 77.5387 60.3728 77.2409 60.7933 76.3649C60.7933 76.2072 60.7933 75.8568 60.5481 75.8393C59.8085 75.8764 59.083 76.0549 58.4106 76.3649V76.3649C58.3933 75.1384 58.2879 73.9147 58.0952 72.7032C58.0952 72.2652 57.9376 71.8272 57.85 71.3892L58.2529 71.1615C58.5711 70.9817 58.8705 70.7704 59.1464 70.5308C59.1887 70.4655 59.2111 70.3895 59.2111 70.3118C59.2111 70.234 59.1887 70.158 59.1464 70.0928C59.1464 69.9876 58.9537 69.7774 58.8135 69.8475L57.5696 70.4431C57.09 68.518 56.3905 66.6545 55.4847 64.8893C55.7482 64.7015 55.9893 64.484 56.2031 64.2411L56.5885 63.7855C56.7275 63.6293 56.8293 63.4436 56.8863 63.2424C56.8847 63.1913 56.8706 63.1413 56.8453 63.0968C56.82 63.0522 56.7843 63.0146 56.7412 62.987C56.698 62.9594 56.6488 62.9427 56.5978 62.9384C56.5468 62.934 56.4955 62.9422 56.4483 62.9621C56.2505 63.1191 56.0686 63.2951 55.9052 63.4877C55.7623 63.6482 55.6102 63.8003 55.4497 63.9432L55.1343 64.2235C54.203 62.5285 53.0866 60.942 51.8055 59.4931C50.112 57.5705 48.0962 55.9579 45.8487 54.7277L45.0428 54.3248C44.3946 54.3248 43.7463 54.3248 43.1507 54.3248H43.2733C45.6676 55.2709 47.8435 56.6958 49.6681 58.512C51.5254 60.3128 53.0969 62.3865 54.3284 64.6615C53.7773 64.9143 53.1822 65.0572 52.5764 65.082C52.3138 65.0699 52.0514 65.1116 51.8055 65.2047C51.7463 65.2369 51.6977 65.2856 51.6654 65.3448V65.3448L51.9282 65.6952H52.0333C52.396 65.783 52.7744 65.783 53.1371 65.6952C53.6493 65.6152 54.1458 65.4556 54.6087 65.2222C55.4696 66.9407 56.1337 68.7509 56.5885 70.6184C55.9742 70.8523 55.3412 71.034 54.6963 71.1615C54.416 71.1615 54.416 71.582 54.5036 71.7747C54.5492 71.9083 54.6372 72.0234 54.7542 72.1025C54.8712 72.1815 55.0108 72.2202 55.1519 72.2127C55.72 72.0681 56.2764 71.8806 56.8163 71.652C57.1228 73.2635 57.2811 74.8997 57.2893 76.5401L56.3958 76.7328C55.9658 76.77 55.5387 76.8344 55.1168 76.9255C54.381 77.1358 54.854 78.1344 55.4672 78.1695C56.0594 78.1835 56.6503 78.1067 57.2192 77.9417V78.3972C57.1226 79.8355 57.1755 81.2798 57.3769 82.7071C57.5901 83.8185 57.9009 84.909 58.3055 85.9659L57.2367 86.2988C56.7835 86.3985 56.3621 86.6092 56.0103 86.912C55.9508 87.0031 55.9191 87.1096 55.9191 87.2185C55.9191 87.3274 55.9508 87.434 56.0103 87.5251C56.0676 87.6173 56.1477 87.6932 56.2429 87.7453C56.338 87.7975 56.445 87.8243 56.5535 87.823C57.0341 87.7201 57.4994 87.5552 57.9375 87.3324L58.6734 87.0871C59.0939 88.1559 59.5144 89.2071 59.8823 90.2933C60.04 90.7313 60.1451 91.1518 60.2677 91.5898L59.8122 91.7475C59.3323 91.935 58.8643 92.1515 58.4106 92.3957C58.1492 92.5429 57.8976 92.7068 57.6572 92.8863C57.534 92.9776 57.4222 93.0835 57.3243 93.2016C57.276 93.2977 57.2351 93.3972 57.2017 93.4995C57.0791 93.7448 57.2017 94.2178 57.5872 94.1477H57.7448C57.872 94.1742 58.0032 94.1742 58.1303 94.1477C58.4456 94.0251 58.7435 93.8674 59.0588 93.7272C59.3742 93.5871 60.0049 93.2542 60.4955 93.044H60.5831C60.6882 93.5345 60.7933 94.0251 60.8634 94.5331C61.3305 97.297 61.36 100.117 60.951 102.89C60.6652 104.633 60.0337 106.301 59.0939 107.796C59.5844 107.568 60.075 107.305 60.5655 107.042C60.8442 106.475 61.0842 105.89 61.2839 105.29C62.0948 102.62 62.3687 99.8154 62.0898 97.0385C62.0076 95.5786 61.8203 94.1265 61.5292 92.6935C62.1774 92.4833 62.8432 92.2906 63.4914 92.0278C64.1396 91.765 63.7542 91.0817 63.4038 91.0642Z" fill="#EBEBEB"/>
<path id="Vector_10" opacity="0.05" d="M70.5169 96.8633C66.0317 105.746 51.8055 108.024 39.0685 105.325L38.2801 105.15C30.5012 103.241 23.8962 98.8956 24.2641 86.7893C28.3638 74.9108 27.7681 67.1494 36.7558 65.8529C39.0817 65.5669 41.4209 65.4032 43.7638 65.3624C45.6415 65.2406 47.5053 64.9592 49.3352 64.5214C50.9767 64.2345 52.5414 63.6119 53.9311 62.6924C55.3209 61.7729 56.5059 60.5764 57.4119 59.1778C52.629 54.1145 45.691 53.9218 41.2935 54.3948C27.733 56.1468 15.2588 74.7531 18.3774 93.044C20.4447 105.22 28.8894 109.548 36.6157 110.792C39.9796 111.311 43.3989 111.364 46.7773 110.949C53.102 110.161 64.7002 108.444 70.5169 96.8633Z" fill="black"/>
</g>
<path id="Vector_11" d="M25.0525 61.8408C28.3288 63.1899 28.0309 67.675 26.1913 75.2086C24.0539 83.9686 17.116 100.805 17.116 100.805C17.116 100.805 12.2454 105.255 5.2374 100.7C-1.7706 96.145 0.279239 90.7138 0.279239 90.7138C0.279239 90.7138 18.2022 59.0551 25.0525 61.8408Z" fill="#F5F5F5"/>
<path id="Vector_12" d="M48.4417 82.7597C48.4233 82.9925 48.4593 83.2264 48.5468 83.443C48.6819 83.6448 48.8618 83.8127 49.0724 83.9335C50.4576 84.7367 51.9047 85.428 53.3999 86.0009C53.3999 86.0009 52.629 80.2719 52.5589 79.6236C52.2786 77.4862 52.0333 75.3663 51.7881 73.2288C51.5428 71.0914 51.315 68.9715 51.1048 66.8515C50.9471 65.3623 51.2274 62.5942 50.4565 61.3503C49.7382 61.7357 49.4929 63.3125 49.3528 64.0659C49.0199 66.0456 48.9498 68.1305 48.8096 70.1278C48.5118 74.3326 48.3892 78.5549 48.4417 82.7597Z" fill="#8389BE"/>
<path id="Vector_13" d="M60.2502 76.8204C60.3718 77.0098 60.444 77.2267 60.4604 77.4512C60.4382 77.6934 60.3603 77.9273 60.2326 78.1344C59.3559 79.4746 58.3778 80.7456 57.3068 81.9363L55.1694 75.8568C54.4511 73.842 53.7152 71.8448 52.9619 69.83C52.2085 67.8152 51.4552 65.8179 50.6843 63.8206C50.4215 63.1548 48.7921 60.8072 49.8433 60.194C50.5967 59.7735 51.5953 61.3328 51.8581 61.8233C52.699 63.1023 53.4349 64.4163 54.2058 65.7128C56.2906 69.3219 58.3055 72.966 60.2502 76.8204Z" fill="#8389BE"/>
<path id="Vector_14" d="M41.3111 70.2154C41.1737 70.5478 41.121 70.9091 41.1577 71.2668C41.1944 71.6246 41.3193 71.9677 41.5213 72.2652C41.825 72.6157 42.21 72.8864 42.6426 73.0536C43.5287 73.4849 44.4561 73.8254 45.4107 74.0698C47.9161 74.7356 48.9147 70.6709 49.2826 68.8138C49.7785 66.6429 50.0833 64.4328 50.1937 62.2088C50.1937 61.4904 50.1937 60.5969 49.4754 60.2991C48.7571 60.0012 48.2315 60.4743 47.7234 60.8772C45.1029 63.203 43.022 66.0731 41.6264 69.2868C41.4971 69.5876 41.3917 69.8981 41.3111 70.2154V70.2154Z" fill="#8389BE"/>
<path id="Vector_15" opacity="0.2" d="M41.3111 70.2154C41.1737 70.5478 41.121 70.9091 41.1577 71.2668C41.1944 71.6246 41.3193 71.9677 41.5213 72.2652C41.825 72.6157 42.21 72.8864 42.6426 73.0536C43.5287 73.4849 44.4561 73.8254 45.4107 74.0698C47.9161 74.7356 48.9147 70.6709 49.2826 68.8138C49.7785 66.6429 50.0833 64.4328 50.1937 62.2088C50.1937 61.4904 50.1937 60.5969 49.4754 60.2991C48.7571 60.0012 48.2315 60.4743 47.7234 60.8772C45.1029 63.203 43.022 66.0731 41.6264 69.2868C41.4971 69.5876 41.3917 69.8981 41.3111 70.2154V70.2154Z" fill="white"/>
<path id="Vector_16" d="M62.0022 63.3826C62.3069 63.5685 62.5628 63.8244 62.7487 64.1292C62.9346 64.4339 63.045 64.7786 63.0709 65.1346C63.0354 65.5939 62.8913 66.0383 62.6504 66.4311C62.1999 67.3095 61.666 68.1426 61.0561 68.9189C59.4618 70.9512 56.2381 68.2882 54.8365 67.1669C53.1369 65.7301 51.5604 64.1536 50.1236 62.454C49.6681 61.8934 49.195 61.1225 49.563 60.4918C49.9309 59.8611 50.6492 59.8786 51.315 59.9136C54.8063 60.182 58.1968 61.2105 61.2488 62.9271C61.51 63.0616 61.7617 63.2137 62.0022 63.3826V63.3826Z" fill="#8389BE"/>
<path id="Vector_17" opacity="0.2" d="M62.0022 63.3826C62.3069 63.5685 62.5628 63.8244 62.7487 64.1292C62.9346 64.4339 63.045 64.7786 63.0709 65.1346C63.0354 65.5939 62.8913 66.0383 62.6504 66.4311C62.1999 67.3095 61.666 68.1426 61.0561 68.9189C59.4618 70.9512 56.2381 68.2882 54.8365 67.1669C53.1369 65.7301 51.5604 64.1536 50.1236 62.454C49.6681 61.8934 49.195 61.1225 49.563 60.4918C49.9309 59.8611 50.6492 59.8786 51.315 59.9136C54.8063 60.182 58.1968 61.2105 61.2488 62.9271C61.51 63.0616 61.7617 63.2137 62.0022 63.3826V63.3826Z" fill="white"/>
<path id="Vector_18" d="M46.4619 25.5044C49.8422 23.5834 52.4357 20.5307 53.7853 16.8845C54.6385 14.8178 55.2272 12.6515 55.5373 10.4371C56.2031 5.70675 55.9753 2.55315 53.2772 2.11515C51.1748 1.76475 46.2692 1.2917 44.1668 6.84554C43.6751 8.17741 43.3571 9.5671 43.2207 10.9803C42.5946 15.651 42.7962 20.3955 43.8164 24.9963L46.4619 25.5044Z" fill="#F5F5F5"/>
<path id="Vector_19" d="M44.4822 25.1014C43.904 19.8454 44.9202 11.3482 46.7773 7.86171C48.6344 4.37523 52.0333 1.95748 53.1371 3.07876C54.2408 4.20004 53.8028 11.4883 51.2099 16.7794C49.7205 19.8649 47.8295 22.7397 45.586 25.3292L44.4822 25.1014Z" fill="#8389BE"/>
<path id="Vector_20" opacity="0.5" d="M44.4822 25.1014C43.904 19.8454 44.9202 11.3482 46.7773 7.86171C48.6344 4.37523 52.0333 1.95748 53.1371 3.07876C54.2408 4.20004 53.8028 11.4883 51.2099 16.7794C49.7205 19.8649 47.8295 22.7397 45.586 25.3292L44.4822 25.1014Z" fill="white"/>
<path id="Vector_21" opacity="0.1" d="M53.2422 2.11515C51.1398 1.76475 46.2342 1.2917 44.1318 6.84554C45.2706 4.91834 47.9686 5.47898 49.3878 7.03826C51.4026 9.28082 51.1398 12.7323 54.6438 14.7821C55.0823 13.3623 55.4046 11.9092 55.6074 10.4371C56.168 5.70675 55.9403 2.55315 53.2422 2.11515Z" fill="black"/>
<path id="Vector_22" d="M44.1318 6.84553C46.0765 1.67713 50.1236 -0.600447 56.2031 0.187953C60.4079 0.748593 62.7906 7.70401 61.0035 13.0301C59.9874 16.0786 55.4848 16.2538 53.4875 10.6123C51.9633 6.39003 47.7234 1.62457 44.1318 6.84553Z" fill="#EBEBEB"/>
<g id="freepik--Head--inject-22">
<path id="Vector_23" d="M58.7435 50.4704C59.7299 47.1476 59.9188 43.639 59.2947 40.2296C58.6707 36.8201 57.2513 33.6059 55.1519 30.848C50.3163 24.6809 40.5577 21.8777 31.4473 24.313C22.3369 26.7483 16.2399 33.7387 15.9596 43.2346C15.5917 55.2533 24.0363 62.7168 36.1602 63.0848C41.0874 63.3066 45.999 62.3831 50.5091 60.3867C54.2583 58.5296 56.8513 56.69 58.7435 50.4704Z" fill="#F5F5F5"/>
<path id="Vector_24" d="M47.6533 38.9422C47.834 38.9447 48.0131 38.9089 48.1789 38.8371C48.319 38.732 48.1789 38.5392 48.0563 38.5042C47.7292 38.4165 47.3847 38.4165 47.0576 38.5042H46.6021C45.8982 36.4775 44.9883 34.5284 43.8865 32.6875L43.6763 32.3547H44.0617H44.4997C44.6811 32.3657 44.8621 32.3294 45.0253 32.2495C45.1655 32.1619 45.0253 31.9517 44.9202 31.9167C44.5871 31.8291 44.2371 31.8291 43.904 31.9167L43.396 32.0218C42.2714 30.2764 40.8959 28.7061 39.3138 27.3615V27.3615L39.7343 27.2739C40.0325 27.2655 40.3278 27.2123 40.6103 27.1162C40.8205 27.0111 40.6103 26.7483 40.4351 26.7132C40.2734 26.6782 40.1062 26.6782 39.9445 26.7132L39.454 26.8008C39.2169 26.8367 38.9827 26.8894 38.7532 26.9585C37.5595 26.0264 36.2377 25.2711 34.8286 24.716C34.1257 24.4344 33.3985 24.2174 32.6562 24.0677C32.078 24.1903 31.4648 24.348 30.9042 24.5232C31.906 24.6005 32.8945 24.8005 33.8475 25.1189C35.3031 25.6241 36.6692 26.3574 37.8946 27.2914L37.5618 27.4491C37.2723 27.5443 37.0126 27.7134 36.8084 27.9396C36.8084 27.9396 36.8084 28.1499 36.896 28.1499C37.2015 28.0868 37.4965 27.9806 37.772 27.8345L38.3502 27.6418L38.9634 28.1499C40.3047 29.3844 41.4823 30.7858 42.4674 32.3196C42.2844 32.3835 42.1082 32.4656 41.9418 32.5649C41.6965 32.6876 41.3636 32.8628 41.276 33.1431C41.26 33.1595 41.251 33.1814 41.251 33.2044C41.251 33.2273 41.26 33.2493 41.276 33.2657C41.5793 33.2251 41.8713 33.1238 42.1345 32.9679L42.7302 32.67C43.9344 34.5869 44.9216 36.6318 45.6735 38.767C45.6735 38.767 45.6735 38.767 45.6735 38.8721C45.4553 38.9535 45.2444 39.0532 45.0428 39.17C44.7976 39.3101 44.4822 39.4853 44.3946 39.7656C44.307 40.046 44.3946 39.8708 44.3946 39.8708C44.7036 39.8435 44.9999 39.7347 45.2531 39.5554L45.7786 39.3451C46.1115 40.3263 46.3919 41.3074 46.6372 42.3235C46.8824 43.3397 47.0927 44.864 47.3204 46.1429C47.3204 46.4758 48.0738 46.4758 48.0563 46.1429C47.9107 43.7492 47.4209 41.389 46.6021 39.1349H47.0576L47.6533 38.9422Z" fill="#EBEBEB"/>
<path id="Vector_25" d="M43.6412 44.3734C51.2799 41.5877 55.9052 43.147 58.2354 48.1402C60.5655 53.1334 57.3769 60.5969 48.4242 62.5767C43.869 63.5929 38.3677 63.9257 35.7923 59.6508C32.7263 54.535 36.7909 46.8788 43.6412 44.3734Z" fill="#EBEBEB"/>
<path id="Vector_26" d="M52.664 45.7224C52.3701 45.5825 52.0466 45.5159 51.7214 45.5283C51.3961 45.5407 51.0786 45.6318 50.7962 45.7937C50.5138 45.9555 50.2748 46.1834 50.0997 46.4578C49.9246 46.7322 49.8186 47.045 49.7907 47.3693C48.3541 46.0553 45.9714 45.8801 45.1655 48.0351C44.3595 50.19 47.1977 51.9595 50.7543 51.942C53.3823 50.4353 54.9942 46.8087 52.664 45.7224Z" fill="#8389BE"/>
<path id="Vector_27" d="M42.7302 53.5714C43.0732 53.9353 43.4619 54.2533 43.8865 54.5175C44.4229 54.8386 45.019 55.0472 45.6385 55.1307C46.4104 55.2005 47.1881 55.0988 47.9161 54.8328C48.2146 54.702 48.5258 54.6022 48.8447 54.535C49.0374 54.535 49.1075 54.6226 49.1425 54.7978C49.1645 54.9189 49.1495 55.0439 49.0995 55.1563C49.0495 55.2688 48.9668 55.3637 48.8622 55.4285C48.6848 55.5398 48.497 55.6337 48.3015 55.7088C47.9084 55.8786 47.4969 56.0021 47.0752 56.0767C46.4935 56.15 45.9049 56.15 45.3232 56.0767C44.577 55.9364 43.8638 55.657 43.2207 55.2533C42.8444 55.0177 42.5459 54.6765 42.3623 54.2722C42.3623 54.0619 42.4323 53.2735 42.7302 53.5714Z" fill="#37474F"/>
<path id="Vector_28" opacity="0.1" d="M52.0859 45.5297C51.5503 45.4646 51.0106 45.6113 50.5818 45.9387C50.153 46.266 49.8691 46.748 49.7907 47.2817C50.0276 47.4508 50.1956 47.6996 50.2638 47.9825C50.2638 47.9825 50.1236 45.5823 52.0859 45.5297Z" fill="black"/>
<path id="Vector_29" d="M52.1034 45.9677C51.788 45.9677 51.5428 46.1429 51.6128 46.4933C51.6632 46.677 51.7668 46.8416 51.9107 46.9664C52.0534 47.0857 52.188 47.2145 52.3136 47.3518C52.3136 47.4569 52.4538 47.6146 52.5764 47.6847C52.6276 47.7169 52.6857 47.7367 52.7459 47.7423C52.8062 47.748 52.8669 47.7394 52.9232 47.7172C52.9795 47.695 53.0298 47.6599 53.07 47.6147C53.1102 47.5695 53.1392 47.5154 53.1546 47.4569C53.1808 47.3062 53.1808 47.1521 53.1546 47.0014C53.1339 46.7311 53.016 46.4775 52.8227 46.2875C52.6295 46.0975 52.374 45.9839 52.1034 45.9677V45.9677Z" fill="white"/>
<path id="Vector_30" opacity="0.1" d="M52.2261 50.7682C51.8247 51.1419 51.3462 51.423 50.8244 51.5916C49.4413 51.5896 48.1117 51.0565 47.1102 50.1024C45.6911 48.9987 45.7787 46.9138 46.7598 46.4933C46.3876 46.599 46.0473 46.7951 45.7691 47.064C45.4909 47.333 45.2836 47.6666 45.1655 48.0351C44.4822 50.19 47.1978 51.942 50.7543 51.942C51.3003 51.6257 51.7963 51.2301 52.2261 50.7682Z" fill="black"/>
<path id="Vector_31" d="M32.3057 44.1982C32.3346 44.7182 32.5174 45.218 32.8308 45.634C33.1443 46.0499 33.5743 46.3634 34.0662 46.5345C34.5582 46.7057 35.0898 46.7268 35.5938 46.5952C36.0977 46.4635 36.5513 46.1851 36.8967 45.7953C37.2421 45.4055 37.4639 44.9218 37.5339 44.4056C37.6039 43.8895 37.5189 43.3642 37.2898 42.8965C37.0607 42.4287 36.6978 42.0396 36.2471 41.7785C35.7964 41.5174 35.2783 41.3961 34.7586 41.43C34.0675 41.4751 33.4221 41.7912 32.9628 42.3096C32.5035 42.8279 32.2673 43.5067 32.3057 44.1982V44.1982Z" fill="#263238"/>
<path id="Vector_32" d="M35.3718 43.3222C35.3954 43.5438 35.3524 43.7674 35.2484 43.9644C35.1443 44.1615 34.984 44.323 34.7877 44.4285C34.5914 44.534 34.3682 44.5787 34.1464 44.5567C33.9247 44.5348 33.7145 44.4473 33.5427 44.3054C33.3709 44.1635 33.2453 43.9735 33.1819 43.7599C33.1185 43.5463 33.1201 43.3187 33.1867 43.106C33.2532 42.8933 33.3817 42.7053 33.5556 42.566C33.7294 42.4266 33.9408 42.3422 34.1629 42.3235C34.308 42.3091 34.4545 42.3235 34.5939 42.3659C34.7334 42.4084 34.8631 42.4781 34.9755 42.5709C35.0879 42.6638 35.1808 42.7779 35.2488 42.9069C35.3168 43.0358 35.3586 43.177 35.3718 43.3222V43.3222Z" fill="#455A64"/>
<path id="Vector_33" d="M34.2855 44.4259C34.3002 44.5906 34.2497 44.7544 34.1449 44.8822C34.04 45.01 33.8892 45.0915 33.7249 45.1092C33.5585 45.1192 33.3947 45.0646 33.2674 44.957C33.1402 44.8493 33.0593 44.6968 33.0416 44.5311C33.0344 44.4505 33.0432 44.3693 33.0675 44.2921C33.0919 44.2149 33.1312 44.1433 33.1833 44.0815C33.2355 44.0196 33.2993 43.9686 33.3712 43.9315C33.4431 43.8944 33.5216 43.8719 33.6023 43.8653C33.6842 43.8556 33.7673 43.8626 33.8465 43.8857C33.9257 43.9089 33.9994 43.9479 34.0632 44.0002C34.127 44.0526 34.1796 44.1172 34.2178 44.1904C34.256 44.2636 34.279 44.3437 34.2855 44.4259Z" fill="#FAFAFA"/>
<path id="Vector_34" d="M50.0535 40.4139C50.1074 41.1066 50.4316 41.7503 50.9561 42.2059C51.4806 42.6616 52.1633 42.8927 52.8567 42.8491C53.3703 42.8101 53.8608 42.62 54.2665 42.3028C54.6722 41.9856 54.975 41.5554 55.1369 41.0665C55.2987 40.5776 55.3123 40.0517 55.176 39.5551C55.0396 39.0585 54.7594 38.6133 54.3706 38.2755C53.9819 37.9378 53.5019 37.7225 52.991 37.657C52.4802 37.5914 51.9615 37.6784 51.5 37.9069C51.0385 38.1355 50.6549 38.4955 50.3975 38.9416C50.1402 39.3877 50.0204 39.8999 50.0535 40.4139V40.4139Z" fill="#263238"/>
<path id="Vector_35" d="M53.1196 39.5379C53.1474 39.8306 53.0579 40.1224 52.8706 40.3491C52.6833 40.5759 52.4136 40.7189 52.1209 40.7468C51.8282 40.7746 51.5364 40.6851 51.3096 40.4978C51.0829 40.3105 50.9399 40.0408 50.9121 39.7481C50.8951 39.6026 50.9078 39.4552 50.9493 39.3147C50.9908 39.1743 51.0602 39.0436 51.1535 38.9307C51.2468 38.8178 51.362 38.7249 51.4921 38.6576C51.6222 38.5903 51.7646 38.5501 51.9107 38.5392C52.0557 38.5248 52.2022 38.5392 52.3417 38.5816C52.4812 38.6241 52.6109 38.6937 52.7233 38.7866C52.8357 38.8794 52.9286 38.9936 52.9966 39.1226C53.0646 39.2515 53.1064 39.3927 53.1196 39.5379V39.5379Z" fill="#455A64"/>
<path id="Vector_36" d="M52.0508 40.6416C52.0608 40.808 52.0063 40.9718 51.8986 41.0991C51.7909 41.2263 51.6384 41.3072 51.4726 41.3249C51.3845 41.3454 51.293 41.3467 51.2043 41.3287C51.1157 41.3107 51.0319 41.2738 50.9587 41.2206C50.8856 41.1674 50.8247 41.099 50.7803 41.0202C50.7359 40.9413 50.7089 40.8539 50.7013 40.7637C50.6937 40.6735 50.7056 40.5828 50.7361 40.4976C50.7667 40.4124 50.8152 40.3348 50.8784 40.2701C50.9416 40.2053 51.018 40.1549 51.1024 40.1223C51.1868 40.0897 51.2772 40.0756 51.3675 40.081C51.5322 40.0663 51.696 40.1167 51.8238 40.2216C51.9516 40.3264 52.0331 40.4773 52.0508 40.6416V40.6416Z" fill="#FAFAFA"/>
</g>
<g id="freepik--bunny-ears--inject-22">
<path id="Vector_37" d="M23.4582 37.2778C20.4239 35.7722 17.7233 33.6717 15.5172 31.1013C13.311 28.531 11.6442 25.5432 10.616 22.3157C7.42739 11.5759 11.0015 1.86987 15.6618 0.222987C21.6011 -1.86189 22.3019 11.173 22.9852 18.4788C23.5735 24.3723 24.5272 30.2236 25.8409 35.9988L23.4582 37.2778Z" fill="#F5F5F5"/>
<path id="Vector_38" d="M23.9838 36.9274C23.9838 36.9274 17.624 31.4962 15.5917 26.2752C12.0877 17.1298 14.0675 11.173 16.1348 10.1393C19.6388 8.38731 20.5324 18.7942 21.5135 23.472C22.3407 27.8362 23.5604 32.1168 25.1576 36.2616L23.9838 36.9274Z" fill="#8389BE"/>
<path id="Vector_39" opacity="0.5" d="M23.9838 36.9274C23.9838 36.9274 17.624 31.4962 15.5917 26.2752C12.0877 17.1298 14.0675 11.173 16.1348 10.1393C19.6388 8.38731 20.5324 18.7942 21.5135 23.472C22.3407 27.8362 23.5604 32.1168 25.1576 36.2616L23.9838 36.9274Z" fill="white"/>
</g>
<g id="freepik--paw--inject-22">
<path id="Vector_40" d="M52.8217 120.515C54.4395 114.388 54.1088 107.91 51.8756 101.979C50.952 99.8876 49.2632 98.2286 47.1555 97.3425C45.0477 96.4564 42.6808 96.4103 40.5402 97.2137C39.0932 97.7237 37.8593 98.7046 37.0362 99.9994C37.0362 99.9994 33.2168 97.6868 29.8004 102.487C27.225 106.114 28.3463 109.092 29.8004 113.332C31.9729 119.306 37.0187 128.434 45.148 127.506L52.8217 120.515Z" fill="#EBEBEB"/>
<path id="Vector_41" opacity="0.1" d="M37.0887 99.9994C34.8702 102.317 33.5476 105.347 33.357 108.549C32.5335 105.728 33.1467 101.191 35.109 99.4563C35.7997 99.4962 36.4743 99.6812 37.0887 99.9994V99.9994Z" fill="black"/>
<path id="Vector_42" d="M44.8676 99.9293C47.3204 99.9293 49.2651 100.735 51.4376 104.274C53.0144 106.85 54.0831 112.596 53.1896 118.851C52.6465 122.74 49.8433 127.418 44.7975 127.523C39.7518 127.628 37.5442 123.476 36.3529 119.604C35.1615 115.732 34.7761 109.25 37.3515 104.642C38.0714 103.259 39.1476 102.092 40.4689 101.264C41.7902 100.435 43.3087 99.9747 44.8676 99.9293V99.9293Z" fill="#F5F5F5"/>
<path id="Vector_43" d="M45.4983 107.025C45.9518 106.6 46.2713 106.052 46.4176 105.448C46.5639 104.845 46.5306 104.211 46.3218 103.626C45.9188 102.33 44.8851 101.786 44.0266 102.382C43.5495 102.813 43.2138 103.379 43.0638 104.004C42.9137 104.629 42.9562 105.285 43.1857 105.886C43.5887 107.077 44.6223 107.638 45.4983 107.025ZM52.1034 107.463C51.753 106.166 50.7544 105.571 49.8608 106.131C49.3834 106.536 49.0357 107.073 48.8613 107.674C48.6868 108.276 48.6932 108.915 48.8797 109.513C49.2301 110.809 50.2288 111.405 51.1223 110.827C51.5982 110.424 51.9451 109.891 52.1196 109.293C52.2941 108.694 52.2885 108.058 52.1034 107.463V107.463ZM39.7518 107.463C38.8057 106.99 37.8596 107.673 37.6319 108.987C37.5026 109.598 37.5548 110.234 37.782 110.816C38.0093 111.398 38.4016 111.901 38.9108 112.263C39.8569 112.736 40.803 112.053 41.0307 110.722C41.1697 110.105 41.1223 109.461 40.8946 108.872C40.6669 108.282 40.2691 107.773 39.7518 107.41V107.463ZM43.3609 111.142C41.0658 112.736 40.0846 116.766 41.1709 120.165C42.2571 123.564 44.9727 125 47.2679 123.406C49.563 121.812 50.5266 117.765 49.4579 114.383C48.3891 111.002 45.6385 109.495 43.3609 111.09V111.142Z" fill="#8389BE"/>
<path id="Vector_44" opacity="0.5" d="M45.4983 107.025C45.9518 106.6 46.2713 106.052 46.4176 105.448C46.5639 104.845 46.5306 104.211 46.3218 103.626C45.9188 102.33 44.8851 101.786 44.0266 102.382C43.5495 102.813 43.2138 103.379 43.0638 104.004C42.9137 104.629 42.9562 105.285 43.1857 105.886C43.5887 107.077 44.6223 107.638 45.4983 107.025ZM52.1034 107.463C51.753 106.166 50.7544 105.571 49.8608 106.131C49.3834 106.536 49.0357 107.073 48.8613 107.674C48.6868 108.276 48.6932 108.915 48.8797 109.513C49.2301 110.809 50.2288 111.405 51.1223 110.827C51.5982 110.424 51.9451 109.891 52.1196 109.293C52.2941 108.694 52.2885 108.058 52.1034 107.463V107.463ZM39.7518 107.463C38.8057 106.99 37.8596 107.673 37.6319 108.987C37.5026 109.598 37.5548 110.234 37.782 110.816C38.0093 111.398 38.4016 111.901 38.9108 112.263C39.8569 112.736 40.803 112.053 41.0307 110.722C41.1697 110.105 41.1223 109.461 40.8946 108.872C40.6669 108.282 40.2691 107.773 39.7518 107.41V107.463ZM43.3609 111.142C41.0658 112.736 40.0846 116.766 41.1709 120.165C42.2571 123.564 44.9727 125 47.2679 123.406C49.563 121.812 50.5266 117.765 49.4579 114.383C48.3891 111.002 45.6385 109.495 43.3609 111.09V111.142Z" fill="white"/>
</g>
</g>
</svg>
