<svg preserveAspectRatio="none" width="100%" height="100%" overflow="visible" style="display: block;" viewBox="0 0 133.993 396.18" fill="none" xmlns="http://www.w3.org/2000/svg">
<g id="freepik--window--inject-22">
<g id="freepik--Frame--inject-22">
<path id="Vector" d="M127.423 382.83L123.972 384.897L6.51744 317.095L9.96888 315.027L127.423 382.83Z" fill="#FAFAFA"/>
<path id="Vector_2" d="M9.96888 315.027L123.972 380.832V81.1001L9.96888 15.3125V315.027Z" fill="white"/>
<path id="Vector_3" d="M0 320.844L130.489 396.18V77.3158L0 1.97976V320.844ZM6.51744 13.2977L123.901 81.1001V384.897L6.51744 317.094V13.2977Z" fill="#F0F0F0"/>
<path id="Vector_4" d="M6.51744 317.094L9.96888 315.027V15.3125L6.51744 13.2977V317.094Z" fill="#E0E0E0"/>
<path id="Vector_5" d="M123.972 277.096V281.143L6.51744 213.341L9.96888 211.274L123.972 277.096Z" fill="#FAFAFA"/>
<path id="Vector_6" d="M123.972 173.29V177.355L6.51744 109.553L9.96888 107.485L123.972 173.29Z" fill="#FAFAFA"/>
<path id="Vector_7" d="M0 2.0148L3.52154 0L133.993 75.336L130.489 77.3333L0 2.0148Z" fill="#FAFAFA"/>
<path id="Vector_8" d="M133.993 75.336L130.489 77.3333V396.18L133.993 394.165V75.336Z" fill="#E0E0E0"/>
<path id="Vector_9" d="M73.7417 52.1045L70.2377 50.0722V353.886L73.7417 351.872V52.1045Z" fill="#E0E0E0"/>
</g>
<path id="Vector_10" d="M63.7202 46.3229L70.2377 50.0722V353.886L63.7202 350.102V46.3229Z" fill="#F0F0F0"/>
<path id="Vector_11" d="M0 105.786V113.302L130.489 188.62V181.122L0 105.786Z" fill="#F0F0F0"/>
<path id="Vector_12" d="M0 209.557V217.073L130.489 292.409V284.893L0 209.557Z" fill="#F0F0F0"/>
<path id="Vector_13" d="M70.2377 146.327L73.7417 144.295L123.972 173.29V177.355L70.2377 146.327Z" fill="#FAFAFA"/>
<path id="Vector_14" d="M70.2377 250.08L73.7417 248.048L123.972 277.044V281.108L70.2377 250.08Z" fill="#FAFAFA"/>
</g>
</svg>
